M48
; DRILL file {KiCad (6.0.2)} date Mon Mar 21 11:06:35 2022
; FORMAT={-:-/ absolute / inch / decimal}
; #@! TF.CreationDate,2022-03-21T11:06:35-04:00
; #@! TF.GenerationSoftware,Kicad,Pcbnew,(6.0.2)
; #@! TF.FileFunction,MixedPlating,1,4
FMAT,2
INCH
; #@! TA.AperFunction,Plated,PTH,ViaDrill
T1C0.0157
; #@! TA.AperFunction,Plated,PTH,ComponentDrill
T2C0.0394
; #@! TA.AperFunction,NonPlated,NPTH,ComponentDrill
T3C0.0866
%
G90
G05
T1
X1.36Y-1.25
X1.4Y-1.55
X1.41Y-1.25
X1.45Y-1.42
X1.54Y-2.19
X1.55Y-1.36
X1.564Y-1.684
X1.59Y-1.79
X1.5998Y-1.8402
X1.6Y-1.57
X1.64Y-1.24
X1.65Y-1.34
X1.66Y-1.62
X1.68Y-1.69
X1.71Y-1.24
X1.72Y-1.88
X1.78Y-1.51
X1.78Y-1.83
X1.8Y-1.47
X1.82Y-2.12
X1.82Y-2.34
X2.2981Y-2.29
X2.3Y-1.78
X2.385Y-1.965
X2.39Y-1.67
X2.41Y-2.535
X2.415Y-2.66
X2.415Y-2.745
X2.44Y-1.095
X2.44Y-1.415
X2.445Y-1.485
X2.4535Y-1.5513
X2.465Y-2.145
X2.475Y-1.66
X2.5Y-1.775
X2.5073Y-1.9368
X2.515Y-1.465
X2.515Y-1.565
X2.52Y-1.41
X2.525Y-1.605
X2.525Y-2.21
X2.525Y-2.255
X2.532Y-2.733
X2.534Y-2.579
X2.5346Y-2.8536
X2.536Y-2.647
X2.5378Y-2.8928
X2.5385Y-1.2411
X2.5394Y-1.1959
X2.54Y-1.915
X2.558Y-2.535
X2.645Y-2.035
X2.645Y-2.11
X2.67Y-1.065
X2.705Y-2.395
X3.0741Y-1.8168
X3.1041Y-1.9268
X3.1341Y-1.0968
X3.1674Y-1.7653
X3.1738Y-1.6665
X3.1937Y-1.6267
X3.2041Y-1.3868
X3.2141Y-1.5046
X3.2172Y-1.4476
X3.2241Y-1.6968
X3.2441Y-1.3368
X3.2576Y-1.7724
X3.2841Y-1.4168
X3.2876Y-1.5019
X3.2926Y-1.4629
X3.2931Y-1.6563
X3.2993Y-1.3016
X3.3041Y-1.0168
X3.3141Y-1.5568
X3.3329Y-1.6568
X3.3336Y-1.7059
X3.3341Y-1.9168
X3.3741Y-1.8579
X3.4135Y-1.3268
X3.4241Y-1.8468
X3.4441Y-1.7468
X3.4483Y-1.6868
T2
X1.3Y-0.95
X1.3Y-1.05
X1.3Y-1.15
X1.3Y-1.25
X1.3Y-1.35
X1.3Y-1.45
X1.3Y-1.55
X1.3Y-1.65
X1.3Y-1.75
X1.3Y-1.85
X1.3Y-1.95
X1.3Y-2.05
X1.3Y-2.15
X1.3Y-2.25
X1.3Y-2.35
X1.4Y-2.49
X1.4994Y-0.8498
X1.4994Y-0.9498
X1.5Y-2.49
X1.5994Y-0.8498
X1.5994Y-0.9498
X1.6Y-2.49
X1.6994Y-0.8498
X1.6994Y-0.9498
X1.7Y-2.49
X1.8Y-2.49
X1.9Y-0.95
X1.9Y-1.05
X1.9Y-1.15
X1.9Y-1.25
X1.9Y-1.35
X1.9Y-1.45
X1.9Y-1.55
X1.9Y-1.65
X1.9Y-1.75
X1.9Y-1.85
X1.9Y-1.95
X1.9Y-2.05
X1.9Y-2.15
X1.9Y-2.25
X1.9Y-2.35
X2.19Y-1.015
X2.19Y-1.115
X2.19Y-1.215
X2.19Y-1.315
X2.19Y-1.415
X2.19Y-1.515
X2.19Y-1.615
X2.19Y-1.715
X2.19Y-1.815
X2.19Y-1.915
X2.19Y-2.015
X2.19Y-2.115
X2.19Y-2.215
X2.19Y-2.315
X2.19Y-2.415
X2.19Y-2.515
X2.19Y-2.615
X2.19Y-2.715
X2.19Y-2.815
X2.19Y-2.915
X2.295Y-0.81
X2.395Y-0.81
X2.4398Y-2.445
X2.495Y-0.81
X2.5398Y-2.445
X2.595Y-0.81
X2.695Y-0.81
X2.79Y-1.015
X2.79Y-1.115
X2.79Y-1.215
X2.79Y-1.315
X2.79Y-1.415
X2.79Y-1.515
X2.79Y-1.615
X2.79Y-1.715
X2.79Y-1.815
X2.79Y-1.915
X2.79Y-2.015
X2.79Y-2.115
X2.79Y-2.215
X2.79Y-2.315
X2.79Y-2.415
X2.79Y-2.515
X2.79Y-2.615
X2.79Y-2.715
X2.79Y-2.815
X2.79Y-2.915
X3.0041Y-0.8168
X3.0041Y-0.9168
X3.0041Y-1.0168
X3.0041Y-1.1168
X3.0041Y-1.2168
X3.0041Y-1.3168
X3.0041Y-1.4168
X3.0041Y-1.5168
X3.0041Y-1.6168
X3.0041Y-1.7168
X3.0041Y-1.8168
X3.0041Y-1.9168
X3.3631Y-0.8156
X3.3631Y-0.9156
X3.3631Y-1.0156
X3.3631Y-1.1156
X3.3631Y-1.2156
X3.5041Y-0.8169
X3.5041Y-0.9169
X3.5041Y-1.0169
X3.5041Y-1.1169
X3.5041Y-1.2169
X3.5041Y-1.3169
X3.5041Y-1.4169
X3.5041Y-1.5169
X3.5041Y-1.6169
X3.5041Y-1.7169
X3.5041Y-1.8169
X3.5041Y-1.9169
T3
X1.3Y-0.83
X1.9Y-0.83
T0
M30
