999
dxfrw 0.6.3
  0
SECTION
  2
HEADER
  9
$ACADVER
  1
AC1021
  9
$DWGCODEPAGE
  3
ANSI_1252
  9
$INSBASE
 10
0
 20
0
 30
0
  9
$EXTMIN
 10
11.27660436317554
 20
-657.3076650732651
 30
0
  9
$EXTMAX
 10
549.5190810780175
 20
103.9096343060457
 30
0
  9
$LIMMIN
 10
0
 20
0
  9
$LIMMAX
 10
420
 20
297
  9
$ORTHOMODE
 70
    0
  9
$REGENMODE
 70
    1
  9
$FILLMODE
 70
    1
  9
$QTEXTMODE
 70
    0
  9
$MIRRTEXT
 70
    0
  9
$LTSCALE
 40
1
  9
$ATTMODE
 70
    0
  9
$TEXTSIZE
 40
2.5
  9
$TRACEWID
 40
15.68
  9
$TEXTSTYLE
  7
STANDARD
  9
$CLAYER
  8
0
  9
$CELTYPE
  6
BYLAYER
  9
$CECOLOR
 62
  256
  9
$CELTSCALE
 40
1
  9
$DISPSILH
 70
    0
  9
$DIMSCALE
 40
2.5
  9
$DIMASZ
 40
2.5
  9
$DIMEXO
 40
0.625
  9
$DIMDLI
 40
3.75
  9
$DIMRND
 40
0
  9
$DIMDLE
 40
0
  9
$DIMEXE
 40
1.25
  9
$DIMTP
 40
0
  9
$DIMTM
 40
0
  9
$DIMTXT
 40
2.5
  9
$DIMCEN
 40
2.5
  9
$DIMTSZ
 40
0
  9
$DIMTOL
 70
    0
  9
$DIMLIM
 70
    0
  9
$DIMTIH
 70
    0
  9
$DIMTOH
 70
    0
  9
$DIMSE1
 70
    0
  9
$DIMSE2
 70
    0
  9
$DIMTAD
 70
    1
  9
$DIMZIN
 70
    8
  9
$DIMBLK
  1

  9
$DIMASO
 70
    1
  9
$DIMSHO
 70
    1
  9
$DIMPOST
  1

  9
$DIMAPOST
  1

  9
$DIMALT
 70
    0
  9
$DIMALTD
 70
    3
  9
$DIMALTF
 40
0.03937
  9
$DIMLFAC
 40
1
  9
$DIMTOFL
 70
    1
  9
$DIMTVP
 40
0
  9
$DIMTIX
 70
    0
  9
$DIMSOXD
 70
    0
  9
$DIMSAH
 70
    0
  9
$DIMBLK1
  1

  9
$DIMBLK2
  1

  9
$DIMSTYLE
  2
STANDARD
  9
$DIMCLRD
 70
    0
  9
$DIMCLRE
 70
    0
  9
$DIMCLRT
 70
    0
  9
$DIMTFAC
 40
1
  9
$DIMGAP
 40
0.625
  9
$DIMJUST
 70
    0
  9
$DIMSD1
 70
    0
  9
$DIMSD2
 70
    0
  9
$DIMTOLJ
 70
    0
  9
$DIMTZIN
 70
    8
  9
$DIMALTZ
 70
    0
  9
$DIMALTTZ
 70
    0
  9
$DIMUPT
 70
    0
  9
$DIMDEC
 70
    4
  9
$DIMTDEC
 70
    2
  9
$DIMALTU
 70
    2
  9
$DIMALTTD
 70
    3
  9
$DIMTXSTY
  7
STANDARD
  9
$DIMAUNIT
 70
    0
  9
$DIMADEC
 70
    0
  9
$DIMALTRND
 40
0
  9
$DIMAZIN
 70
    0
  9
$DIMDSEP
 70
   44
  9
$DIMATFIT
 70
    3
  9
$DIMFRAC
 70
    0
  9
$DIMLDRBLK
  1
STANDARD
  9
$DIMLUNIT
 70
    2
  9
$DIMLWD
 70
   -2
  9
$DIMLWE
 70
   -2
  9
$DIMTMOVE
 70
    0
  9
$DIMFXL
 40
1
  9
$DIMFXLON
 70
    0
  9
$DIMJOGANG
 40
0.7854
  9
$DIMTFILL
 70
    0
  9
$DIMTFILLCLR
 70
    0
  9
$DIMARCSYM
 70
    0
  9
$DIMLTYPE
  6

  9
$DIMLTEX1
  6

  9
$DIMLTEX2
  6

  9
$LUNITS
 70
    2
  9
$LUPREC
 70
    4
  9
$SKETCHINC
 40
1
  9
$FILLETRAD
 40
0
  9
$AUNITS
 70
    0
  9
$AUPREC
 70
    2
  9
$MENU
  1
.
  9
$ELEVATION
 40
0
  9
$PELEVATION
 40
0
  9
$THICKNESS
 40
0
  9
$LIMCHECK
 70
    0
  9
$CHAMFERA
 40
0
  9
$CHAMFERB
 40
0
  9
$CHAMFERC
 40
0
  9
$CHAMFERD
 40
0
  9
$SKPOLY
 70
    0
  9
$USRTIMER
 70
    1
  9
$ANGBASE
 50
0
  9
$ANGDIR
 70
    0
  9
$PDMODE
 70
   34
  9
$PDSIZE
 40
0
  9
$PLINEWID
 40
0
  9
$SPLFRAME
 70
    0
  9
$SPLINETYPE
 70
    2
  9
$SPLINESEGS
 70
    8
  9
$HANDSEED
  5
20000
  9
$SURFTAB1
 70
    6
  9
$SURFTAB2
 70
    6
  9
$SURFTYPE
 70
    6
  9
$SURFU
 70
    6
  9
$SURFV
 70
    6
  9
$UCSBASE
  2

  9
$UCSNAME
  2

  9
$UCSORG
 10
0
 20
0
 30
0
  9
$UCSXDIR
 10
1
 20
0
 30
0
  9
$UCSYDIR
 10
0
 20
1
 30
0
  9
$UCSORTHOREF
  2

  9
$UCSORTHOVIEW
 70
    0
  9
$UCSORGTOP
 10
0
 20
0
 30
0
  9
$UCSORGBOTTOM
 10
0
 20
0
 30
0
  9
$UCSORGLEFT
 10
0
 20
0
 30
0
  9
$UCSORGRIGHT
 10
0
 20
0
 30
0
  9
$UCSORGFRONT
 10
0
 20
0
 30
0
  9
$UCSORGBACK
 10
0
 20
0
 30
0
  9
$PUCSBASE
  2

  9
$PUCSNAME
  2

  9
$PUCSORG
 10
0
 20
0
 30
0
  9
$PUCSXDIR
 10
1
 20
0
 30
0
  9
$PUCSYDIR
 10
0
 20
1
 30
0
  9
$PUCSORTHOREF
  2

  9
$PUCSORTHOVIEW
 70
    0
  9
$PUCSORGTOP
 10
0
 20
0
 30
0
  9
$PUCSORGBOTTOM
 10
0
 20
0
 30
0
  9
$PUCSORGLEFT
 10
0
 20
0
 30
0
  9
$PUCSORGRIGHT
 10
0
 20
0
 30
0
  9
$PUCSORGFRONT
 10
0
 20
0
 30
0
  9
$PUCSORGBACK
 10
0
 20
0
 30
0
  9
$USERI1
 70
    0
  9
$USERI2
 70
    0
  9
$USERI3
 70
    0
  9
$USERI4
 70
    0
  9
$USERI5
 70
    0
  9
$USERR1
 40
0
  9
$USERR2
 40
0
  9
$USERR3
 40
0
  9
$USERR4
 40
0
  9
$USERR5
 40
0
  9
$WORLDVIEW
 70
    1
  9
$SHADEDGE
 70
    3
  9
$SHADEDIF
 70
   70
  9
$TILEMODE
 70
    1
  9
$MAXACTVP
 70
   64
  9
$PINSBASE
 10
0
 20
0
 30
0
  9
$PLIMCHECK
 70
    0
  9
$PEXTMIN
 10
0
 20
0
 30
0
  9
$PEXTMAX
 10
0
 20
0
 30
0
  9
$GRIDMODE
 70
    1
  9
$SNAPSTYLE
 70
    0
  9
$PLIMMIN
 10
0
 20
0
  9
$PLIMMAX
 10
210
 20
297
  9
$UNITMODE
 70
    0
  9
$VISRETAIN
 70
    1
  9
$PLINEGEN
 70
    0
  9
$PSLTSCALE
 70
    1
  9
$TREEDEPTH
 70
 3020
  9
$CMLSTYLE
  2
Standard
  9
$CMLJUST
 70
    0
  9
$CMLSCALE
 40
20
  9
$PROXYGRAPHICS
 70
    1
  9
$MEASUREMENT
 70
    1
  9
$CELWEIGHT
370
   -1
  9
$ENDCAPS
280
    0
  9
$JOINSTYLE
280
    0
  9
$LWDISPLAY
290
    0
  9
$INSUNITS
 70
    0
  9
$HYPERLINKBASE
  1

  9
$STYLESHEET
  1

  9
$XEDIT
290
    1
  9
$CEPSNTYPE
380
    0
  9
$PSTYLEMODE
290
    1
  9
$EXTNAMES
290
    1
  9
$PSVPSCALE
 40
1
  9
$OLESTARTUP
290
    0
  9
$SORTENTS
280
  127
  9
$INDEXCTL
280
    0
  9
$HIDETEXT
280
    1
  9
$XCLIPFRAME
290
    0
  9
$HALOGAP
280
    0
  9
$OBSCOLOR
 70
  257
  9
$OBSLTYPE
280
    0
  9
$INTERSECTIONDISPLAY
280
    0
  9
$INTERSECTIONCOLOR
 70
  257
  9
$DIMASSOC
280
    1
  9
$PROJECTNAME
  1

  9
$CAMERADISPLAY
290
    0
  9
$LENSLENGTH
 40
50
  9
$CAMERAHEIGHT
 40
0
  9
$STEPSPERSEC
 40
2
  9
$STEPSIZE
 40
50
  9
$3DDWFPREC
 40
2
  9
$PSOLWIDTH
 40
5
  9
$PSOLHEIGHT
 40
80
  9
$LOFTANG1
 40
1.570796326794897
  9
$LOFTANG2
 40
1.570796326794897
  9
$LOFTMAG1
 40
0
  9
$LOFTMAG2
 40
0
  9
$LOFTPARAM
 70
    7
  9
$LOFTNORMALS
280
    1
  9
$LATITUDE
 40
1
  9
$LONGITUDE
 40
1
  9
$NORTHDIRECTION
 40
0
  9
$TIMEZONE
 70
-8000
  9
$LIGHTGLYPHDISPLAY
280
    1
  9
$TILEMODELIGHTSYNCH
280
    1
  9
$SOLIDHIST
280
    1
  9
$SHOWHIST
280
    1
  9
$DWFFRAME
280
    2
  9
$DGNFRAME
280
    0
  9
$REALWORLDSCALE
290
    1
  9
$INTERFERECOLOR
 62
    1
  9
$CSHADOW
280
    0
  9
$SHADOWPLANELOCATION
 40
0
  0
ENDSEC
  0
SECTION
  2
CLASSES
  0
ENDSEC
  0
SECTION
  2
TABLES
  0
TABLE
  2
VPORT
  5
8
330
0
100
AcDbSymbolTable
 70
    1
  0
VPORT
  5
31
330
2
100
AcDbSymbolTableRecord
100
AcDbViewportTableRecord
  2
*ACTIVE
 70
    0
 10
0
 20
0
 11
1
 21
1
 12
1318.311179413414
 22
709.8598658379921
 13
0
 23
0
 14
10
 24
10
 15
10
 25
10
 16
0
 26
0
 36
1
 17
0
 27
0
 37
0
 40
2687.326634958113
 41
1.719077568134172
 42
50
 43
0
 44
0
 50
0
 51
0
 71
    0
 72
  100
 73
    1
 74
    3
 75
    0
 76
    1
 77
    0
 78
    0
281
    0
 65
    1
110
0
120
0
130
0
111
1
121
0
131
0
112
0
122
1
132
0
 79
    0
146
0
348
10020
 60
    7
 61
    5
292
1
282
    1
141
0
142
0
 63
  250
421
3358443
  0
ENDTAB
  0
TABLE
  2
LTYPE
  5
5
330
0
100
AcDbSymbolTable
 70
    4
  0
LTYPE
  5
14
330
5
100
AcDbSymbolTableRecord
100
AcDbLinetypeTableRecord
  2
ByBlock
 70
    0
  3

 72
   65
 73
    0
 40
0
  0
LTYPE
  5
15
330
5
100
AcDbSymbolTableRecord
100
AcDbLinetypeTableRecord
  2
ByLayer
 70
    0
  3

 72
   65
 73
    0
 40
0
  0
LTYPE
  5
16
330
5
100
AcDbSymbolTableRecord
100
AcDbLinetypeTableRecord
  2
Continuous
 70
    0
  3
Solid line
 72
   65
 73
    0
 40
0
  0
LTYPE
  5
32
330
5
100
AcDbSymbolTableRecord
100
AcDbLinetypeTableRecord
  2
DOT
 70
    0
  3
Dot . . . . . . . . . . . . . . . . . . . . . .
 72
   65
 73
    2
 40
6.35
 49
0
 74
    0
 49
-6.35
 74
    0
  0
LTYPE
  5
33
330
5
100
AcDbSymbolTableRecord
100
AcDbLinetypeTableRecord
  2
DOTTINY
 70
    0
  3
Dot (.15x) .....................................
 72
   65
 73
    2
 40
0.9525
 49
0
 74
    0
 49
-0.9525
 74
    0
  0
LTYPE
  5
34
330
5
100
AcDbSymbolTableRecord
100
AcDbLinetypeTableRecord
  2
DOT2
 70
    0
  3
Dot (.5x) .....................................
 72
   65
 73
    2
 40
3.175
 49
0
 74
    0
 49
-3.175
 74
    0
  0
LTYPE
  5
35
330
5
100
AcDbSymbolTableRecord
100
AcDbLinetypeTableRecord
  2
DOTX2
 70
    0
  3
Dot (2x) .  .  .  .  .  .  .  .  .  .  .  .  .
 72
   65
 73
    2
 40
12.7
 49
0
 74
    0
 49
-12.7
 74
    0
  0
LTYPE
  5
36
330
5
100
AcDbSymbolTableRecord
100
AcDbLinetypeTableRecord
  2
DASHED
 70
    0
  3
Dashed _ _ _ _ _ _ _ _ _ _ _ _ _ _ _ _ _
 72
   65
 73
    2
 40
19.05
 49
12.7
 74
    0
 49
-6.35
 74
    0
  0
LTYPE
  5
37
330
5
100
AcDbSymbolTableRecord
100
AcDbLinetypeTableRecord
  2
DASHEDTINY
 70
    0
  3
Dashed (.15x) _ _ _ _ _ _ _ _ _ _ _ _ _ _ _ _ _
 72
   65
 73
    2
 40
2.8575
 49
1.905
 74
    0
 49
-0.9525
 74
    0
  0
LTYPE
  5
38
330
5
100
AcDbSymbolTableRecord
100
AcDbLinetypeTableRecord
  2
DASHED2
 70
    0
  3
Dashed (.5x) _ _ _ _ _ _ _ _ _ _ _ _ _ _ _ _ _
 72
   65
 73
    2
 40
9.524999999999999
 49
6.35
 74
    0
 49
-3.175
 74
    0
  0
LTYPE
  5
39
330
5
100
AcDbSymbolTableRecord
100
AcDbLinetypeTableRecord
  2
DASHEDX2
 70
    0
  3
Dashed (2x) ____  ____  ____  ____  ____  ___
 72
   65
 73
    2
 40
38.09999999999999
 49
25.4
 74
    0
 49
-12.7
 74
    0
  0
LTYPE
  5
3A
330
5
100
AcDbSymbolTableRecord
100
AcDbLinetypeTableRecord
  2
DASHDOT
 70
    0
  3
Dash dot __ . __ . __ . __ . __ . __ . __ . __
 72
   65
 73
    4
 40
25.4
 49
12.7
 74
    0
 49
-6.35
 74
    0
 49
0
 74
    0
 49
-6.35
 74
    0
  0
LTYPE
  5
3B
330
5
100
AcDbSymbolTableRecord
100
AcDbLinetypeTableRecord
  2
DASHDOTTINY
 70
    0
  3
Dash dot (.15x) _._._._._._._._._._._._._._._.
 72
   65
 73
    4
 40
3.81
 49
1.905
 74
    0
 49
-0.9525
 74
    0
 49
0
 74
    0
 49
-0.9525
 74
    0
  0
LTYPE
  5
3C
330
5
100
AcDbSymbolTableRecord
100
AcDbLinetypeTableRecord
  2
DASHDOT2
 70
    0
  3
Dash dot (.5x) _._._._._._._._._._._._._._._.
 72
   65
 73
    4
 40
12.7
 49
6.35
 74
    0
 49
-3.175
 74
    0
 49
0
 74
    0
 49
-3.175
 74
    0
  0
LTYPE
  5
3D
330
5
100
AcDbSymbolTableRecord
100
AcDbLinetypeTableRecord
  2
DASHDOTX2
 70
    0
  3
Dash dot (2x) ____  .  ____  .  ____  .  ___
 72
   65
 73
    4
 40
50.8
 49
25.4
 74
    0
 49
-12.7
 74
    0
 49
0
 74
    0
 49
-12.7
 74
    0
  0
LTYPE
  5
3E
330
5
100
AcDbSymbolTableRecord
100
AcDbLinetypeTableRecord
  2
DIVIDE
 70
    0
  3
Divide ____ . . ____ . . ____ . . ____ . . ____
 72
   65
 73
    6
 40
31.75
 49
12.7
 74
    0
 49
-6.35
 74
    0
 49
0
 74
    0
 49
-6.35
 74
    0
 49
0
 74
    0
 49
-6.35
 74
    0
  0
LTYPE
  5
3F
330
5
100
AcDbSymbolTableRecord
100
AcDbLinetypeTableRecord
  2
DIVIDETINY
 70
    0
  3
Divide (.15x) __..__..__..__..__..__..__..__.._
 72
   65
 73
    6
 40
4.7625
 49
1.905
 74
    0
 49
-0.9525
 74
    0
 49
0
 74
    0
 49
-0.9525
 74
    0
 49
0
 74
    0
 49
-0.9525
 74
    0
  0
LTYPE
  5
40
330
5
100
AcDbSymbolTableRecord
100
AcDbLinetypeTableRecord
  2
DIVIDE2
 70
    0
  3
Divide (.5x) __..__..__..__..__..__..__..__.._
 72
   65
 73
    6
 40
15.875
 49
6.35
 74
    0
 49
-3.175
 74
    0
 49
0
 74
    0
 49
-3.175
 74
    0
 49
0
 74
    0
 49
-3.175
 74
    0
  0
LTYPE
  5
41
330
5
100
AcDbSymbolTableRecord
100
AcDbLinetypeTableRecord
  2
DIVIDEX2
 70
    0
  3
Divide (2x) ________  .  .  ________  .  .  _
 72
   65
 73
    6
 40
63.5
 49
25.4
 74
    0
 49
-12.7
 74
    0
 49
0
 74
    0
 49
-12.7
 74
    0
 49
0
 74
    0
 49
-12.7
 74
    0
  0
LTYPE
  5
42
330
5
100
AcDbSymbolTableRecord
100
AcDbLinetypeTableRecord
  2
BORDER
 70
    0
  3
Border __ __ . __ __ . __ __ . __ __ . __ __ .
 72
   65
 73
    6
 40
44.45
 49
12.7
 74
    0
 49
-6.35
 74
    0
 49
12.7
 74
    0
 49
-6.35
 74
    0
 49
0
 74
    0
 49
-6.35
 74
    0
  0
LTYPE
  5
43
330
5
100
AcDbSymbolTableRecord
100
AcDbLinetypeTableRecord
  2
BORDERTINY
 70
    0
  3
Border (.15x) __.__.__.__.__.__.__.__.__.__.__.
 72
   65
 73
    6
 40
6.6675
 49
1.905
 74
    0
 49
-0.9525
 74
    0
 49
1.905
 74
    0
 49
-0.9525
 74
    0
 49
0
 74
    0
 49
-0.9525
 74
    0
  0
LTYPE
  5
44
330
5
100
AcDbSymbolTableRecord
100
AcDbLinetypeTableRecord
  2
BORDER2
 70
    0
  3
Border (.5x) __.__.__.__.__.__.__.__.__.__.__.
 72
   65
 73
    6
 40
22.225
 49
6.35
 74
    0
 49
-3.175
 74
    0
 49
6.35
 74
    0
 49
-3.175
 74
    0
 49
0
 74
    0
 49
-3.175
 74
    0
  0
LTYPE
  5
45
330
5
100
AcDbSymbolTableRecord
100
AcDbLinetypeTableRecord
  2
BORDERX2
 70
    0
  3
Border (2x) ____  ____  .  ____  ____  .  ___
 72
   65
 73
    6
 40
88.89999999999999
 49
25.4
 74
    0
 49
-12.7
 74
    0
 49
25.4
 74
    0
 49
-12.7
 74
    0
 49
0
 74
    0
 49
-12.7
 74
    0
  0
LTYPE
  5
46
330
5
100
AcDbSymbolTableRecord
100
AcDbLinetypeTableRecord
  2
CENTER
 70
    0
  3
Center ____ _ ____ _ ____ _ ____ _ ____ _ ____
 72
   65
 73
    4
 40
50.8
 49
31.75
 74
    0
 49
-6.35
 74
    0
 49
6.35
 74
    0
 49
-6.35
 74
    0
  0
LTYPE
  5
47
330
5
100
AcDbSymbolTableRecord
100
AcDbLinetypeTableRecord
  2
CENTERTINY
 70
    0
  3
Center (.15x) ___ _ ___ _ ___ _ ___ _ ___ _ ___
 72
   65
 73
    4
 40
7.619999999999999
 49
4.7625
 74
    0
 49
-0.9525
 74
    0
 49
0.9525
 74
    0
 49
-0.9525
 74
    0
  0
LTYPE
  5
48
330
5
100
AcDbSymbolTableRecord
100
AcDbLinetypeTableRecord
  2
CENTER2
 70
    0
  3
Center (.5x) ___ _ ___ _ ___ _ ___ _ ___ _ ___
 72
   65
 73
    4
 40
28.575
 49
19.05
 74
    0
 49
-3.175
 74
    0
 49
3.175
 74
    0
 49
-3.175
 74
    0
  0
LTYPE
  5
49
330
5
100
AcDbSymbolTableRecord
100
AcDbLinetypeTableRecord
  2
CENTERX2
 70
    0
  3
Center (2x) ________  __  ________  __  _____
 72
   65
 73
    4
 40
101.6
 49
63.5
 74
    0
 49
-12.7
 74
    0
 49
12.7
 74
    0
 49
-12.7
 74
    0
  0
ENDTAB
  0
TABLE
  2
LAYER
  5
2
330
0
100
AcDbSymbolTable
 70
    1
  0
LAYER
  5
10
330
2
100
AcDbSymbolTableRecord
100
AcDbLayerTableRecord
  2
0
 70
    0
 62
    7
  6
CONTINUOUS
370
   -3
390
F
  0
ENDTAB
  0
TABLE
  2
STYLE
  5
3
330
0
100
AcDbSymbolTable
 70
    3
  0
STYLE
  5
4A
330
2
100
AcDbSymbolTableRecord
100
AcDbTextStyleTableRecord
  2
Standard
 70
    0
 40
0
 41
1
 50
0
 71
    0
 42
1
  3
txt
  4

  0
ENDTAB
  0
TABLE
  2
VIEW
  5
6
330
0
100
AcDbSymbolTable
 70
    0
  0
ENDTAB
  0
TABLE
  2
UCS
  5
7
330
0
100
AcDbSymbolTable
 70
    0
  0
ENDTAB
  0
TABLE
  2
APPID
  5
9
330
0
100
AcDbSymbolTable
 70
    1
  0
APPID
  5
12
330
9
100
AcDbSymbolTableRecord
100
AcDbRegAppTableRecord
  2
ACAD
 70
    0
  0
APPID
  5
4B
330
9
100
AcDbSymbolTableRecord
100
AcDbRegAppTableRecord
  2
LibreCad
 70
    0
  0
ENDTAB
  0
TABLE
  2
DIMSTYLE
  5
A
330
0
100
AcDbSymbolTable
 70
    1
100
AcDbDimStyleTable
 71
    1
  0
DIMSTYLE
105
4C
330
A
100
AcDbSymbolTableRecord
100
AcDbDimStyleTableRecord
  2
Standard
 70
    0
 40
2.5
 41
2.5
 42
0.625
 43
0.38
 44
1.25
 45
0
 46
0
 47
0
 48
0
 49
1
140
2.5
141
0.09
142
0
143
25.4
144
1
145
0
146
1
147
0.625
148
0
 71
    0
 72
    0
 73
    0
 74
    1
 75
    0
 76
    0
 77
    0
 78
    8
 79
    0
170
    0
171
    2
172
    0
173
    0
174
    0
175
    0
176
    0
177
    0
178
    0
179
    0
271
    4
272
    4
273
    2
274
    2
275
    0
276
    0
277
    2
278
    0
279
    0
280
    0
281
    0
282
    0
283
    1
284
    0
285
    0
286
    0
288
    0
289
    3
340
standard
341

371
   -2
372
   -2
  0
ENDTAB
  0
TABLE
  2
BLOCK_RECORD
  5
1
330
0
100
AcDbSymbolTable
 70
    2
  0
BLOCK_RECORD
  5
1F
330
1
100
AcDbSymbolTableRecord
100
AcDbBlockTableRecord
  2
*Model_Space
 70
    0
280
    1
281
    0
  0
BLOCK_RECORD
  5
1E
330
1
100
AcDbSymbolTableRecord
100
AcDbBlockTableRecord
  2
*Paper_Space
 70
    0
280
    1
281
    0
  0
ENDTAB
  0
ENDSEC
  0
SECTION
  2
BLOCKS
  0
BLOCK
  5
20
330
1F
100
AcDbEntity
  8
0
100
AcDbBlockBegin
  2
*Model_Space
 70
    0
 10
0
 20
0
 30
0
  3
*Model_Space
  1

  0
ENDBLK
  5
21
330
1F
100
AcDbEntity
  8
0
100
AcDbBlockEnd
  0
BLOCK
  5
1C
330
1B
100
AcDbEntity
  8
0
100
AcDbBlockBegin
  2
*Paper_Space
 70
    0
 10
0
 20
0
 30
0
  3
*Paper_Space
  1

  0
ENDBLK
  5
1D
330
1F
100
AcDbEntity
  8
0
100
AcDbBlockEnd
  0
ENDSEC
  0
SECTION
  2
ENTITIES
  0
ARC
  5
4D
100
AcDbEntity
  8
0
  6
ByLayer
 62
  256
370
   -1
100
AcDbCircle
 10
550.3979419232408
 20
-669.0802330449189
 40
19.35342743825622
100
AcDbArc
 50
100.5851199353513
 51
101.3810697041805
  0
ARC
  5
4E
100
AcDbEntity
  8
0
  6
ByLayer
 62
  256
370
   -1
100
AcDbCircle
 10
556.4978089759198
 20
-699.3838304648237
 40
50.26485565902905
100
AcDbArc
 50
101.3810792593008
 51
101.7713777320285
  0
ARC
  5
4F
100
AcDbEntity
  8
0
  6
ByLayer
 62
  256
370
   -1
100
AcDbCircle
 10
556.9878363630042
 20
-701.734964496301
 40
52.66651301778018
100
AcDbArc
 50
101.7714581893363
 51
102.1585481076404
  0
ARC
  5
50
100
AcDbEntity
  8
0
  6
ByLayer
 62
  256
370
   -1
100
AcDbCircle
 10
552.6287043649469
 20
-681.5021773082563
 40
31.96946711331325
100
AcDbArc
 50
102.1586036697142
 51
102.7212470941791
  0
ARC
  5
51
100
AcDbEntity
  8
0
  6
ByLayer
 62
  256
370
   -1
100
AcDbCircle
 10
544.0202919903676
 20
-643.3695986997175
 40
7.122710044620651
100
AcDbArc
 50
280.402257268063
 51
282.721282090262
  0
ARC
  5
52
100
AcDbEntity
  8
0
  6
ByLayer
 62
  256
370
   -1
100
AcDbCircle
 10
544.6920614007392
 20
-647.0289746897354
 40
3.40218497723715
100
AcDbArc
 50
276.3722714288284
 51
280.4022703280652
  0
ARC
  5
53
100
AcDbEntity
  8
0
  6
ByLayer
 62
  256
370
   -1
100
AcDbCircle
 10
544.7019699807489
 20
-647.1177241946268
 40
3.31288405580603
100
AcDbArc
 50
273.1318859290894
 51
276.3723192662143
  0
ARC
  5
54
100
AcDbEntity
  8
0
  6
ByLayer
 62
  256
370
   -1
100
AcDbCircle
 10
544.8787053663888
 20
-650.3477598534029
 40
0.07801686324592526
100
AcDbArc
 50
225.0000070737965
 51
273.1318720162055
  0
ARC
  5
55
100
AcDbEntity
  8
0
  6
ByLayer
 62
  256
370
   -1
100
AcDbCircle
 10
544.7748782219736
 20
-650.4515870753713
 40
0.06881694736689556
100
AcDbArc
 50
45.00003763810768
 51
87.45297585651127
  0
ARC
  5
56
100
AcDbEntity
  8
0
  6
ByLayer
 62
  256
370
   -1
100
AcDbCircle
 10
544.7619096970034
 20
-650.7431238991386
 40
0.3606420700897308
100
AcDbArc
 50
87.45297336481511
 51
99.90643005493267
  0
ARC
  5
57
100
AcDbEntity
  8
0
  6
ByLayer
 62
  256
370
   -1
100
AcDbCircle
 10
544.7981498780873
 20
-650.9506294009811
 40
0.5712884183127064
100
AcDbArc
 50
99.90649687096267
 51
110.0481005241178
  0
ARC
  5
58
100
AcDbEntity
  8
0
  6
ByLayer
 62
  256
370
   -1
100
AcDbCircle
 10
544.9596747942084
 20
-651.3932583589788
 40
1.042468525050974
100
AcDbArc
 50
110.0481109968591
 51
116.5130265549011
  0
ARC
  5
59
100
AcDbEntity
  8
0
  6
ByLayer
 62
  256
370
   -1
100
AcDbCircle
 10
544.1197325313653
 20
-649.7095527997657
 40
0.8391178840822847
100
AcDbArc
 50
271.5532728280971
 51
296.5130036035039
  0
ARC
  5
5A
100
AcDbEntity
  8
0
  6
ByLayer
 62
  256
370
   -1
100
AcDbCircle
 10
543.8934776608469
 20
-641.3657469071453
 40
9.18599083388572
100
AcDbArc
 50
267.2375845639175
 51
271.5532800414387
  0
ARC
  5
5B
100
AcDbEntity
  8
0
  6
ByLayer
 62
  256
370
   -1
100
AcDbCircle
 10
543.9687682593891
 20
-639.8053835050125
 40
10.74816963957366
100
AcDbArc
 50
262.7738800808006
 51
267.2375735392396
  0
ARC
  5
5C
100
AcDbEntity
  8
0
  6
ByLayer
 62
  256
370
   -1
100
AcDbCircle
 10
544.4630151204505
 20
-635.907486622868
 40
14.67727641632774
100
AcDbArc
 50
259.2398400419418
 51
262.773792790005
  0
ARC
  5
5D
100
AcDbEntity
  8
0
  6
ByLayer
 62
  256
370
   -1
100
AcDbCircle
 10
538.0835951508841
 20
-669.4761869128787
 40
19.49222223831453
100
AcDbArc
 50
79.23973678623112
 51
81.06239169698141
  0
ARC
  5
5E
100
AcDbEntity
  8
0
  6
ByLayer
 62
  256
370
   -1
100
AcDbCircle
 10
540.5927774314912
 20
-653.521393178886
 40
3.34132632472705
100
AcDbArc
 50
81.06235435275127
 51
87.78191071313275
  0
ARC
  5
5F
100
AcDbEntity
  8
0
  6
ByLayer
 62
  256
370
   -1
100
AcDbCircle
 10
540.6636774490139
 20
-651.6908618971199
 40
1.509422510110092
100
AcDbArc
 50
87.78188446907075
 51
98.49960531610957
  0
ARC
  5
60
100
AcDbEntity
  8
0
  6
ByLayer
 62
  256
370
   -1
100
AcDbCircle
 10
540.5712777417864
 20
-651.0725777740585
 40
0.8842721580152649
100
AcDbArc
 50
98.49954891614996
 51
114.495486578192
  0
ARC
  5
61
100
AcDbEntity
  8
0
  6
ByLayer
 62
  256
370
   -1
100
AcDbCircle
 10
540.391261620396
 20
-650.6774873942184
 40
0.4501037434548439
100
AcDbArc
 50
114.4954115947879
 51
148.1819493614568
  0
ARC
  5
62
100
AcDbEntity
  8
0
  6
ByLayer
 62
  256
370
   -1
100
AcDbCircle
 10
540.3699774641954
 20
-650.6642818491275
 40
0.4250557549897939
100
AcDbArc
 50
148.1818948529923
 51
183.3438045255633
  0
ARC
  5
63
100
AcDbEntity
  8
0
  6
ByLayer
 62
  256
370
   -1
100
AcDbCircle
 10
540.4420914466451
 20
-650.6600683461539
 40
0.4972927266321229
100
AcDbArc
 50
183.3438180547895
 51
215.3054230707679
  0
ARC
  5
64
100
AcDbEntity
  8
0
  6
ByLayer
 62
  256
370
   -1
100
AcDbCircle
 10
540.5564036143401
 20
-650.5791144826624
 40
0.6373669915679904
100
AcDbArc
 50
215.3054298402255
 51
241.8449697588765
  0
ARC
  5
65
100
AcDbEntity
  8
0
  6
ByLayer
 62
  256
370
   -1
100
AcDbCircle
 10
540.6856194129632
 20
-650.3376694984588
 40
0.9112143998243585
100
AcDbArc
 50
241.8450796629849
 51
270.3954652376241
  0
ARC
  5
66
100
AcDbEntity
  8
0
  6
ByLayer
 62
  256
370
   -1
100
AcDbCircle
 10
540.6164386165668
 20
-640.316628825592
 40
10.9324938665305
100
AcDbArc
 50
270.3955321459944
 51
275.0223398040396
  0
ARC
  5
67
100
AcDbEntity
  8
0
  6
ByLayer
 62
  256
370
   -1
100
AcDbCircle
 10
540.3796735521458
 20
-637.6227044466939
 40
13.63680269776116
100
AcDbArc
 50
275.0224183868115
 51
279.6657204809556
  0
ARC
  5
68
100
AcDbEntity
  8
0
  6
ByLayer
 62
  256
370
   -1
100
AcDbCircle
 10
538.7703280734776
 20
-628.1736241014802
 40
23.22195330899358
100
AcDbArc
 50
279.6657265022188
 51
282.7824247623704
  0
ARC
  5
69
100
AcDbEntity
  8
0
  6
ByLayer
 62
  256
370
   -1
100
AcDbCircle
 10
547.747775803229
 20
-667.7443399249702
 40
17.35434665200994
100
AcDbArc
 50
101.5380906579176
 51
102.7823135818273
  0
ARC
  5
6A
100
AcDbEntity
  8
0
  6
ByLayer
 62
  256
370
   -1
100
AcDbCircle
 10
544.5263262801803
 20
-651.9641209789633
 40
1.248662965390265
100
AcDbArc
 50
93.02024653936513
 51
101.5380383674026
  0
ARC
  5
6B
100
AcDbEntity
  8
0
  6
ByLayer
 62
  256
370
   -1
100
AcDbCircle
 10
544.4752181314709
 20
-650.9954693457769
 40
0.2786639811953804
100
AcDbArc
 50
71.6317002207421
 51
93.02024038465936
  0
ARC
  5
6C
100
AcDbEntity
  8
0
  6
ByLayer
 62
  256
370
   -1
100
AcDbCircle
 10
544.5354734652756
 20
-650.8139995305572
 40
0.0874520592665932
100
AcDbArc
 50
20.99362947205105
 51
71.63160904968151
  0
ARC
  5
6D
100
AcDbEntity
  8
0
  6
ByLayer
 62
  256
370
   -1
100
AcDbCircle
 10
544.4836995823547
 20
-650.8338670134027
 40
0.1429070124025365
100
AcDbArc
 50
359.6241570945473
 51
20.99361291301814
  0
ARC
  5
6E
100
AcDbEntity
  8
0
  6
ByLayer
 62
  256
370
   -1
100
AcDbCircle
 10
544.3440034021334
 20
-650.8329507509496
 40
0.2826061974585601
100
AcDbArc
 50
346.793721146871
 51
359.6241804475803
  0
ARC
  5
6F
100
AcDbEntity
  8
0
  6
ByLayer
 62
  256
370
   -1
100
AcDbCircle
 10
544.3137822643092
 20
-650.8258589093805
 40
0.3136482880490121
100
AcDbArc
 50
334.5525504224037
 51
346.7937133982686
  0
ARC
  5
70
100
AcDbEntity
  8
0
  6
ByLayer
 62
  256
370
   -1
100
AcDbCircle
 10
544.3655783787135
 20
-650.8505061192483
 40
0.2562869559371392
100
AcDbArc
 50
320.3097697186959
 51
334.5525543219329
  0
ARC
  5
71
100
AcDbEntity
  8
0
  6
ByLayer
 62
  256
370
   -1
100
AcDbCircle
 10
544.7460528969259
 20
-651.1662725557792
 40
0.2381514137798354
100
AcDbArc
 50
140.3097729206239
 51
155.7662408497376
  0
ARC
  5
72
100
AcDbEntity
  8
0
  6
ByLayer
 62
  256
370
   -1
100
AcDbCircle
 10
544.8168126918604
 20
-651.1981236321602
 40
0.3157493496143146
100
AcDbArc
 50
155.7662015948864
 51
168.2770127807254
  0
ARC
  5
73
100
AcDbEntity
  8
0
  6
ByLayer
 62
  256
370
   -1
100
AcDbCircle
 10
544.7974034213173
 20
-651.1940964094889
 40
0.2959266781162014
100
AcDbArc
 50
168.2769434504866
 51
181.1620052935062
  0
ARC
  5
74
100
AcDbEntity
  8
0
  6
ByLayer
 62
  256
370
   -1
100
AcDbCircle
 10
544.6678605445275
 20
-651.1967243361726
 40
0.1663571488068725
100
AcDbArc
 50
181.1618913590601
 51
200.9936498741766
  0
ARC
  5
75
100
AcDbEntity
  8
0
  6
ByLayer
 62
  256
370
   -1
100
AcDbCircle
 10
544.3552213685088
 20
-651.3166953048002
 40
0.1685104185913316
100
AcDbArc
 50
0.4845898215968637
 51
20.99358227131152
  0
ARC
  5
76
100
AcDbEntity
  8
0
  6
ByLayer
 62
  256
370
   -1
100
AcDbCircle
 10
544.1189186649302
 20
-651.3186932650568
 40
0.4048215684838573
100
AcDbArc
 50
349.8289776604967
 51
0.484496141449864
  0
ARC
  5
77
100
AcDbEntity
  8
0
  6
ByLayer
 62
  256
370
   -1
100
AcDbCircle
 10
544.0659591046924
 20
-651.3091911718255
 40
0.4586268172593625
100
AcDbArc
 50
339.6977957841698
 51
349.8288776227856
  0
ARC
  5
78
100
AcDbEntity
  8
0
  6
ByLayer
 62
  256
370
   -1
100
AcDbCircle
 10
544.1404157052438
 20
-651.3367366107436
 40
0.3792383006412234
100
AcDbArc
 50
328.0147531097534
 51
339.6977744805764
  0
ARC
  5
79
100
AcDbEntity
  8
0
  6
ByLayer
 62
  256
370
   -1
100
AcDbCircle
 10
544.9043475701726
 20
-651.813820941977
 40
0.5214288706058409
100
AcDbArc
 50
148.0147355159729
 51
158.1341518146024
  0
ARC
  5
7A
100
AcDbEntity
  8
0
  6
ByLayer
 62
  256
370
   -1
100
AcDbCircle
 10
544.6154729703965
 20
-651.6978943568778
 40
0.2101612887274754
100
AcDbArc
 50
158.1340772994216
 51
178.0825234313714
  0
ARC
  5
7B
100
AcDbEntity
  8
0
  6
ByLayer
 62
  256
370
   -1
100
AcDbCircle
 10
544.5940132737539
 20
-651.6971762187234
 40
0.1886895793802505
100
AcDbArc
 50
178.0824304788765
 51
199.3839527052111
  0
ARC
  5
7C
100
AcDbEntity
  8
0
  6
ByLayer
 62
  256
370
   -1
100
AcDbCircle
 10
544.7649733324464
 20
-651.637025208931
 40
0.3699228148727699
100
AcDbArc
 50
199.3839942451739
 51
212.2564907790749
  0
ARC
  5
7D
100
AcDbEntity
  8
0
  6
ByLayer
 62
  256
370
   -1
100
AcDbCircle
 10
544.2290581692823
 20
-651.9752477165252
 40
0.2637959924483915
100
AcDbArc
 50
13.00838528321288
 51
32.25655226873912
  0
ARC
  5
7E
100
AcDbEntity
  8
0
  6
ByLayer
 62
  256
370
   -1
100
AcDbCircle
 10
544.3198607156897
 20
-651.9542703305709
 40
0.1706018233413884
100
AcDbArc
 50
346.3295734341918
 51
13.00839558736374
  0
ARC
  5
7F
100
AcDbEntity
  8
0
  6
ByLayer
 62
  256
370
   -1
100
AcDbCircle
 10
544.1785414086708
 20
-651.9198976313863
 40
0.3160412574214639
100
AcDbArc
 50
328.2219962945164
 51
346.3295676183477
  0
ARC
  5
80
100
AcDbEntity
  8
0
  6
ByLayer
 62
  256
370
   -1
100
AcDbCircle
 10
542.9887997826368
 20
-651.1828592524196
 40
1.715580720526358
100
AcDbArc
 50
323.0477056148812
 51
328.2220102611673
  0
ARC
  5
81
100
AcDbEntity
  8
0
  6
ByLayer
 62
  256
370
   -1
100
AcDbCircle
 10
545.662104878818
 20
-653.1938524761359
 40
1.629662750897205
100
AcDbArc
 50
143.0476793502979
 51
159.6832226418782
  0
ARC
  5
82
100
AcDbEntity
  8
0
  6
ByLayer
 62
  256
370
   -1
100
AcDbCircle
 10
550.8353213194987
 20
-655.1092091965509
 40
7.146070976234149
100
AcDbArc
 50
159.6831958469105
 51
165.2345293040914
  0
ARC
  5
83
100
AcDbEntity
  8
0
  6
ByLayer
 62
  256
370
   -1
100
AcDbCircle
 10
552.7466981871
 20
-655.6129890472118
 40
9.122723618434913
100
AcDbArc
 50
165.2345025526055
 51
170.3659716173652
  0
ARC
  5
84
100
AcDbEntity
  8
0
  6
ByLayer
 62
  256
370
   -1
100
AcDbCircle
 10
555.6177168262354
 20
-656.1003289996404
 40
12.03481019946476
100
AcDbArc
 50
170.3660212627736
 51
174.5350898033609
  0
LINE
  5
85
100
AcDbEntity
  8
0
  6
ByLayer
 62
  256
370
   -1
100
AcDbLine
 10
543.6376083201515
 20
-654.9541803532618
 11
543.5821196801515
 21
-655.5341803532618
  0
LINE
  5
86
100
AcDbEntity
  8
0
  6
ByLayer
 62
  256
370
   -1
100
AcDbLine
 10
543.5821196801515
 20
-655.5341803532618
 11
543.1724565601515
 21
-655.5357889132619
  0
ARC
  5
87
100
AcDbEntity
  8
0
  6
ByLayer
 62
  256
370
   -1
100
AcDbCircle
 10
543.1868783510785
 20
-659.2090876302794
 40
3.673327027708929
100
AcDbArc
 50
90.22494862823838
 51
93.24792781130897
  0
ARC
  5
88
100
AcDbEntity
  8
0
  6
ByLayer
 62
  256
370
   -1
100
AcDbCircle
 10
543.5300946018316
 20
-665.2572152527698
 40
9.731185158493304
100
AcDbArc
 50
93.24791676047603
 51
94.70871017217806
  0
ARC
  5
89
100
AcDbEntity
  8
0
  6
ByLayer
 62
  256
370
   -1
100
AcDbCircle
 10
543.5721571902676
 20
-665.768012441016
 40
10.24371128344386
100
AcDbArc
 50
94.70865017646283
 51
96.15615150244794
  0
ARC
  5
8A
100
AcDbEntity
  8
0
  6
ByLayer
 62
  256
370
   -1
100
AcDbCircle
 10
543.1562088140641
 20
-661.9116462692905
 40
6.364977842990337
100
AcDbArc
 50
96.156162176672
 51
98.22356700511175
  0
ARC
  5
8B
100
AcDbEntity
  8
0
  6
ByLayer
 62
  256
370
   -1
100
AcDbCircle
 10
541.0661645510972
 20
-647.4498738291359
 40
8.247042795236959
100
AcDbArc
 50
276.819599806299
 51
278.2235580251401
  0
ARC
  5
8C
100
AcDbEntity
  8
0
  6
ByLayer
 62
  256
370
   -1
100
AcDbCircle
 10
541.4985882334864
 20
-651.0656938470355
 40
4.605457337939344
100
AcDbArc
 50
274.6478180288273
 51
276.8194922555253
  0
ARC
  5
8D
100
AcDbEntity
  8
0
  6
ByLayer
 62
  256
370
   -1
100
AcDbCircle
 10
541.1879367623523
 20
-647.2445058038874
 40
8.439252115650824
100
AcDbArc
 50
273.6497049631758
 51
274.6477911324165
  0
ARC
  5
8E
100
AcDbEntity
  8
0
  6
ByLayer
 62
  256
370
   -1
100
AcDbCircle
 10
541.7229517483013
 20
-655.6322050540375
 40
0.03450704241038263
100
AcDbArc
 50
225.0000364841233
 51
273.6496737399266
  0
ARC
  5
8F
100
AcDbEntity
  8
0
  6
ByLayer
 62
  256
370
   -1
100
AcDbCircle
 10
541.7201061876261
 20
-655.6350505737723
 40
0.03048284086025653
100
AcDbArc
 50
169.552366277236
 51
225.0000957138059
  0
ARC
  5
90
100
AcDbEntity
  8
0
  6
ByLayer
 62
  256
370
   -1
100
AcDbCircle
 10
556.8444359091413
 20
-658.4238823156957
 40
15.40978490596931
100
AcDbArc
 50
168.8535948866671
 51
169.5523720482431
  0
ARC
  5
91
100
AcDbEntity
  8
0
  6
ByLayer
 62
  256
370
   -1
100
AcDbCircle
 10
548.374478540461
 20
-656.7550117658707
 40
6.776980799581786
100
AcDbArc
 50
166.9865293648649
 51
168.8536429193467
  0
ARC
  5
92
100
AcDbEntity
  8
0
  6
ByLayer
 62
  256
370
   -1
100
AcDbCircle
 10
553.9885815739642
 20
-658.0525124081669
 40
12.53906903107552
100
AcDbArc
 50
165.8085719534063
 51
166.9865628062527
  0
ARC
  5
93
100
AcDbEntity
  8
0
  6
ByLayer
 62
  256
370
   -1
100
AcDbCircle
 10
547.1498094681463
 20
-656.3231253852642
 40
5.485021725429188
100
AcDbArc
 50
155.8744414552734
 51
165.8085745360816
  0
ARC
  5
94
100
AcDbEntity
  8
0
  6
ByLayer
 62
  256
370
   -1
100
AcDbCircle
 10
546.760360446149
 20
-656.1487106698866
 40
5.058300465508928
100
AcDbArc
 50
145.3181468462072
 51
155.8744127142218
  0
ARC
  5
95
100
AcDbEntity
  8
0
  6
ByLayer
 62
  256
370
   -1
100
AcDbCircle
 10
546.1623771217411
 20
-655.7349222249318
 40
4.331110714875806
100
AcDbArc
 50
133.9467701068339
 51
145.318204517194
  0
ARC
  5
96
100
AcDbEntity
  8
0
  6
ByLayer
 62
  256
370
   -1
100
AcDbCircle
 10
544.8578358108028
 20
-654.3815128263021
 40
2.451338113672619
100
AcDbArc
 50
116.532931975949
 51
133.9468239453148
  0
LINE
  5
97
100
AcDbEntity
  8
0
  6
ByLayer
 62
  256
370
   -1
100
AcDbLine
 10
543.7627933601515
 20
-652.1883551532618
 11
544.1227933601515
 21
-652.0086072332618
  0
LINE
  5
98
100
AcDbEntity
  8
0
  6
ByLayer
 62
  256
370
   -1
100
AcDbLine
 10
544.1227933601515
 20
-652.0086072332618
 11
543.8081385601515
 21
-652.0577681132619
  0
ARC
  5
99
100
AcDbEntity
  8
0
  6
ByLayer
 62
  256
370
   -1
100
AcDbCircle
 10
543.9687042324241
 20
-653.0854741660074
 40
1.040173574920173
100
AcDbArc
 50
98.87992997140289
 51
107.8796766549702
  0
ARC
  5
9A
100
AcDbEntity
  8
0
  6
ByLayer
 62
  256
370
   -1
100
AcDbCircle
 10
545.1412147507351
 20
-656.7200545579
 40
4.859199044942311
100
AcDbArc
 50
107.8796383938187
 51
110.7474862375318
  0
ARC
  5
9B
100
AcDbEntity
  8
0
  6
ByLayer
 62
  256
370
   -1
100
AcDbCircle
 10
545.3643656213472
 20
-657.3091153060498
 40
5.489110845152588
100
AcDbArc
 50
110.7475376833654
 51
113.5901792967976
  0
ARC
  5
9C
100
AcDbEntity
  8
0
  6
ByLayer
 62
  256
370
   -1
100
AcDbCircle
 10
545.1260054020706
 20
-656.7632759077102
 40
4.893496672291338
100
AcDbArc
 50
113.5901765275484
 51
116.6885435089038
  0
ARC
  5
9D
100
AcDbEntity
  8
0
  6
ByLayer
 62
  256
370
   -1
100
AcDbCircle
 10
544.6770295882834
 20
-655.8701355091057
 40
3.893857210798083
100
AcDbArc
 50
116.6885865049397
 51
133.2532271311744
  0
ARC
  5
9E
100
AcDbEntity
  8
0
  6
ByLayer
 62
  256
370
   -1
100
AcDbCircle
 10
545.2780507399017
 20
-656.50895678267
 40
4.770965553139614
100
AcDbArc
 50
133.2533170362688
 51
147.4776093174362
  0
ARC
  5
9F
100
AcDbEntity
  8
0
  6
ByLayer
 62
  256
370
   -1
100
AcDbCircle
 10
545.6955791692488
 20
-656.7751768709892
 40
5.266145444417403
100
AcDbArc
 50
147.4776487931577
 51
160.9842524229785
  0
ARC
  5
A0
100
AcDbEntity
  8
0
  6
ByLayer
 62
  256
370
   -1
100
AcDbCircle
 10
546.383177783556
 20
-657.0121504728041
 40
5.993433793249576
100
AcDbArc
 50
160.9842252970909
 51
173.2420708916335
  0
ARC
  5
A1
100
AcDbEntity
  8
0
  6
ByLayer
 62
  256
370
   -1
100
AcDbCircle
 10
545.8753311477831
 20
-656.9519779667685
 40
5.482034794517013
100
AcDbArc
 50
173.2420047732585
 51
175.9922993419326
  0
ARC
  5
A2
100
AcDbEntity
  8
0
  6
ByLayer
 62
  256
370
   -1
100
AcDbCircle
 10
540.6723206231488
 20
-656.5874455693521
 40
0.266270000335821
100
AcDbArc
 50
175.9922432648158
 51
200.7802915449166
  0
ARC
  5
A3
100
AcDbEntity
  8
0
  6
ByLayer
 62
  256
370
   -1
100
AcDbCircle
 10
540.5787911883577
 20
-656.622937430358
 40
0.1662328703792594
100
AcDbArc
 50
200.7802363969998
 51
235.5704943001241
  0
ARC
  5
A4
100
AcDbEntity
  8
0
  6
ByLayer
 62
  256
370
   -1
100
AcDbCircle
 10
541.30237452682
 20
-655.5673416417784
 40
1.446020085726531
100
AcDbArc
 50
235.5703938104972
 51
242.6556236455316
  0
ARC
  5
A5
100
AcDbEntity
  8
0
  6
ByLayer
 62
  256
370
   -1
100
AcDbCircle
 10
542.1796079249428
 20
-653.8709575330429
 40
3.355799517795213
100
AcDbArc
 50
242.6556279287875
 51
266.3556371639401
  0
ARC
  5
A6
100
AcDbEntity
  8
0
  6
ByLayer
 62
  256
370
   -1
100
AcDbCircle
 10
544.7227768572758
 20
-613.9419003365009
 40
43.36576473676411
100
AcDbArc
 50
266.3556298856599
 51
270.0000218039537
  0
ARC
  5
A7
100
AcDbEntity
  8
0
  6
ByLayer
 62
  256
370
   -1
100
AcDbCircle
 10
544.7228098630271
 20
-613.9419003365006
 40
43.36576473676441
100
AcDbArc
 50
269.9999781960464
 51
273.6443701143402
  0
ARC
  5
A8
100
AcDbEntity
  8
0
  6
ByLayer
 62
  256
370
   -1
100
AcDbCircle
 10
547.2659787953602
 20
-653.8709575330428
 40
3.355799517795298
100
AcDbArc
 50
273.6443628360601
 51
297.3443720712127
  0
ARC
  5
A9
100
AcDbEntity
  8
0
  6
ByLayer
 62
  256
370
   -1
100
AcDbCircle
 10
548.143212193483
 20
-655.5673416417784
 40
1.446020085726534
100
AcDbArc
 50
297.3443763544686
 51
304.429606189503
  0
ARC
  5
AA
100
AcDbEntity
  8
0
  6
ByLayer
 62
  256
370
   -1
100
AcDbCircle
 10
548.8667955319453
 20
-656.622937430358
 40
0.1662328703792599
100
AcDbArc
 50
304.4295056998753
 51
339.2197636029996
  0
ARC
  5
AB
100
AcDbEntity
  8
0
  6
ByLayer
 62
  256
370
   -1
100
AcDbCircle
 10
548.7732660971543
 20
-656.5874455693521
 40
0.2662700003358242
100
AcDbArc
 50
339.2197084550835
 51
4.007756735184413
  0
ARC
  5
AC
100
AcDbEntity
  8
0
  6
ByLayer
 62
  256
370
   -1
100
AcDbCircle
 10
543.57025557252
 20
-656.9519779667685
 40
5.482034794517014
100
AcDbArc
 50
4.007700658067521
 51
6.757995226741613
  0
ARC
  5
AD
100
AcDbEntity
  8
0
  6
ByLayer
 62
  256
370
   -1
100
AcDbCircle
 10
542.6915642698405
 20
-657.0560988968801
 40
6.366873521903157
100
AcDbArc
 50
6.757965074896115
 51
14.98073377855242
  0
ARC
  5
AE
100
AcDbEntity
  8
0
  6
ByLayer
 62
  256
370
   -1
100
AcDbCircle
 10
543.6890994319429
 20
-656.7891694970822
 40
5.334242075496777
100
AcDbArc
 50
14.98073233323883
 51
24.37037871090046
  0
ARC
  5
AF
100
AcDbEntity
  8
0
  6
ByLayer
 62
  256
370
   -1
100
AcDbCircle
 10
544.035115844759
 20
-656.6324270464596
 40
4.9543795296173
100
AcDbArc
 50
24.37039882686268
 51
34.12861519453808
  0
ARC
  5
B0
100
AcDbEntity
  8
0
  6
ByLayer
 62
  256
370
   -1
100
AcDbCircle
 10
544.3707429948637
 20
-656.4049537181027
 40
4.548929533989219
100
AcDbArc
 50
34.12869733206755
 51
44.53218877509876
  0
ARC
  5
B1
100
AcDbEntity
  8
0
  6
ByLayer
 62
  256
370
   -1
100
AcDbCircle
 10
544.451569762783
 20
-656.325445380083
 40
4.435551660562732
100
AcDbArc
 50
44.5322736208637
 51
52.43710095529253
  0
ARC
  5
B2
100
AcDbEntity
  8
0
  6
ByLayer
 62
  256
370
   -1
100
AcDbCircle
 10
544.0504608896215
 20
-656.8470094770227
 40
5.093516276077365
100
AcDbArc
 50
52.43720614291799
 51
59.56319137154161
  0
ARC
  5
B3
100
AcDbEntity
  8
0
  6
ByLayer
 62
  256
370
   -1
100
AcDbCircle
 10
544.3260489603547
 20
-656.3779741201658
 40
4.549509887594263
100
AcDbArc
 50
59.56320728995422
 51
67.01567710323368
  0
ARC
  5
B4
100
AcDbEntity
  8
0
  6
ByLayer
 62
  256
370
   -1
100
AcDbCircle
 10
545.2907448221808
 20
-654.1035636143981
 40
2.078967183132155
100
AcDbArc
 50
67.01568322133416
 51
80.40009541473937
  0
LINE
  5
B5
100
AcDbEntity
  8
0
  6
ByLayer
 62
  256
370
   -1
100
AcDbLine
 10
545.6374481601515
 20
-652.0537096332619
 11
545.3227933601515
 21
-652.0004902732619
  0
LINE
  5
B6
100
AcDbEntity
  8
0
  6
ByLayer
 62
  256
370
   -1
100
AcDbLine
 10
545.3227933601515
 20
-652.0004902732619
 11
545.6827933601515
 21
-652.1842585132619
  0
ARC
  5
B7
100
AcDbEntity
  8
0
  6
ByLayer
 62
  256
370
   -1
100
AcDbCircle
 10
544.5308961580013
 20
-654.4408107966873
 40
2.533553901568727
100
AcDbArc
 50
45.9742107073218
 51
62.95715349153581
  0
ARC
  5
B8
100
AcDbEntity
  8
0
  6
ByLayer
 62
  256
370
   -1
100
AcDbCircle
 10
543.2692242421876
 20
-655.7461296886762
 40
4.3489528750538
100
AcDbArc
 50
34.64251683344393
 51
45.97417113239516
  0
ARC
  5
B9
100
AcDbEntity
  8
0
  6
ByLayer
 62
  256
370
   -1
100
AcDbCircle
 10
542.6895284641649
 20
-656.1466660779703
 40
5.053563827421215
100
AcDbArc
 50
24.1017637044908
 51
34.6424781118421
  0
ARC
  5
BA
100
AcDbEntity
  8
0
  6
ByLayer
 62
  256
370
   -1
100
AcDbCircle
 10
542.2941773102885
 20
-656.3235253248072
 40
5.486670890452683
100
AcDbArc
 50
14.191378354468
 51
24.10172103867243
  0
ARC
  5
BB
100
AcDbEntity
  8
0
  6
ByLayer
 62
  256
370
   -1
100
AcDbCircle
 10
535.4570051463388
 20
-658.0525124081668
 40
12.53906903107553
100
AcDbArc
 50
13.01343719374719
 51
14.19142804659353
  0
ARC
  5
BC
100
AcDbEntity
  8
0
  6
ByLayer
 62
  256
370
   -1
100
AcDbCircle
 10
541.071108179842
 20
-656.7550117658707
 40
6.776980799581748
100
AcDbArc
 50
11.14635708065321
 51
13.013470635135
  0
ARC
  5
BD
100
AcDbEntity
  8
0
  6
ByLayer
 62
  256
370
   -1
100
AcDbCircle
 10
532.6011508111618
 20
-658.4238823156957
 40
15.40978490596923
100
AcDbArc
 50
10.44762795175699
 51
11.14640511333301
  0
ARC
  5
BE
100
AcDbEntity
  8
0
  6
ByLayer
 62
  256
370
   -1
100
AcDbCircle
 10
547.7254805326769
 20
-655.6350505737723
 40
0.03048284086025823
100
AcDbArc
 50
314.9999042861911
 51
10.44763372276132
  0
ARC
  5
BF
100
AcDbEntity
  8
0
  6
ByLayer
 62
  256
370
   -1
100
AcDbCircle
 10
547.7226349720017
 20
-655.6322050540375
 40
0.03450704241038707
100
AcDbArc
 50
266.3503262600663
 51
314.9999635158693
  0
ARC
  5
C0
100
AcDbEntity
  8
0
  6
ByLayer
 62
  256
370
   -1
100
AcDbCircle
 10
548.2576499579507
 20
-647.2445058038875
 40
8.439252115650753
100
AcDbArc
 50
265.3522088675839
 51
266.3502950368246
  0
ARC
  5
C1
100
AcDbEntity
  8
0
  6
ByLayer
 62
  256
370
   -1
100
AcDbCircle
 10
547.9469984868165
 20
-651.0656938470355
 40
4.605457337939401
100
AcDbArc
 50
263.1805077444748
 51
265.352181971173
  0
ARC
  5
C2
100
AcDbEntity
  8
0
  6
ByLayer
 62
  256
370
   -1
100
AcDbCircle
 10
548.3794221692058
 20
-647.4498738291359
 40
8.247042795236927
100
AcDbArc
 50
261.7764419748602
 51
263.1804001937012
  0
ARC
  5
C3
100
AcDbEntity
  8
0
  6
ByLayer
 62
  256
370
   -1
100
AcDbCircle
 10
546.3058938619877
 20
-661.7973169311886
 40
6.249461721630627
100
AcDbArc
 50
81.77636803461776
 51
83.88868901899691
  0
ARC
  5
C4
100
AcDbEntity
  8
0
  6
ByLayer
 62
  256
370
   -1
100
AcDbCircle
 10
545.8762098200093
 20
-665.8104295705376
 40
10.28551194827796
100
AcDbArc
 50
83.8886629105244
 51
85.3430394544811
  0
ARC
  5
C5
100
AcDbEntity
  8
0
  6
ByLayer
 62
  256
370
   -1
100
AcDbCircle
 10
545.9140764693836
 20
-665.3454663957418
 40
9.81900938990052
100
AcDbArc
 50
85.34298901985288
 51
86.8097409495535
  0
ARC
  5
C6
100
AcDbEntity
  8
0
  6
ByLayer
 62
  256
370
   -1
100
AcDbCircle
 10
546.248185347667
 20
-659.3511159768691
 40
3.81535502886989
100
AcDbArc
 50
86.80966515866307
 51
89.78062866993152
  0
ARC
  5
C7
100
AcDbEntity
  8
0
  6
ByLayer
 62
  256
370
   -1
100
AcDbCircle
 10
546.289737691715
 20
-648.5002087512222
 40
7.035631756529668
100
AcDbArc
 50
267.6542740806077
 51
269.7805740397541
  0
ARC
  5
C8
100
AcDbEntity
  8
0
  6
ByLayer
 62
  256
370
   -1
100
AcDbCircle
 10
546.0116701749973
 20
-655.2883814641889
 40
0.241766117225405
100
AcDbArc
 50
243.2887557532447
 51
267.6542740873382
  0
ARC
  5
C9
100
AcDbEntity
  8
0
  6
ByLayer
 62
  256
370
   -1
100
AcDbCircle
 10
545.9425195759816
 20
-655.4258048720104
 40
0.087925295719802
100
AcDbArc
 50
193.2819281940328
 51
243.2887736934851
  0
ARC
  5
CA
100
AcDbEntity
  8
0
  6
ByLayer
 62
  256
370
   -1
100
AcDbCircle
 10
546.3718995875872
 20
-655.3244469905046
 40
0.529106227435862
100
AcDbArc
 50
180.0000436137232
 51
193.2819004758693
  0
ARC
  5
CB
100
AcDbEntity
  8
0
  6
ByLayer
 62
  256
370
   -1
100
AcDbCircle
 10
541.0618722719652
 20
-655.324443604501
 40
4.780921088187802
100
AcDbArc
 50
359.9999545945222
 51
9.595054544430505
  0
ARC
  5
CC
100
AcDbEntity
  8
0
  6
ByLayer
 62
  256
370
   -1
100
AcDbCircle
 10
532.2984835947112
 20
-656.8058624172411
 40
13.66864198880317
100
AcDbArc
 50
9.594974359855145
 51
13.97756721077581
  0
ARC
  5
CD
100
AcDbEntity
  8
0
  6
ByLayer
 62
  256
370
   -1
100
AcDbCircle
 10
529.7619373259059
 20
-657.4372361729017
 40
16.28258533040753
100
AcDbArc
 50
13.97755525381238
 51
17.49592723875191
  0
ARC
  5
CE
100
AcDbEntity
  8
0
  6
ByLayer
 62
  256
370
   -1
100
AcDbCircle
 10
544.3665150941426
 20
-652.8335734707849
 40
0.9696038420332336
100
AcDbArc
 50
17.49602093440533
 51
44.99995201130437
  0
ARC
  5
CF
100
AcDbEntity
  8
0
  6
ByLayer
 62
  256
370
   -1
100
AcDbCircle
 10
545.6894460142449
 20
-651.5106439187593
 40
0.9013020398822152
100
AcDbArc
 50
217.6040691629327
 51
224.9999901292129
  0
ARC
  5
D0
100
AcDbEntity
  8
0
  6
ByLayer
 62
  256
370
   -1
100
AcDbCircle
 10
545.1073785291844
 20
-651.9589619686589
 40
0.1665969078527897
100
AcDbArc
 50
191.7870619771889
 51
217.6041008658811
  0
ARC
  5
D1
100
AcDbEntity
  8
0
  6
ByLayer
 62
  256
370
   -1
100
AcDbCircle
 10
545.0674495353437
 20
-651.9672943379933
 40
0.1258077802840551
100
AcDbArc
 50
160.7800135333604
 51
191.7869828903426
  0
ARC
  5
D2
100
AcDbEntity
  8
0
  6
ByLayer
 62
  256
370
   -1
100
AcDbCircle
 10
545.3398197320464
 20
-652.0622505913437
 40
0.4142557203047967
100
AcDbArc
 50
148.0148481012943
 51
160.7799652053249
  0
ARC
  5
D3
100
AcDbEntity
  8
0
  6
ByLayer
 62
  256
370
   -1
100
AcDbCircle
 10
544.6073270014433
 20
-651.6048013092822
 40
0.4493445611018859
100
AcDbArc
 50
328.01474808439
 51
339.5242644411384
  0
ARC
  5
D4
100
AcDbEntity
  8
0
  6
ByLayer
 62
  256
370
   -1
100
AcDbCircle
 10
544.8530522565392
 20
-651.6965557004793
 40
0.1870474599057248
100
AcDbArc
 50
339.5242857995628
 51
1.676180152334124
  0
ARC
  5
D5
100
AcDbEntity
  8
0
  6
ByLayer
 62
  256
370
   -1
100
AcDbCircle
 10
544.8347991403707
 20
-651.6970898082343
 40
0.2053083887144105
100
AcDbArc
 50
1.676169819997849
 51
22.58205803297952
  0
ARC
  5
D6
100
AcDbEntity
  8
0
  6
ByLayer
 62
  256
370
   -1
100
AcDbCircle
 10
544.4709545421302
 20
-651.8484102333489
 40
0.5993651901093554
100
AcDbArc
 50
22.58207549909115
 51
31.98522096383593
  0
ARC
  5
D7
100
AcDbEntity
  8
0
  6
ByLayer
 62
  256
370
   -1
100
AcDbCircle
 10
545.3633008491944
 20
-651.291129674318
 40
0.4527011353689505
100
AcDbArc
 50
202.2062616756041
 51
211.9852958398555
  0
ARC
  5
D8
100
AcDbEntity
  8
0
  6
ByLayer
 62
  256
370
   -1
100
AcDbCircle
 10
545.3097962320835
 20
-651.3129707635218
 40
0.3949103296167882
100
AcDbArc
 50
191.3726771702748
 51
202.206337173629
  0
ARC
  5
D9
100
AcDbEntity
  8
0
  6
ByLayer
 62
  256
370
   -1
100
AcDbCircle
 10
545.2192814736991
 20
-651.3311770220971
 40
0.3025827100403481
100
AcDbArc
 50
179.2564872101891
 51
191.3726406907882
  0
ARC
  5
DA
100
AcDbEntity
  8
0
  6
ByLayer
 62
  256
370
   -1
100
AcDbCircle
 10
545.0024358581902
 20
-651.3283629786721
 40
0.08571883613371624
100
AcDbArc
 50
148.2825520217393
 51
179.2564437280889
  0
ARC
  5
DB
100
AcDbEntity
  8
0
  6
ByLayer
 62
  256
370
   -1
100
AcDbCircle
 10
544.8558171043857
 20
-651.2377476400873
 40
0.08664182803901584
100
AcDbArc
 50
328.2825189311834
 51
0.1488224345896069
  0
ARC
  5
DC
100
AcDbEntity
  8
0
  6
ByLayer
 62
  256
370
   -1
100
AcDbCircle
 10
544.5489538089474
 20
-651.2385456333891
 40
0.3935061610598912
100
AcDbArc
 50
0.1489581444858236
 51
10.51631296122823
  0
ARC
  5
DD
100
AcDbEntity
  8
0
  6
ByLayer
 62
  256
370
   -1
100
AcDbCircle
 10
544.4301819264243
 20
-651.2605929365959
 40
0.5143070040054599
100
AcDbArc
 50
10.51623150872218
 51
19.916402603951
  0
ARC
  5
DE
100
AcDbEntity
  8
0
  6
ByLayer
 62
  256
370
   -1
100
AcDbCircle
 10
544.337190692904
 20
-651.2942851425292
 40
0.6132136986840201
100
AcDbArc
 50
19.91637943380892
 51
28.15494138577767
  0
ARC
  5
DF
100
AcDbEntity
  8
0
  6
ByLayer
 62
  256
370
   -1
100
AcDbCircle
 10
545.8202274919945
 20
-650.5005877516611
 40
1.068854580467608
100
AcDbArc
 50
202.0585522601283
 51
208.1549891318036
  0
ARC
  5
E0
100
AcDbEntity
  8
0
  6
ByLayer
 62
  256
370
   -1
100
AcDbCircle
 10
545.0148217391036
 20
-650.8269505951124
 40
0.1998372432553563
100
AcDbArc
 50
180.9519966514321
 51
202.0585582014536
  0
ARC
  5
E1
100
AcDbEntity
  8
0
  6
ByLayer
 62
  256
370
   -1
100
AcDbCircle
 10
544.935753828454
 20
-650.8282645056235
 40
0.1207584164095416
100
AcDbArc
 50
151.8534410923892
 51
180.9519783274328
  0
ARC
  5
E2
100
AcDbEntity
  8
0
  6
ByLayer
 62
  256
370
   -1
100
AcDbCircle
 10
545.0473869873971
 20
-650.8879878259643
 40
0.2473634604170039
100
AcDbArc
 50
134.8321789914781
 51
151.8534130277624
  0
ARC
  5
E3
100
AcDbEntity
  8
0
  6
ByLayer
 62
  256
370
   -1
100
AcDbCircle
 10
545.1051501233314
 20
-650.9460895131657
 40
0.3292926123007023
100
AcDbArc
 50
89.98427822456715
 51
134.8322800203159
  0
ARC
  5
E4
100
AcDbEntity
  8
0
  6
ByLayer
 62
  256
370
   -1
100
AcDbCircle
 10
545.0989612254409
 20
-673.5556099432722
 40
22.9388138894497
100
AcDbArc
 50
87.83234966138841
 51
89.98431589359288
  0
ARC
  5
E5
100
AcDbEntity
  8
0
  6
ByLayer
 62
  256
370
   -1
100
AcDbCircle
 10
545.416260264465
 20
-665.1729489882383
 40
14.55014990958546
100
AcDbArc
 50
84.15156427215763
 51
87.83238700024792
  0
ARC
  5
E6
100
AcDbEntity
  8
0
  6
ByLayer
 62
  256
370
   -1
100
AcDbCircle
 10
545.8751686141452
 20
-660.692873419126
 40
10.0466319537924
100
AcDbArc
 50
79.29322076823813
 51
84.15163333211139
  0
ARC
  5
E7
100
AcDbEntity
  8
0
  6
ByLayer
 62
  256
370
   -1
100
AcDbCircle
 10
549.6920002388159
 20
-640.5059404466924
 40
10.49796506062045
100
AcDbArc
 50
259.2932358225947
 51
261.4387854915703
  0
ARC
  5
E8
100
AcDbEntity
  8
0
  6
ByLayer
 62
  256
370
   -1
100
AcDbCircle
 10
549.2894836836798
 20
-643.1797372740549
 40
7.794040311089796
100
AcDbArc
 50
261.4387418647985
 51
264.1209786087938
  0
ARC
  5
E9
100
AcDbEntity
  8
0
  6
ByLayer
 62
  256
370
   -1
100
AcDbCircle
 10
549.1383178562062
 20
-644.6478299642094
 40
6.318185557306165
100
AcDbArc
 50
264.1209466933267
 51
266.8969060402749
  0
ARC
  5
EA
100
AcDbEntity
  8
0
  6
ByLayer
 62
  256
370
   -1
100
AcDbCircle
 10
548.851117665004
 20
-649.9455264230759
 40
1.01270992169047
100
AcDbArc
 50
266.8969225636174
 51
277.639340971208
  0
ARC
  5
EB
100
AcDbEntity
  8
0
  6
ByLayer
 62
  256
370
   -1
100
AcDbCircle
 10
548.855286224013
 20
-649.976608383296
 40
0.9813496740002713
100
AcDbArc
 50
277.6393631725411
 51
297.7408749882428
  0
ARC
  5
EC
100
AcDbEntity
  8
0
  6
ByLayer
 62
  256
370
   -1
100
AcDbCircle
 10
549.1283651582356
 20
-650.4958462647479
 40
0.3946810436383184
100
AcDbArc
 50
297.7408434200249
 51
337.4064642524928
  0
ARC
  5
ED
100
AcDbEntity
  8
0
  6
ByLayer
 62
  256
370
   -1
100
AcDbCircle
 10
549.1760667095668
 20
-650.5156958825186
 40
0.3430143684506533
100
AcDbArc
 50
337.4064168199835
 51
20.7604841781386
  0
ARC
  5
EE
100
AcDbEntity
  8
0
  6
ByLayer
 62
  256
370
   -1
100
AcDbCircle
 10
548.7979386817293
 20
-650.6590342747974
 40
0.7473987154983297
100
AcDbArc
 50
20.76043897982486
 51
44.99995897145385
  0
ARC
  5
EF
100
AcDbEntity
  8
0
  6
ByLayer
 62
  256
370
   -1
100
AcDbCircle
 10
548.8180268424842
 20
-650.6389463881502
 40
0.718989959938982
100
AcDbArc
 50
44.99997279597817
 51
59.45666119509448
  0
ARC
  5
F0
100
AcDbEntity
  8
0
  6
ByLayer
 62
  256
370
   -1
100
AcDbCircle
 10
548.954209223403
 20
-650.4081540935857
 40
0.4510147295480521
100
AcDbArc
 50
59.45667001518527
 51
79.95793244915774
  0
ARC
  5
F1
100
AcDbEntity
  8
0
  6
ByLayer
 62
  256
370
   -1
100
AcDbCircle
 10
548.7869187937639
 20
-651.3528444810129
 40
1.41040308467121
100
AcDbArc
 50
79.95790204470829
 51
89.49900899589854
  0
ARC
  5
F2
100
AcDbEntity
  8
0
  6
ByLayer
 62
  256
370
   -1
100
AcDbCircle
 10
548.550964508322
 20
-678.3319253042924
 40
28.39051569551427
100
AcDbArc
 50
89.49891870712953
 51
90.57423800607468
  0
ARC
  5
F3
100
AcDbEntity
  8
0
  6
ByLayer
 62
  256
370
   -1
100
AcDbCircle
 10
548.362122701753
 20
-659.4919160770023
 40
9.549560069228551
100
AcDbArc
 50
90.57415141697072
 51
92.80517859467533
  0
ARC
  5
F4
100
AcDbEntity
  8
0
  6
ByLayer
 62
  256
370
   -1
100
AcDbCircle
 10
548.5431882046146
 20
-663.1874924907773
 40
13.24956949438581
100
AcDbArc
 50
92.80512176639895
 51
94.55054664711571
  0
ARC
  5
F5
100
AcDbEntity
  8
0
  6
ByLayer
 62
  256
370
   -1
100
AcDbCircle
 10
548.4592245211788
 20
-662.1325929158567
 40
12.19133369208141
100
AcDbArc
 50
94.5505240722572
 51
96.31749090107802
  0
ARC
  5
F6
100
AcDbEntity
  8
0
  6
ByLayer
 62
  256
370
   -1
100
AcDbCircle
 10
547.5284324505803
 20
-653.7250934088016
 40
3.732467229026138
100
AcDbArc
 50
96.31752867841961
 51
100.585112575885
  0
ENDSEC
  0
SECTION
  2
OBJECTS
  0
DICTIONARY
  5
C
330
0
100
AcDbDictionary
281
    1
  3
ACAD_GROUP
350
D
  0
DICTIONARY
  5
D
330
C
100
AcDbDictionary
281
    1
  0
ENDSEC
  0
EOF
