%TF.GenerationSoftware,KiCad,Pcbnew,6.0.7+dfsg-1~bpo11+1*%
%TF.CreationDate,2022-09-15T22:54:34-04:00*%
%TF.ProjectId,COMPLETE_PCB,434f4d50-4c45-4544-955f-5043422e6b69,rev?*%
%TF.SameCoordinates,Original*%
%TF.FileFunction,Copper,L4,Bot*%
%TF.FilePolarity,Positive*%
%FSLAX46Y46*%
G04 Gerber Fmt 4.6, Leading zero omitted, Abs format (unit mm)*
G04 Created by KiCad (PCBNEW 6.0.7+dfsg-1~bpo11+1) date 2022-09-15 22:54:34*
%MOMM*%
%LPD*%
G01*
G04 APERTURE LIST*
G04 Aperture macros list*
%AMRoundRect*
0 Rectangle with rounded corners*
0 $1 Rounding radius*
0 $2 $3 $4 $5 $6 $7 $8 $9 X,Y pos of 4 corners*
0 Add a 4 corners polygon primitive as box body*
4,1,4,$2,$3,$4,$5,$6,$7,$8,$9,$2,$3,0*
0 Add four circle primitives for the rounded corners*
1,1,$1+$1,$2,$3*
1,1,$1+$1,$4,$5*
1,1,$1+$1,$6,$7*
1,1,$1+$1,$8,$9*
0 Add four rect primitives between the rounded corners*
20,1,$1+$1,$2,$3,$4,$5,0*
20,1,$1+$1,$4,$5,$6,$7,0*
20,1,$1+$1,$6,$7,$8,$9,0*
20,1,$1+$1,$8,$9,$2,$3,0*%
G04 Aperture macros list end*
%TA.AperFunction,SMDPad,CuDef*%
%ADD10RoundRect,0.237500X-0.300000X-0.237500X0.300000X-0.237500X0.300000X0.237500X-0.300000X0.237500X0*%
%TD*%
%TA.AperFunction,SMDPad,CuDef*%
%ADD11R,0.450000X1.750000*%
%TD*%
%TA.AperFunction,SMDPad,CuDef*%
%ADD12RoundRect,0.250000X-0.350000X-0.450000X0.350000X-0.450000X0.350000X0.450000X-0.350000X0.450000X0*%
%TD*%
%TA.AperFunction,SMDPad,CuDef*%
%ADD13RoundRect,0.250000X0.350000X0.450000X-0.350000X0.450000X-0.350000X-0.450000X0.350000X-0.450000X0*%
%TD*%
%TA.AperFunction,SMDPad,CuDef*%
%ADD14R,2.999300X2.057400*%
%TD*%
%TA.AperFunction,SMDPad,CuDef*%
%ADD15RoundRect,0.150000X0.825000X0.150000X-0.825000X0.150000X-0.825000X-0.150000X0.825000X-0.150000X0*%
%TD*%
%TA.AperFunction,SMDPad,CuDef*%
%ADD16RoundRect,0.250000X-0.337500X-0.475000X0.337500X-0.475000X0.337500X0.475000X-0.337500X0.475000X0*%
%TD*%
%TA.AperFunction,SMDPad,CuDef*%
%ADD17RoundRect,0.250000X-0.475000X0.337500X-0.475000X-0.337500X0.475000X-0.337500X0.475000X0.337500X0*%
%TD*%
%TA.AperFunction,SMDPad,CuDef*%
%ADD18RoundRect,0.150000X-0.150000X0.587500X-0.150000X-0.587500X0.150000X-0.587500X0.150000X0.587500X0*%
%TD*%
%TA.AperFunction,ComponentPad*%
%ADD19O,1.700000X1.700000*%
%TD*%
%TA.AperFunction,ComponentPad*%
%ADD20R,1.700000X1.700000*%
%TD*%
%TA.AperFunction,SMDPad,CuDef*%
%ADD21RoundRect,0.250000X0.450000X-0.325000X0.450000X0.325000X-0.450000X0.325000X-0.450000X-0.325000X0*%
%TD*%
%TA.AperFunction,SMDPad,CuDef*%
%ADD22RoundRect,0.250000X0.475000X-0.337500X0.475000X0.337500X-0.475000X0.337500X-0.475000X-0.337500X0*%
%TD*%
%TA.AperFunction,SMDPad,CuDef*%
%ADD23RoundRect,0.237500X0.237500X-0.300000X0.237500X0.300000X-0.237500X0.300000X-0.237500X-0.300000X0*%
%TD*%
%TA.AperFunction,SMDPad,CuDef*%
%ADD24RoundRect,0.250000X0.325000X0.450000X-0.325000X0.450000X-0.325000X-0.450000X0.325000X-0.450000X0*%
%TD*%
%TA.AperFunction,SMDPad,CuDef*%
%ADD25RoundRect,0.250000X-0.450000X0.350000X-0.450000X-0.350000X0.450000X-0.350000X0.450000X0.350000X0*%
%TD*%
%TA.AperFunction,SMDPad,CuDef*%
%ADD26RoundRect,0.250000X0.337500X0.475000X-0.337500X0.475000X-0.337500X-0.475000X0.337500X-0.475000X0*%
%TD*%
%TA.AperFunction,SMDPad,CuDef*%
%ADD27RoundRect,0.250000X0.450000X-0.350000X0.450000X0.350000X-0.450000X0.350000X-0.450000X-0.350000X0*%
%TD*%
%TA.AperFunction,SMDPad,CuDef*%
%ADD28RoundRect,0.250000X-0.325000X-0.450000X0.325000X-0.450000X0.325000X0.450000X-0.325000X0.450000X0*%
%TD*%
%TA.AperFunction,ComponentPad*%
%ADD29C,1.500000*%
%TD*%
%TA.AperFunction,ComponentPad*%
%ADD30C,1.620000*%
%TD*%
%TA.AperFunction,SMDPad,CuDef*%
%ADD31RoundRect,0.250000X0.400000X0.625000X-0.400000X0.625000X-0.400000X-0.625000X0.400000X-0.625000X0*%
%TD*%
%TA.AperFunction,ViaPad*%
%ADD32C,0.800000*%
%TD*%
%TA.AperFunction,Conductor*%
%ADD33C,0.250000*%
%TD*%
%TA.AperFunction,Conductor*%
%ADD34C,0.230000*%
%TD*%
%TA.AperFunction,Conductor*%
%ADD35C,0.400000*%
%TD*%
%TA.AperFunction,Conductor*%
%ADD36C,0.300000*%
%TD*%
%TA.AperFunction,Conductor*%
%ADD37C,1.000000*%
%TD*%
%TA.AperFunction,Conductor*%
%ADD38C,2.000000*%
%TD*%
G04 APERTURE END LIST*
D10*
%TO.P,C9,1*%
%TO.N,/Propeller/5V*%
X63941200Y-84574099D03*
%TO.P,C9,2*%
%TO.N,GND*%
X65666200Y-84574099D03*
%TD*%
D11*
%TO.P,U3,1,TXD*%
%TO.N,Net-(R7-Pad1)*%
X32955400Y-85617699D03*
%TO.P,U3,2,DTR*%
%TO.N,/Propeller/FT232_DTR*%
X33605400Y-85617699D03*
%TO.P,U3,3,RTS*%
%TO.N,/Propeller/FT232_RTS*%
X34255400Y-85617699D03*
%TO.P,U3,4,VCCIO*%
%TO.N,Net-(D2-Pad2)*%
X34905400Y-85617699D03*
%TO.P,U3,5,RXD*%
%TO.N,Net-(R8-Pad1)*%
X35555400Y-85617699D03*
%TO.P,U3,6,RI*%
%TO.N,unconnected-(U3-Pad6)*%
X36205400Y-85617699D03*
%TO.P,U3,7,GND*%
%TO.N,GND*%
X36855400Y-85617699D03*
%TO.P,U3,8*%
%TO.N,N/C*%
X37505400Y-85617699D03*
%TO.P,U3,9,DCR*%
%TO.N,unconnected-(U3-Pad9)*%
X38155400Y-85617699D03*
%TO.P,U3,10,DCD*%
%TO.N,unconnected-(U3-Pad10)*%
X38805400Y-85617699D03*
%TO.P,U3,11,CTS*%
%TO.N,unconnected-(U3-Pad11)*%
X39455400Y-85617699D03*
%TO.P,U3,12,CBUS4*%
%TO.N,unconnected-(U3-Pad12)*%
X40105400Y-85617699D03*
%TO.P,U3,13,CBUS2*%
%TO.N,unconnected-(U3-Pad13)*%
X40755400Y-85617699D03*
%TO.P,U3,14,CBUS3*%
%TO.N,unconnected-(U3-Pad14)*%
X41405400Y-85617699D03*
%TO.P,U3,15,USBD+*%
%TO.N,Net-(J1-Pad3)*%
X41405400Y-92817699D03*
%TO.P,U3,16,USBD-*%
%TO.N,Net-(J1-Pad2)*%
X40755400Y-92817699D03*
%TO.P,U3,17,3V3OUT*%
%TO.N,Net-(D2-Pad2)*%
X40105400Y-92817699D03*
%TO.P,U3,18,GND*%
%TO.N,GND*%
X39455400Y-92817699D03*
%TO.P,U3,19,~{RESET}*%
%TO.N,unconnected-(U3-Pad19)*%
X38805400Y-92817699D03*
%TO.P,U3,20,VCC*%
%TO.N,/Propeller/5V*%
X38155400Y-92817699D03*
%TO.P,U3,21,GND*%
%TO.N,GND*%
X37505400Y-92817699D03*
%TO.P,U3,22,CBUS1*%
%TO.N,Net-(D4-Pad1)*%
X36855400Y-92817699D03*
%TO.P,U3,23,CBUS0*%
%TO.N,Net-(D3-Pad1)*%
X36205400Y-92817699D03*
%TO.P,U3,24*%
%TO.N,N/C*%
X35555400Y-92817699D03*
%TO.P,U3,25,AGND*%
%TO.N,GND*%
X34905400Y-92817699D03*
%TO.P,U3,26,TEST*%
X34255400Y-92817699D03*
%TO.P,U3,27,OSCI*%
%TO.N,unconnected-(U3-Pad27)*%
X33605400Y-92817699D03*
%TO.P,U3,28,OSCO*%
%TO.N,unconnected-(U3-Pad28)*%
X32955400Y-92817699D03*
%TD*%
D12*
%TO.P,R8,1*%
%TO.N,Net-(R8-Pad1)*%
X43791200Y-86614099D03*
%TO.P,R8,2*%
%TO.N,/Propeller/FT232_RX*%
X45791200Y-86614099D03*
%TD*%
D13*
%TO.P,R1,1*%
%TO.N,Net-(C2-Pad2)*%
X52601200Y-90694099D03*
%TO.P,R1,2*%
%TO.N,GND*%
X50601200Y-90694099D03*
%TD*%
D14*
%TO.P,Y1,1,1*%
%TO.N,Net-(U1-Pad28)*%
X61004550Y-86842799D03*
%TO.P,Y1,2,2*%
%TO.N,Net-(U1-Pad29)*%
X52980250Y-86842799D03*
%TD*%
D15*
%TO.P,U2,1,A0*%
%TO.N,GND*%
X59975400Y-90157499D03*
%TO.P,U2,2,A1*%
X59975400Y-91427499D03*
%TO.P,U2,3,A2*%
X59975400Y-92697499D03*
%TO.P,U2,4,GND*%
X59975400Y-93967499D03*
%TO.P,U2,5,SDA*%
%TO.N,/Propeller/P29_SDA*%
X55025400Y-93967499D03*
%TO.P,U2,6,SCL*%
%TO.N,/Propeller/P28_SCL*%
X55025400Y-92697499D03*
%TO.P,U2,7,WP*%
%TO.N,GND*%
X55025400Y-91427499D03*
%TO.P,U2,8,VCC*%
%TO.N,/Propeller/3V3*%
X55025400Y-90157499D03*
%TD*%
D16*
%TO.P,C7,1*%
%TO.N,/Propeller/3V3*%
X46803700Y-95354099D03*
%TO.P,C7,2*%
%TO.N,GND*%
X48878700Y-95354099D03*
%TD*%
D17*
%TO.P,C3,1*%
%TO.N,/Propeller/FT232_DTR*%
X48651200Y-87556599D03*
%TO.P,C3,2*%
%TO.N,Net-(C3-Pad2)*%
X48651200Y-89631599D03*
%TD*%
D12*
%TO.P,R3,1*%
%TO.N,/Propeller/3V3*%
X50633000Y-94653299D03*
%TO.P,R3,2*%
%TO.N,/Propeller/P29_SDA*%
X52633000Y-94653299D03*
%TD*%
D18*
%TO.P,Q1,1,B*%
%TO.N,Net-(C2-Pad2)*%
X63521200Y-86386599D03*
%TO.P,Q1,2,E*%
%TO.N,GND*%
X65421200Y-86386599D03*
%TO.P,Q1,3,C*%
%TO.N,/Propeller/Reset*%
X64471200Y-88261599D03*
%TD*%
D19*
%TO.P,J7,20,Pin_20*%
%TO.N,unconnected-(J7-Pad20)*%
X78991800Y-103373499D03*
%TO.P,J7,19,Pin_19*%
%TO.N,unconnected-(J7-Pad19)*%
X76451800Y-103373499D03*
%TO.P,J7,18,Pin_18*%
%TO.N,unconnected-(J7-Pad18)*%
X73911800Y-103373499D03*
%TO.P,J7,17,Pin_17*%
%TO.N,unconnected-(J7-Pad17)*%
X71371800Y-103373499D03*
%TO.P,J7,16,Pin_16*%
%TO.N,unconnected-(J7-Pad16)*%
X68831800Y-103373499D03*
%TO.P,J7,15,Pin_15*%
%TO.N,unconnected-(J7-Pad15)*%
X66291800Y-103373499D03*
%TO.P,J7,14,Pin_14*%
%TO.N,unconnected-(J7-Pad14)*%
X63751800Y-103373499D03*
%TO.P,J7,13,Pin_13*%
%TO.N,unconnected-(J7-Pad13)*%
X61211800Y-103373499D03*
%TO.P,J7,12,Pin_12*%
%TO.N,GND*%
X58671800Y-103373499D03*
%TO.P,J7,11,Pin_11*%
%TO.N,/ESP-01/5V*%
X56131800Y-103373499D03*
%TO.P,J7,10,Pin_10*%
%TO.N,GND*%
X53591800Y-103373499D03*
%TO.P,J7,9,Pin_9*%
%TO.N,/ESP-01/3V3*%
X51051800Y-103373499D03*
%TO.P,J7,8,Pin_8*%
%TO.N,unconnected-(J7-Pad8)*%
X48511800Y-103373499D03*
%TO.P,J7,7,Pin_7*%
%TO.N,unconnected-(J7-Pad7)*%
X45971800Y-103373499D03*
%TO.P,J7,6,Pin_6*%
%TO.N,unconnected-(J7-Pad6)*%
X43431800Y-103373499D03*
%TO.P,J7,5,Pin_5*%
%TO.N,unconnected-(J7-Pad5)*%
X40891800Y-103373499D03*
%TO.P,J7,4,Pin_4*%
%TO.N,unconnected-(J7-Pad4)*%
X38351800Y-103373499D03*
%TO.P,J7,3,Pin_3*%
%TO.N,unconnected-(J7-Pad3)*%
X35811800Y-103373499D03*
%TO.P,J7,2,Pin_2*%
%TO.N,/ESP-01/FT232_TX*%
X33271800Y-103373499D03*
D20*
%TO.P,J7,1,Pin_1*%
%TO.N,/ESP-01/FT232_RX*%
X30731800Y-103373499D03*
%TD*%
D18*
%TO.P,Q2,1,B*%
%TO.N,Net-(C3-Pad2)*%
X62333600Y-92273599D03*
%TO.P,Q2,2,E*%
%TO.N,GND*%
X64233600Y-92273599D03*
%TO.P,Q2,3,C*%
%TO.N,/Propeller/Reset*%
X63283600Y-94148599D03*
%TD*%
D21*
%TO.P,D2,1,K*%
%TO.N,/Propeller/3V3*%
X30641200Y-91059099D03*
%TO.P,D2,2,A*%
%TO.N,Net-(D2-Pad2)*%
X30641200Y-89009099D03*
%TD*%
D19*
%TO.P,J4,20,Pin_20*%
%TO.N,/ESP-01/P15_ESP-RX*%
X78991800Y-118613499D03*
%TO.P,J4,19,Pin_19*%
%TO.N,/ESP-01/P14_ESP-TX*%
X76451800Y-118613499D03*
%TO.P,J4,18,Pin_18*%
%TO.N,unconnected-(J4-Pad18)*%
X73911800Y-118613499D03*
%TO.P,J4,17,Pin_17*%
%TO.N,unconnected-(J4-Pad17)*%
X71371800Y-118613499D03*
%TO.P,J4,16,Pin_16*%
%TO.N,unconnected-(J4-Pad16)*%
X68831800Y-118613499D03*
%TO.P,J4,15,Pin_15*%
%TO.N,unconnected-(J4-Pad15)*%
X66291800Y-118613499D03*
%TO.P,J4,14,Pin_14*%
%TO.N,unconnected-(J4-Pad14)*%
X63751800Y-118613499D03*
%TO.P,J4,13,Pin_13*%
%TO.N,unconnected-(J4-Pad13)*%
X61211800Y-118613499D03*
%TO.P,J4,12,Pin_12*%
%TO.N,unconnected-(J4-Pad12)*%
X58671800Y-118613499D03*
%TO.P,J4,11,Pin_11*%
%TO.N,/ESP-01/Reset*%
X56131800Y-118613499D03*
%TO.P,J4,10,Pin_10*%
%TO.N,/ESP-01/3V3*%
X53591800Y-118613499D03*
%TO.P,J4,9,Pin_9*%
%TO.N,GND*%
X51051800Y-118613499D03*
%TO.P,J4,8,Pin_8*%
%TO.N,unconnected-(J4-Pad8)*%
X48511800Y-118613499D03*
%TO.P,J4,7,Pin_7*%
%TO.N,unconnected-(J4-Pad7)*%
X45971800Y-118613499D03*
%TO.P,J4,6,Pin_6*%
%TO.N,unconnected-(J4-Pad6)*%
X43431800Y-118613499D03*
%TO.P,J4,5,Pin_5*%
%TO.N,unconnected-(J4-Pad5)*%
X40891800Y-118613499D03*
%TO.P,J4,4,Pin_4*%
%TO.N,unconnected-(J4-Pad4)*%
X38351800Y-118613499D03*
%TO.P,J4,3,Pin_3*%
%TO.N,unconnected-(J4-Pad3)*%
X35811800Y-118613499D03*
%TO.P,J4,2,Pin_2*%
%TO.N,unconnected-(J4-Pad2)*%
X33271800Y-118613499D03*
D20*
%TO.P,J4,1,Pin_1*%
%TO.N,unconnected-(J4-Pad1)*%
X30731800Y-118613499D03*
%TD*%
D22*
%TO.P,C5,1*%
%TO.N,/Propeller/3V3*%
X48711200Y-93461599D03*
%TO.P,C5,2*%
%TO.N,GND*%
X48711200Y-91386599D03*
%TD*%
D12*
%TO.P,R7,1*%
%TO.N,Net-(R7-Pad1)*%
X34821200Y-95664099D03*
%TO.P,R7,2*%
%TO.N,/Propeller/FT232_TX*%
X36821200Y-95664099D03*
%TD*%
D23*
%TO.P,C10,1*%
%TO.N,/Propeller/5V*%
X28691200Y-90976599D03*
%TO.P,C10,2*%
%TO.N,GND*%
X28691200Y-89251599D03*
%TD*%
D16*
%TO.P,C2,1*%
%TO.N,/Propeller/FT232_RTS*%
X45873700Y-84644099D03*
%TO.P,C2,2*%
%TO.N,Net-(C2-Pad2)*%
X47948700Y-84644099D03*
%TD*%
D12*
%TO.P,R4,1*%
%TO.N,/Propeller/3V3*%
X50627400Y-92668899D03*
%TO.P,R4,2*%
%TO.N,/Propeller/P28_SCL*%
X52627400Y-92668899D03*
%TD*%
%TO.P,R2,1*%
%TO.N,Net-(C3-Pad2)*%
X62131200Y-90284099D03*
%TO.P,R2,2*%
%TO.N,GND*%
X64131200Y-90284099D03*
%TD*%
D24*
%TO.P,D1,1,K*%
%TO.N,/Propeller/5V*%
X31804600Y-95440699D03*
%TO.P,D1,2,A*%
%TO.N,Net-(D1-Pad2)*%
X29754600Y-95440699D03*
%TD*%
D19*
%TO.P,J3,20,Pin_20*%
%TO.N,/Propeller/P15_ESP-RX*%
X78661200Y-98044099D03*
%TO.P,J3,19,Pin_19*%
%TO.N,/Propeller/P14_ESP-TX*%
X76121200Y-98044099D03*
%TO.P,J3,18,Pin_18*%
%TO.N,/Propeller/P13*%
X73581200Y-98044099D03*
%TO.P,J3,17,Pin_17*%
%TO.N,/Propeller/P12*%
X71041200Y-98044099D03*
%TO.P,J3,16,Pin_16*%
%TO.N,/Propeller/P11*%
X68501200Y-98044099D03*
%TO.P,J3,15,Pin_15*%
%TO.N,/Propeller/P10*%
X65961200Y-98044099D03*
%TO.P,J3,14,Pin_14*%
%TO.N,/Propeller/P9*%
X63421200Y-98044099D03*
%TO.P,J3,13,Pin_13*%
%TO.N,/Propeller/P8*%
X60881200Y-98044099D03*
%TO.P,J3,12,Pin_12*%
%TO.N,/Propeller/7-12V*%
X58341200Y-98044099D03*
%TO.P,J3,11,Pin_11*%
%TO.N,/Propeller/Reset*%
X55801200Y-98044099D03*
%TO.P,J3,10,Pin_10*%
%TO.N,/Propeller/3V3*%
X53261200Y-98044099D03*
%TO.P,J3,9,Pin_9*%
%TO.N,GND*%
X50721200Y-98044099D03*
%TO.P,J3,8,Pin_8*%
%TO.N,/Propeller/P7*%
X48181200Y-98044099D03*
%TO.P,J3,7,Pin_7*%
%TO.N,/Propeller/P6*%
X45641200Y-98044099D03*
%TO.P,J3,6,Pin_6*%
%TO.N,/Propeller/P5*%
X43101200Y-98044099D03*
%TO.P,J3,5,Pin_5*%
%TO.N,/Propeller/P4*%
X40561200Y-98044099D03*
%TO.P,J3,4,Pin_4*%
%TO.N,/Propeller/P3*%
X38021200Y-98044099D03*
%TO.P,J3,3,Pin_3*%
%TO.N,/Propeller/P2*%
X35481200Y-98044099D03*
%TO.P,J3,2,Pin_2*%
%TO.N,/Propeller/P1*%
X32941200Y-98044099D03*
D20*
%TO.P,J3,1,Pin_1*%
%TO.N,/Propeller/P0*%
X30401200Y-98044099D03*
%TD*%
D19*
%TO.P,JP4,2,B*%
%TO.N,/ESP-01/ESP_TX*%
X33241200Y-111133299D03*
D20*
%TO.P,JP4,1,A*%
%TO.N,/ESP-01/FT232_RX*%
X30701200Y-111133299D03*
%TD*%
D19*
%TO.P,JP3,2,B*%
%TO.N,/ESP-01/ESP_RX*%
X33241200Y-114818099D03*
D20*
%TO.P,JP3,1,A*%
%TO.N,/ESP-01/FT232_TX*%
X30701200Y-114818099D03*
%TD*%
%TO.P,JP2,1,A*%
%TO.N,/Propeller/FT232_RX*%
X44211200Y-88430299D03*
D19*
%TO.P,JP2,2,B*%
%TO.N,/Propeller/P30_TX*%
X46751200Y-88430299D03*
%TD*%
D20*
%TO.P,JP1,1,A*%
%TO.N,/Propeller/FT232_TX*%
X44216200Y-92087899D03*
D19*
%TO.P,JP1,2,B*%
%TO.N,/Propeller/P31_RX*%
X46756200Y-92087899D03*
%TD*%
D20*
%TO.P,J5,1,Pin_1*%
%TO.N,GND*%
X82412000Y-95333699D03*
D19*
%TO.P,J5,2,Pin_2*%
%TO.N,/Propeller/Reset*%
X82412000Y-92793699D03*
%TO.P,J5,3,Pin_3*%
%TO.N,/Propeller/P31_RX*%
X82412000Y-90253699D03*
%TO.P,J5,4,Pin_4*%
%TO.N,/Propeller/P30_TX*%
X82412000Y-87713699D03*
%TO.P,J5,5,Pin_5*%
%TO.N,/Propeller/3V3*%
X82412000Y-85173699D03*
%TD*%
%TO.P,J2,8,Pin_8*%
%TO.N,/ESP-01/3V3*%
X56761200Y-114775499D03*
%TO.P,J2,7,Pin_7*%
%TO.N,/ESP-01/ESP_RX*%
X59301200Y-114775499D03*
%TO.P,J2,6,Pin_6*%
%TO.N,Net-(J2-Pad6)*%
X56761200Y-112235499D03*
%TO.P,J2,5,Pin_5*%
%TO.N,/ESP-01/P15_ESP-RX*%
X59301200Y-112235499D03*
%TO.P,J2,4,Pin_4*%
%TO.N,/ESP-01/3V3*%
X56761200Y-109695499D03*
%TO.P,J2,3,Pin_3*%
%TO.N,/ESP-01/P14_ESP-TX*%
X59301200Y-109695499D03*
%TO.P,J2,2,Pin_2*%
%TO.N,/ESP-01/ESP_TX*%
X56761200Y-107155499D03*
D20*
%TO.P,J2,1,Pin_1*%
%TO.N,GND*%
X59301200Y-107155499D03*
%TD*%
D19*
%TO.P,J8,5,Pin_5*%
%TO.N,/ESP-01/3V3*%
X82775800Y-116192499D03*
%TO.P,J8,4,Pin_4*%
%TO.N,/ESP-01/ESP_TX*%
X82775800Y-113652499D03*
%TO.P,J8,3,Pin_3*%
%TO.N,/ESP-01/ESP_RX*%
X82775800Y-111112499D03*
%TO.P,J8,2,Pin_2*%
%TO.N,unconnected-(J8-Pad2)*%
X82775800Y-108572499D03*
D20*
%TO.P,J8,1,Pin_1*%
%TO.N,GND*%
X82775800Y-106032499D03*
%TD*%
%TO.P,J6,1,Pin_1*%
%TO.N,/Propeller/FT232_RX*%
X30401200Y-82804099D03*
D19*
%TO.P,J6,2,Pin_2*%
%TO.N,/Propeller/FT232_TX*%
X32941200Y-82804099D03*
%TO.P,J6,3,Pin_3*%
%TO.N,/Propeller/P29_SDA*%
X35481200Y-82804099D03*
%TO.P,J6,4,Pin_4*%
%TO.N,/Propeller/P28_SCL*%
X38021200Y-82804099D03*
%TO.P,J6,5,Pin_5*%
%TO.N,/Propeller/P27*%
X40561200Y-82804099D03*
%TO.P,J6,6,Pin_6*%
%TO.N,/Propeller/P26*%
X43101200Y-82804099D03*
%TO.P,J6,7,Pin_7*%
%TO.N,/Propeller/P25*%
X45641200Y-82804099D03*
%TO.P,J6,8,Pin_8*%
%TO.N,/Propeller/P24*%
X48181200Y-82804099D03*
%TO.P,J6,9,Pin_9*%
%TO.N,/Propeller/3V3*%
X50721200Y-82804099D03*
%TO.P,J6,10,Pin_10*%
%TO.N,GND*%
X53261200Y-82804099D03*
%TO.P,J6,11,Pin_11*%
%TO.N,/Propeller/5V*%
X55801200Y-82804099D03*
%TO.P,J6,12,Pin_12*%
%TO.N,GND*%
X58341200Y-82804099D03*
%TO.P,J6,13,Pin_13*%
%TO.N,/Propeller/P23*%
X60881200Y-82804099D03*
%TO.P,J6,14,Pin_14*%
%TO.N,/Propeller/P22*%
X63421200Y-82804099D03*
%TO.P,J6,15,Pin_15*%
%TO.N,/Propeller/P21*%
X65961200Y-82804099D03*
%TO.P,J6,16,Pin_16*%
%TO.N,/Propeller/P20*%
X68501200Y-82804099D03*
%TO.P,J6,17,Pin_17*%
%TO.N,/Propeller/P19*%
X71041200Y-82804099D03*
%TO.P,J6,18,Pin_18*%
%TO.N,/Propeller/P18*%
X73581200Y-82804099D03*
%TO.P,J6,19,Pin_19*%
%TO.N,/Propeller/P17*%
X76121200Y-82804099D03*
%TO.P,J6,20,Pin_20*%
%TO.N,/Propeller/P16*%
X78661200Y-82804099D03*
%TD*%
D15*
%TO.P,U3,1,OUT1*%
%TO.N,Net-(C10-Pad1)*%
X67435000Y-34105000D03*
%TO.P,U3,2,VM*%
%TO.N,/Carte Mere/6V*%
X67435000Y-35375000D03*
%TO.P,U3,3,VDD*%
X67435000Y-36645000D03*
%TO.P,U3,4,FWD*%
%TO.N,/Carte Mere/P2*%
X67435000Y-37915000D03*
%TO.P,U3,5,REV*%
%TO.N,/Carte Mere/P3*%
X62485000Y-37915000D03*
%TO.P,U3,6,VREF*%
%TO.N,/Carte Mere/6V*%
X62485000Y-36645000D03*
%TO.P,U3,7,OUT2*%
%TO.N,Net-(C11-Pad1)*%
X62485000Y-35375000D03*
%TO.P,U3,8,GND*%
%TO.N,GND*%
X62485000Y-34105000D03*
%TD*%
D25*
%TO.P,R2,1*%
%TO.N,Net-(C11-Pad1)*%
X75210000Y-34510000D03*
%TO.P,R2,2*%
%TO.N,Net-(D3-Pad1)*%
X75210000Y-36510000D03*
%TD*%
D16*
%TO.P,C2,1*%
%TO.N,/Carte Mere/6V*%
X48922500Y-37260000D03*
%TO.P,C2,2*%
%TO.N,GND*%
X50997500Y-37260000D03*
%TD*%
D24*
%TO.P,D4,1,K*%
%TO.N,Net-(C10-Pad1)*%
X80235000Y-33760000D03*
%TO.P,D4,2,A*%
%TO.N,Net-(D3-Pad1)*%
X78185000Y-33760000D03*
%TD*%
D26*
%TO.P,C4,1*%
%TO.N,Net-(C4-Pad1)*%
X41497500Y-30510000D03*
%TO.P,C4,2*%
%TO.N,GND*%
X39422500Y-30510000D03*
%TD*%
D16*
%TO.P,C6,1*%
%TO.N,/Carte Mere/6V*%
X70422500Y-34760000D03*
%TO.P,C6,2*%
%TO.N,GND*%
X72497500Y-34760000D03*
%TD*%
%TO.P,C10,1*%
%TO.N,Net-(C10-Pad1)*%
X70422500Y-31760000D03*
%TO.P,C10,2*%
%TO.N,GND*%
X72497500Y-31760000D03*
%TD*%
D27*
%TO.P,R1,1*%
%TO.N,Net-(C4-Pad1)*%
X35710000Y-35010000D03*
%TO.P,R1,2*%
%TO.N,Net-(D1-Pad1)*%
X35710000Y-33010000D03*
%TD*%
D28*
%TO.P,D3,1,K*%
%TO.N,Net-(D3-Pad1)*%
X78185000Y-37010000D03*
%TO.P,D3,2,A*%
%TO.N,Net-(C10-Pad1)*%
X80235000Y-37010000D03*
%TD*%
D26*
%TO.P,C13,2*%
%TO.N,3.3V*%
X81672500Y-46260000D03*
%TO.P,C13,1*%
%TO.N,GND*%
X83747500Y-46260000D03*
%TD*%
D16*
%TO.P,C3,1*%
%TO.N,Net-(C3-Pad1)*%
X48922500Y-31260000D03*
%TO.P,C3,2*%
%TO.N,GND*%
X50997500Y-31260000D03*
%TD*%
%TO.P,C1,1*%
%TO.N,/Carte Mere/6V*%
X48922500Y-34260000D03*
%TO.P,C1,2*%
%TO.N,GND*%
X50997500Y-34260000D03*
%TD*%
D26*
%TO.P,C11,1*%
%TO.N,Net-(C11-Pad1)*%
X64497500Y-31010000D03*
%TO.P,C11,2*%
%TO.N,GND*%
X62422500Y-31010000D03*
%TD*%
D24*
%TO.P,D1,1,K*%
%TO.N,Net-(D1-Pad1)*%
X32985000Y-36260000D03*
%TO.P,D1,2,A*%
%TO.N,Net-(C3-Pad1)*%
X30935000Y-36260000D03*
%TD*%
D15*
%TO.P,U1,1,OUT1*%
%TO.N,Net-(C3-Pad1)*%
X44435000Y-33605000D03*
%TO.P,U1,2,VM*%
%TO.N,/Carte Mere/6V*%
X44435000Y-34875000D03*
%TO.P,U1,3,VDD*%
X44435000Y-36145000D03*
%TO.P,U1,4,FWD*%
%TO.N,/Carte Mere/P0*%
X44435000Y-37415000D03*
%TO.P,U1,5,REV*%
%TO.N,/Carte Mere/P1*%
X39485000Y-37415000D03*
%TO.P,U1,6,VREF*%
%TO.N,/Carte Mere/6V*%
X39485000Y-36145000D03*
%TO.P,U1,7,OUT2*%
%TO.N,Net-(C4-Pad1)*%
X39485000Y-34875000D03*
%TO.P,U1,8,GND*%
%TO.N,GND*%
X39485000Y-33605000D03*
%TD*%
D16*
%TO.P,C7,1*%
%TO.N,/Carte Mere/6V*%
X70422500Y-37760000D03*
%TO.P,C7,2*%
%TO.N,GND*%
X72497500Y-37760000D03*
%TD*%
D28*
%TO.P,D2,1,K*%
%TO.N,Net-(C3-Pad1)*%
X30935000Y-33010000D03*
%TO.P,D2,2,A*%
%TO.N,Net-(D1-Pad1)*%
X32985000Y-33010000D03*
%TD*%
D20*
%TO.P,J3,1,Pin_1*%
%TO.N,Net-(C4-Pad1)*%
X26710000Y-32985000D03*
D19*
%TO.P,J3,2,Pin_2*%
%TO.N,Net-(C3-Pad1)*%
X26710000Y-35525000D03*
%TD*%
D29*
%TO.P,U7,A*%
%TO.N,Net-(R5-Pad2)*%
X38430000Y-69600000D03*
%TO.P,U7,CATH*%
%TO.N,GND*%
X40970000Y-69600000D03*
%TO.P,U7,COLL*%
%TO.N,/Capteur/A2*%
X38430000Y-75100000D03*
%TO.P,U7,E*%
%TO.N,GND*%
X40970000Y-75100000D03*
%TD*%
D30*
%TO.P,RV4,1,1*%
%TO.N,3.3V*%
X55460000Y-71660000D03*
%TO.P,RV4,2,2*%
X57960000Y-74160000D03*
%TO.P,RV4,3,3*%
%TO.N,/Capteur/A3*%
X55460000Y-76660000D03*
%TD*%
D20*
%TO.P,J7,1,Pin_1*%
%TO.N,3.3V*%
X29830000Y-57740000D03*
D19*
%TO.P,J7,2,Pin_2*%
%TO.N,GND*%
X29830000Y-60280000D03*
%TO.P,J7,3,Pin_3*%
%TO.N,/Capteur/A0*%
X29830000Y-62820000D03*
%TD*%
D20*
%TO.P,J9,1,Pin_1*%
%TO.N,Net-(J9-Pad1)*%
X71290000Y-48500000D03*
D19*
%TO.P,J9,2,Pin_2*%
%TO.N,GND*%
X73830000Y-48500000D03*
%TO.P,J9,3,Pin_3*%
%TO.N,P8*%
X76370000Y-48500000D03*
%TD*%
D20*
%TO.P,J15,1,Pin_1*%
%TO.N,/Carte Mere/P0*%
X28700000Y-45090000D03*
D19*
%TO.P,J15,2,Pin_2*%
%TO.N,/Carte Mere/P1*%
X31240000Y-45090000D03*
%TO.P,J15,3,Pin_3*%
%TO.N,/Carte Mere/P2*%
X33780000Y-45090000D03*
%TO.P,J15,4,Pin_4*%
%TO.N,/Carte Mere/P3*%
X36320000Y-45090000D03*
%TO.P,J15,5,Pin_5*%
%TO.N,/Carte Mere/P4*%
X38860000Y-45090000D03*
%TO.P,J15,6,Pin_6*%
%TO.N,/Carte Mere/P5*%
X41400000Y-45090000D03*
%TO.P,J15,7,Pin_7*%
%TO.N,/Carte Mere/P6*%
X43940000Y-45090000D03*
%TO.P,J15,8,Pin_8*%
%TO.N,/Carte Mere/P7*%
X46480000Y-45090000D03*
%TO.P,J15,9,Pin_9*%
%TO.N,GND*%
X49020000Y-45090000D03*
%TO.P,J15,10,Pin_10*%
%TO.N,3.3V*%
X51560000Y-45090000D03*
%TO.P,J15,11,Pin_11*%
%TO.N,/Carte Mere/RESET*%
X54100000Y-45090000D03*
%TO.P,J15,12,Pin_12*%
%TO.N,unconnected-(J15-Pad12)*%
X56640000Y-45090000D03*
%TO.P,J15,13,Pin_13*%
%TO.N,P8*%
X59180000Y-45090000D03*
%TO.P,J15,14,Pin_14*%
%TO.N,/Carte Mere/P9*%
X61720000Y-45090000D03*
%TO.P,J15,15,Pin_15*%
%TO.N,/Carte Mere/P10*%
X64260000Y-45090000D03*
%TO.P,J15,16,Pin_16*%
%TO.N,/Carte Mere/P11*%
X66800000Y-45090000D03*
%TO.P,J15,17,Pin_17*%
%TO.N,/Carte Mere/P12*%
X69340000Y-45090000D03*
%TO.P,J15,18,Pin_18*%
%TO.N,/Carte Mere/P13*%
X71880000Y-45090000D03*
%TO.P,J15,19,Pin_19*%
%TO.N,/Carte Mere/P14*%
X74420000Y-45090000D03*
%TO.P,J15,20,Pin_20*%
%TO.N,/Carte Mere/P15*%
X76960000Y-45090000D03*
%TD*%
D20*
%TO.P,J17,1,Pin_1*%
%TO.N,3.3V*%
X59185000Y-48470000D03*
D19*
%TO.P,J17,2,Pin_2*%
%TO.N,GND*%
X61725000Y-48470000D03*
%TO.P,J17,3,Pin_3*%
%TO.N,/Carte Mere/P7*%
X64265000Y-48470000D03*
%TD*%
D20*
%TO.P,J10,1,Pin_1*%
%TO.N,3.3V*%
X29830000Y-70900000D03*
D19*
%TO.P,J10,2,Pin_2*%
%TO.N,GND*%
X29830000Y-73440000D03*
%TO.P,J10,3,Pin_3*%
%TO.N,/Capteur/A2*%
X29830000Y-75980000D03*
%TD*%
D29*
%TO.P,U6,A*%
%TO.N,Net-(R4-Pad2)*%
X61450000Y-56460000D03*
%TO.P,U6,CATH*%
%TO.N,GND*%
X63990000Y-56460000D03*
%TO.P,U6,COLL*%
%TO.N,/Capteur/A1*%
X61450000Y-61960000D03*
%TO.P,U6,E*%
%TO.N,GND*%
X63990000Y-61960000D03*
%TD*%
D30*
%TO.P,RV1,1,1*%
%TO.N,3.3V*%
X32470000Y-58490000D03*
%TO.P,RV1,2,2*%
X34970000Y-60990000D03*
%TO.P,RV1,3,3*%
%TO.N,/Capteur/A0*%
X32470000Y-63490000D03*
%TD*%
D20*
%TO.P,J6,1,Pin_1*%
%TO.N,/Carte Mere/P0*%
X28710000Y-42000000D03*
D19*
%TO.P,J6,2,Pin_2*%
%TO.N,/Carte Mere/P1*%
X31250000Y-42000000D03*
%TO.P,J6,3,Pin_3*%
%TO.N,/Carte Mere/P2*%
X33790000Y-42000000D03*
%TO.P,J6,4,Pin_4*%
%TO.N,/Carte Mere/P3*%
X36330000Y-42000000D03*
%TO.P,J6,5,Pin_5*%
%TO.N,/Carte Mere/P4*%
X38870000Y-42000000D03*
%TO.P,J6,6,Pin_6*%
%TO.N,/Carte Mere/P5*%
X41410000Y-42000000D03*
%TO.P,J6,7,Pin_7*%
%TO.N,/Carte Mere/P6*%
X43950000Y-42000000D03*
%TO.P,J6,8,Pin_8*%
%TO.N,/Carte Mere/P7*%
X46490000Y-42000000D03*
%TO.P,J6,9,Pin_9*%
%TO.N,GND*%
X49030000Y-42000000D03*
%TO.P,J6,10,Pin_10*%
%TO.N,3.3V*%
X51570000Y-42000000D03*
%TO.P,J6,11,Pin_11*%
%TO.N,/Carte Mere/RESET*%
X54110000Y-42000000D03*
%TO.P,J6,12,Pin_12*%
%TO.N,unconnected-(J6-Pad12)*%
X56650000Y-42000000D03*
%TO.P,J6,13,Pin_13*%
%TO.N,P8*%
X59190000Y-42000000D03*
%TO.P,J6,14,Pin_14*%
%TO.N,/Carte Mere/P9*%
X61730000Y-42000000D03*
%TO.P,J6,15,Pin_15*%
%TO.N,/Carte Mere/P10*%
X64270000Y-42000000D03*
%TO.P,J6,16,Pin_16*%
%TO.N,/Carte Mere/P11*%
X66810000Y-42000000D03*
%TO.P,J6,17,Pin_17*%
%TO.N,/Carte Mere/P12*%
X69350000Y-42000000D03*
%TO.P,J6,18,Pin_18*%
%TO.N,/Carte Mere/P13*%
X71890000Y-42000000D03*
%TO.P,J6,19,Pin_19*%
%TO.N,/Carte Mere/P14*%
X74430000Y-42000000D03*
%TO.P,J6,20,Pin_20*%
%TO.N,/Carte Mere/P15*%
X76970000Y-42000000D03*
%TD*%
D29*
%TO.P,U5,A*%
%TO.N,Net-(R3-Pad2)*%
X38430000Y-56440000D03*
%TO.P,U5,CATH*%
%TO.N,GND*%
X40970000Y-56440000D03*
%TO.P,U5,COLL*%
%TO.N,/Capteur/A0*%
X38430000Y-61940000D03*
%TO.P,U5,E*%
%TO.N,GND*%
X40970000Y-61940000D03*
%TD*%
%TO.P,U8,A*%
%TO.N,Net-(R6-Pad2)*%
X61420000Y-69610000D03*
%TO.P,U8,CATH*%
%TO.N,GND*%
X63960000Y-69610000D03*
%TO.P,U8,COLL*%
%TO.N,/Capteur/A3*%
X61420000Y-75110000D03*
%TO.P,U8,E*%
%TO.N,GND*%
X63960000Y-75110000D03*
%TD*%
D30*
%TO.P,RV2,1,1*%
%TO.N,3.3V*%
X55490000Y-58510000D03*
%TO.P,RV2,2,2*%
X57990000Y-61010000D03*
%TO.P,RV2,3,3*%
%TO.N,/Capteur/A1*%
X55490000Y-63510000D03*
%TD*%
D20*
%TO.P,JP1,1,A*%
%TO.N,/Carte Mere/5V*%
X53860000Y-30510000D03*
D19*
%TO.P,JP1,2,C*%
%TO.N,Net-(C9-Pad1)*%
X56400000Y-30510000D03*
%TO.P,JP1,3,B*%
%TO.N,/Carte Mere/9V*%
X58940000Y-30510000D03*
%TD*%
D20*
%TO.P,J12,1,Pin_1*%
%TO.N,3.3V*%
X28700000Y-48480000D03*
D19*
%TO.P,J12,2,Pin_2*%
%TO.N,GND*%
X31240000Y-48480000D03*
%TO.P,J12,3,Pin_3*%
%TO.N,/Carte Mere/P4*%
X33780000Y-48480000D03*
%TD*%
D20*
%TO.P,J5,1,Pin_1*%
%TO.N,/Carte Mere/P31_RX*%
X28710000Y-26785400D03*
D19*
%TO.P,J5,2,Pin_2*%
%TO.N,/Carte Mere/P30_TX*%
X31250000Y-26785400D03*
%TO.P,J5,3,Pin_3*%
%TO.N,/Carte Mere/P29_SDA*%
X33790000Y-26785400D03*
%TO.P,J5,4,Pin_4*%
%TO.N,/Carte Mere/P28_SCL*%
X36330000Y-26785400D03*
%TO.P,J5,5,Pin_5*%
%TO.N,/Carte Mere/P27*%
X38870000Y-26785400D03*
%TO.P,J5,6,Pin_6*%
%TO.N,/Carte Mere/P26*%
X41410000Y-26785400D03*
%TO.P,J5,7,Pin_7*%
%TO.N,/Carte Mere/P25*%
X43950000Y-26785400D03*
%TO.P,J5,8,Pin_8*%
%TO.N,/Carte Mere/P24*%
X46490000Y-26785400D03*
%TO.P,J5,9,Pin_9*%
%TO.N,3.3V*%
X49030000Y-26785400D03*
%TO.P,J5,10,Pin_10*%
%TO.N,GND*%
X51570000Y-26785400D03*
%TO.P,J5,11,Pin_11*%
%TO.N,/Carte Mere/5V*%
X54110000Y-26785400D03*
%TO.P,J5,12,Pin_12*%
%TO.N,GND*%
X56650000Y-26785400D03*
%TO.P,J5,13,Pin_13*%
%TO.N,/Carte Mere/P23*%
X59190000Y-26785400D03*
%TO.P,J5,14,Pin_14*%
%TO.N,/Carte Mere/P22*%
X61730000Y-26785400D03*
%TO.P,J5,15,Pin_15*%
%TO.N,/Carte Mere/P21*%
X64270000Y-26785400D03*
%TO.P,J5,16,Pin_16*%
%TO.N,/Carte Mere/P20*%
X66810000Y-26785400D03*
%TO.P,J5,17,Pin_17*%
%TO.N,/Carte Mere/P19*%
X69350000Y-26785400D03*
%TO.P,J5,18,Pin_18*%
%TO.N,/Carte Mere/P18*%
X71890000Y-26785400D03*
%TO.P,J5,19,Pin_19*%
%TO.N,/Carte Mere/P17*%
X74430000Y-26785400D03*
%TO.P,J5,20,Pin_20*%
%TO.N,/Carte Mere/P16*%
X76970000Y-26785400D03*
%TD*%
D20*
%TO.P,J4,1,Pin_1*%
%TO.N,Net-(C11-Pad1)*%
X84210000Y-33010000D03*
D19*
%TO.P,J4,2,Pin_2*%
%TO.N,Net-(C10-Pad1)*%
X84210000Y-35550000D03*
%TD*%
D20*
%TO.P,J14,1,Pin_1*%
%TO.N,/Carte Mere/P31_RX*%
X28710000Y-23680000D03*
D19*
%TO.P,J14,2,Pin_2*%
%TO.N,/Carte Mere/P30_TX*%
X31250000Y-23680000D03*
%TO.P,J14,3,Pin_3*%
%TO.N,/Carte Mere/P29_SDA*%
X33790000Y-23680000D03*
%TO.P,J14,4,Pin_4*%
%TO.N,/Carte Mere/P28_SCL*%
X36330000Y-23680000D03*
%TO.P,J14,5,Pin_5*%
%TO.N,/Carte Mere/P27*%
X38870000Y-23680000D03*
%TO.P,J14,6,Pin_6*%
%TO.N,/Carte Mere/P26*%
X41410000Y-23680000D03*
%TO.P,J14,7,Pin_7*%
%TO.N,/Carte Mere/P25*%
X43950000Y-23680000D03*
%TO.P,J14,8,Pin_8*%
%TO.N,/Carte Mere/P24*%
X46490000Y-23680000D03*
%TO.P,J14,9,Pin_9*%
%TO.N,3.3V*%
X49030000Y-23680000D03*
%TO.P,J14,10,Pin_10*%
%TO.N,GND*%
X51570000Y-23680000D03*
%TO.P,J14,11,Pin_11*%
%TO.N,/Carte Mere/5V*%
X54110000Y-23680000D03*
%TO.P,J14,12,Pin_12*%
%TO.N,GND*%
X56650000Y-23680000D03*
%TO.P,J14,13,Pin_13*%
%TO.N,/Carte Mere/P23*%
X59190000Y-23680000D03*
%TO.P,J14,14,Pin_14*%
%TO.N,/Carte Mere/P22*%
X61730000Y-23680000D03*
%TO.P,J14,15,Pin_15*%
%TO.N,/Carte Mere/P21*%
X64270000Y-23680000D03*
%TO.P,J14,16,Pin_16*%
%TO.N,/Carte Mere/P20*%
X66810000Y-23680000D03*
%TO.P,J14,17,Pin_17*%
%TO.N,/Carte Mere/P19*%
X69350000Y-23680000D03*
%TO.P,J14,18,Pin_18*%
%TO.N,/Carte Mere/P18*%
X71890000Y-23680000D03*
%TO.P,J14,19,Pin_19*%
%TO.N,/Carte Mere/P17*%
X74430000Y-23680000D03*
%TO.P,J14,20,Pin_20*%
%TO.N,/Carte Mere/P16*%
X76970000Y-23680000D03*
%TD*%
D20*
%TO.P,J13,1,Pin_1*%
%TO.N,3.3V*%
X38920000Y-48480000D03*
D19*
%TO.P,J13,2,Pin_2*%
%TO.N,GND*%
X41460000Y-48480000D03*
%TO.P,J13,3,Pin_3*%
%TO.N,/Carte Mere/P5*%
X44000000Y-48480000D03*
%TD*%
D30*
%TO.P,RV3,1,1*%
%TO.N,3.3V*%
X32470000Y-71650000D03*
%TO.P,RV3,2,2*%
X34970000Y-74150000D03*
%TO.P,RV3,3,3*%
%TO.N,/Capteur/A2*%
X32470000Y-76650000D03*
%TD*%
D20*
%TO.P,J8,1,Pin_1*%
%TO.N,3.3V*%
X52850000Y-57760000D03*
D19*
%TO.P,J8,2,Pin_2*%
%TO.N,GND*%
X52850000Y-60300000D03*
%TO.P,J8,3,Pin_3*%
%TO.N,/Capteur/A1*%
X52850000Y-62840000D03*
%TD*%
D20*
%TO.P,J11,1,Pin_1*%
%TO.N,3.3V*%
X52820000Y-70910000D03*
D19*
%TO.P,J11,2,Pin_2*%
%TO.N,GND*%
X52820000Y-73450000D03*
%TO.P,J11,3,Pin_3*%
%TO.N,/Capteur/A3*%
X52820000Y-75990000D03*
%TD*%
D20*
%TO.P,J16,1,Pin_1*%
%TO.N,3.3V*%
X48930000Y-48470000D03*
D19*
%TO.P,J16,2,Pin_2*%
%TO.N,GND*%
X51470000Y-48470000D03*
%TO.P,J16,3,Pin_3*%
%TO.N,/Carte Mere/P6*%
X54010000Y-48470000D03*
%TD*%
D20*
%TO.P,J2,1,Pin_1*%
%TO.N,/Carte Mere/9V*%
X82185000Y-26760000D03*
D19*
%TO.P,J2,2,Pin_2*%
%TO.N,GND*%
X84725000Y-26760000D03*
%TD*%
D20*
%TO.P,J1,1,Pin_1*%
%TO.N,/Carte Mere/6V*%
X82185000Y-42010000D03*
D19*
%TO.P,J1,2,Pin_2*%
%TO.N,GND*%
X84725000Y-42010000D03*
%TD*%
D20*
%TO.P,J3,1,Pin_1*%
%TO.N,GND*%
X97135000Y-31143173D03*
D19*
%TO.P,J3,2,Pin_2*%
%TO.N,Net-(Cbyp2-Pad1)*%
X97135000Y-33683173D03*
%TD*%
D20*
%TO.P,J6,1,Pin_1*%
%TO.N,Net-(C1-Pad1)*%
X119235000Y-55178173D03*
D19*
%TO.P,J6,2,Pin_2*%
%TO.N,GND*%
X119235000Y-52638173D03*
%TD*%
D20*
%TO.P,J5,1,Pin_1*%
%TO.N,Net-(C2-Pad1)*%
X119255000Y-37368173D03*
D19*
%TO.P,J5,2,Pin_2*%
%TO.N,GND*%
X119255000Y-39908173D03*
%TD*%
D20*
%TO.P,J4,1,Pin_1*%
%TO.N,Net-(C2-Pad1)*%
X119245000Y-33703173D03*
D19*
%TO.P,J4,2,Pin_2*%
%TO.N,GND*%
X119245000Y-31163173D03*
%TD*%
D20*
%TO.P,J1,1,Pin_1*%
%TO.N,GND*%
X97137500Y-52615673D03*
D19*
%TO.P,J1,2,Pin_2*%
%TO.N,Net-(Cbyp1-Pad1)*%
X97137500Y-55155673D03*
%TD*%
D20*
%TO.P,J2,1,Pin_1*%
%TO.N,Net-(C1-Pad1)*%
X119235000Y-58858173D03*
D19*
%TO.P,J2,2,Pin_2*%
%TO.N,GND*%
X119235000Y-61398173D03*
%TD*%
D12*
%TO.P,Ccomp1,1*%
%TO.N,Net-(Ccomp1-Pad1)*%
X110937500Y-56980673D03*
%TO.P,Ccomp1,2*%
%TO.N,Net-(Ccomp1-Pad2)*%
X112937500Y-56980673D03*
%TD*%
D31*
%TO.P,Rsense1,1*%
%TO.N,Net-(Q1-Pad4)*%
X106467500Y-52760673D03*
%TO.P,Rsense1,2*%
%TO.N,GND*%
X103367500Y-52760673D03*
%TD*%
D13*
%TO.P,Rcomp2,1*%
%TO.N,Net-(Ccomp4-Pad2)*%
X112935000Y-33418173D03*
%TO.P,Rcomp2,2*%
%TO.N,GND*%
X110935000Y-33418173D03*
%TD*%
D22*
%TO.P,Cbyp2,1*%
%TO.N,Net-(Cbyp2-Pad1)*%
X101425000Y-33095673D03*
%TO.P,Cbyp2,2*%
%TO.N,GND*%
X101425000Y-31020673D03*
%TD*%
%TO.P,Cin1,1*%
%TO.N,Net-(Cbyp1-Pad1)*%
X99407500Y-54578173D03*
%TO.P,Cin1,2*%
%TO.N,GND*%
X99407500Y-52503173D03*
%TD*%
D12*
%TO.P,R4,1*%
%TO.N,Net-(R3-Pad1)*%
X107175000Y-33418173D03*
%TO.P,R4,2*%
%TO.N,Net-(C2-Pad1)*%
X109175000Y-33418173D03*
%TD*%
D13*
%TO.P,Rcomp1,1*%
%TO.N,Net-(Ccomp1-Pad2)*%
X112937500Y-54890673D03*
%TO.P,Rcomp1,2*%
%TO.N,GND*%
X110937500Y-54890673D03*
%TD*%
D31*
%TO.P,Rsense2,1*%
%TO.N,Net-(Q2-Pad4)*%
X106465000Y-31288173D03*
%TO.P,Rsense2,2*%
%TO.N,GND*%
X103365000Y-31288173D03*
%TD*%
D22*
%TO.P,Cbyp1,1*%
%TO.N,Net-(Cbyp1-Pad1)*%
X101427500Y-54568173D03*
%TO.P,Cbyp1,2*%
%TO.N,GND*%
X101427500Y-52493173D03*
%TD*%
D12*
%TO.P,R2,1*%
%TO.N,Net-(R1-Pad1)*%
X107177500Y-54890673D03*
%TO.P,R2,2*%
%TO.N,Net-(C1-Pad1)*%
X109177500Y-54890673D03*
%TD*%
%TO.P,Ccomp4,1*%
%TO.N,Net-(Ccomp3-Pad1)*%
X110935000Y-35508173D03*
%TO.P,Ccomp4,2*%
%TO.N,Net-(Ccomp4-Pad2)*%
X112935000Y-35508173D03*
%TD*%
D22*
%TO.P,Cin2,1*%
%TO.N,Net-(Cbyp2-Pad1)*%
X99405000Y-33105673D03*
%TO.P,Cin2,2*%
%TO.N,GND*%
X99405000Y-31030673D03*
%TD*%
D12*
%TO.P,Rfilt1,1*%
%TO.N,Net-(Cfilt1-Pad1)*%
X103337500Y-54890673D03*
%TO.P,Rfilt1,2*%
%TO.N,Net-(Q1-Pad4)*%
X105337500Y-54890673D03*
%TD*%
%TO.P,Rfilt2,1*%
%TO.N,Net-(Cfilt2-Pad1)*%
X103335000Y-33418173D03*
%TO.P,Rfilt2,2*%
%TO.N,Net-(Q2-Pad4)*%
X105335000Y-33418173D03*
%TD*%
D32*
%TO.N,/Propeller/P24*%
X51893097Y-83982202D03*
%TO.N,/Propeller/P25*%
X55315984Y-87693483D03*
%TO.N,/Propeller/P26*%
X54671996Y-88457869D03*
%TO.N,/Propeller/P28_SCL*%
X50703949Y-84842250D03*
%TO.N,/Propeller/P29_SDA*%
X49609413Y-86517599D03*
%TO.N,/Propeller/P5*%
X57361200Y-92894099D03*
%TO.N,Net-(J1-Pad3)*%
X34305390Y-90447721D03*
%TO.N,Net-(J1-Pad2)*%
X33891200Y-89514099D03*
%TO.N,/Propeller/5V*%
X29441200Y-92954397D03*
%TO.N,Net-(C3-Pad2)*%
X49881200Y-89204099D03*
X60431200Y-88894099D03*
%TO.N,/Propeller/3V3*%
X38983800Y-89994197D03*
X45681200Y-93284099D03*
X56201200Y-90214099D03*
%TO.N,Net-(D4-Pad1)*%
X40355400Y-90894101D03*
%TO.N,Net-(D3-Pad1)*%
X40407341Y-89445099D03*
%TO.N,Net-(D2-Pad2)*%
X38741200Y-94779399D03*
X32213499Y-88946398D03*
%TO.N,Net-(D1-Pad2)*%
X28221200Y-92794099D03*
%TO.N,Net-(U1-Pad29)*%
X56544830Y-86169729D03*
%TO.N,Net-(U1-Pad28)*%
X57736700Y-86626899D03*
%TO.N,GND*%
X57141200Y-94604099D03*
X56011200Y-88544099D03*
X47161200Y-90274099D03*
X49642790Y-90653099D03*
X61434100Y-92069199D03*
X65881200Y-91104099D03*
X60686601Y-114299898D03*
X29041200Y-87364099D03*
X58461200Y-87834099D03*
X37479400Y-87135899D03*
X34591200Y-94204099D03*
%TO.N,3.3V*%
X58210000Y-33010000D03*
X82210000Y-44760000D03*
%TO.N,/Carte Mere/P2*%
X56210000Y-35760000D03*
X36460000Y-39760000D03*
%TO.N,Net-(C10-Pad1)*%
X80210000Y-38760000D03*
X68960000Y-31760000D03*
%TO.N,Net-(C3-Pad1)*%
X30960000Y-37760000D03*
X44460000Y-31535500D03*
%TO.N,GND*%
X50460000Y-29510000D03*
X40460000Y-32260000D03*
X59960000Y-35760000D03*
X73710000Y-33010000D03*
X57997472Y-28649132D03*
%TO.N,Net-(Cbyp1-Pad1)*%
X96393000Y-61756173D03*
%TO.N,Net-(Cbyp2-Pad1)*%
X96901000Y-40420173D03*
%TO.N,Net-(Ccomp1-Pad1)*%
X107177500Y-56470673D03*
%TO.N,Net-(Ccomp3-Pad1)*%
X107175000Y-34998173D03*
%TO.N,Net-(Cfilt1-Pad1)*%
X105192500Y-57005673D03*
%TO.N,Net-(Cfilt2-Pad1)*%
X105190000Y-35533173D03*
%TO.N,Net-(D1-Pad2)*%
X105791000Y-63788173D03*
X99187000Y-59978173D03*
%TO.N,Net-(D2-Pad2)*%
X99695000Y-38642173D03*
X105537000Y-42960173D03*
%TO.N,Net-(Q1-Pad4)*%
X98787500Y-57080673D03*
%TO.N,Net-(Q2-Pad4)*%
X98785000Y-35608173D03*
%TO.N,Net-(R1-Pad1)*%
X108331000Y-53628173D03*
%TO.N,Net-(R3-Pad1)*%
X108215000Y-32138173D03*
%TD*%
D33*
%TO.N,/Propeller/FT232_RX*%
X45791200Y-86850299D02*
X44211200Y-88430299D01*
X45791200Y-86614099D02*
X45791200Y-86850299D01*
%TO.N,/Propeller/FT232_TX*%
X37001000Y-95503899D02*
X41900200Y-95503899D01*
X44216200Y-93187899D02*
X44216200Y-92087899D01*
X41900200Y-95503899D02*
X44216200Y-93187899D01*
%TO.N,/ESP-01/ESP_RX*%
X33241200Y-114818099D02*
X34373600Y-115950499D01*
X34373600Y-115950499D02*
X58126200Y-115950499D01*
X58126200Y-115950499D02*
X59301200Y-114775499D01*
%TO.N,/ESP-01/P15_ESP-RX*%
X77816800Y-119788499D02*
X78991800Y-118613499D01*
X60503281Y-112235499D02*
X61414800Y-113147018D01*
X75086800Y-118126798D02*
X75086800Y-118988699D01*
X75886600Y-119788499D02*
X77816800Y-119788499D01*
X62879611Y-117399400D02*
X74359402Y-117399400D01*
X75086800Y-118988699D02*
X75886600Y-119788499D01*
X59301200Y-112235499D02*
X60503281Y-112235499D01*
X61414800Y-115934589D02*
X62879611Y-117399400D01*
X74359402Y-117399400D02*
X75086800Y-118126798D01*
X61414800Y-113147018D02*
X61414800Y-115934589D01*
%TO.N,/ESP-01/P14_ESP-TX*%
X61145400Y-109695499D02*
X59301200Y-109695499D01*
X61872000Y-110422099D02*
X61145400Y-109695499D01*
X61872000Y-115756099D02*
X61872000Y-110422099D01*
X63065800Y-116949899D02*
X61872000Y-115756099D01*
X75930800Y-118283299D02*
X74597400Y-116949899D01*
X75930800Y-118613499D02*
X75930800Y-118283299D01*
X74597400Y-116949899D02*
X63065800Y-116949899D01*
X76451800Y-118613499D02*
X75930800Y-118613499D01*
%TO.N,/Propeller/P28_SCL*%
X53526200Y-89129099D02*
X52593600Y-88196499D01*
X51155600Y-88112521D02*
X51155600Y-86392809D01*
X51155600Y-86392809D02*
X50703949Y-85941158D01*
X52923110Y-91719099D02*
X53189373Y-91719099D01*
X53526200Y-91382272D02*
X53526200Y-89129099D01*
X50703949Y-85941158D02*
X50703949Y-84842250D01*
X52656000Y-92697499D02*
X52627400Y-92668899D01*
X52627400Y-92014809D02*
X52923110Y-91719099D01*
X51239578Y-88196499D02*
X51155600Y-88112521D01*
X55025400Y-92697499D02*
X52656000Y-92697499D01*
X52593600Y-88196499D02*
X51239578Y-88196499D01*
X52627400Y-92668899D02*
X52627400Y-92014809D01*
X53189373Y-91719099D02*
X53526200Y-91382272D01*
%TO.N,/Propeller/P29_SDA*%
X50256598Y-87933187D02*
X49701200Y-87377789D01*
X51552400Y-93572699D02*
X51552400Y-89620989D01*
X50256598Y-88484899D02*
X50256598Y-87933187D01*
X52633000Y-94653299D02*
X51552400Y-93572699D01*
X50625700Y-88854001D02*
X50256598Y-88484899D01*
X49701200Y-87377789D02*
X49701200Y-86609386D01*
X50783222Y-89095501D02*
X50625700Y-88937979D01*
X51552400Y-89620989D02*
X51026912Y-89095501D01*
X50625700Y-88937979D02*
X50625700Y-88854001D01*
X52633000Y-94653299D02*
X53318800Y-93967499D01*
X51026912Y-89095501D02*
X50783222Y-89095501D01*
X49701200Y-86609386D02*
X49609413Y-86517599D01*
X53318800Y-93967499D02*
X55025400Y-93967499D01*
%TO.N,/Propeller/Reset*%
X63283600Y-94148599D02*
X62061200Y-95370999D01*
X63767851Y-94148599D02*
X63283600Y-94148599D01*
X65056200Y-92860250D02*
X63767851Y-94148599D01*
X65056200Y-88846599D02*
X65056200Y-92860250D01*
X56976200Y-99219099D02*
X55801200Y-98044099D01*
X62061200Y-95370999D02*
X62061200Y-98525800D01*
X61367901Y-99219099D02*
X56976200Y-99219099D01*
X62061200Y-98525800D02*
X61367901Y-99219099D01*
X64471200Y-88261599D02*
X65056200Y-88846599D01*
%TO.N,/ESP-01/ESP_TX*%
X56761200Y-107155499D02*
X37219000Y-107155499D01*
X37219000Y-107155499D02*
X33241200Y-111133299D01*
%TO.N,Net-(J1-Pad3)*%
X41405400Y-92817699D02*
X41405400Y-89353989D01*
X36039511Y-88713600D02*
X34305390Y-90447721D01*
X40765011Y-88713600D02*
X36039511Y-88713600D01*
X41405400Y-89353989D02*
X40765011Y-88713600D01*
%TO.N,Net-(J1-Pad2)*%
X40755400Y-93728299D02*
X40755400Y-92817699D01*
X41817600Y-94017699D02*
X41044800Y-94017699D01*
X41044800Y-94017699D02*
X40755400Y-93728299D01*
X35141200Y-88264099D02*
X40951200Y-88264099D01*
X41955400Y-89268299D02*
X41955400Y-93879899D01*
X41955400Y-93879899D02*
X41817600Y-94017699D01*
X33891200Y-89514099D02*
X35141200Y-88264099D01*
X40951200Y-88264099D02*
X41955400Y-89268299D01*
%TO.N,/Propeller/5V*%
X38155400Y-93942699D02*
X37630899Y-94467200D01*
X34969499Y-96894099D02*
X33258000Y-96894099D01*
X31804600Y-95440699D02*
X31804600Y-94962901D01*
X34994499Y-96869099D02*
X34969499Y-96894099D01*
X37630899Y-94467200D02*
X35938099Y-94467200D01*
X35821200Y-96614099D02*
X35566200Y-96869099D01*
X38155400Y-92817699D02*
X38155400Y-93942699D01*
X31804600Y-94962901D02*
X28841200Y-91999501D01*
X63529499Y-84574099D02*
X62141200Y-83185800D01*
X61521200Y-81624099D02*
X56981200Y-81624099D01*
X28841200Y-91999501D02*
X28841200Y-90946599D01*
X56981200Y-81624099D02*
X55801200Y-82804099D01*
X35566200Y-96869099D02*
X34994499Y-96869099D01*
X33258000Y-96894099D02*
X31804600Y-95440699D01*
X62141200Y-82244099D02*
X61521200Y-81624099D01*
X35821200Y-94584099D02*
X35821200Y-96614099D01*
X62141200Y-83185800D02*
X62141200Y-82244099D01*
X35938099Y-94467200D02*
X35821200Y-94584099D01*
X63941200Y-84574099D02*
X63529499Y-84574099D01*
%TO.N,Net-(C3-Pad2)*%
X48651200Y-89631599D02*
X49453700Y-89631599D01*
X61821200Y-90284099D02*
X60431200Y-88894099D01*
X49453700Y-89631599D02*
X49881200Y-89204099D01*
X62131200Y-90284099D02*
X61821200Y-90284099D01*
X62333600Y-90486499D02*
X62131200Y-90284099D01*
X62333600Y-92273599D02*
X62333600Y-90486499D01*
%TO.N,/Propeller/FT232_DTR*%
X34191200Y-82004099D02*
X34191200Y-83906899D01*
X46901200Y-82394099D02*
X46101200Y-81594099D01*
X34191200Y-83906899D02*
X33605400Y-84492699D01*
X46101200Y-81594099D02*
X34601200Y-81594099D01*
X46901200Y-85806599D02*
X46901200Y-82394099D01*
X33605400Y-84492699D02*
X33605400Y-85617699D01*
X48651200Y-87556599D02*
X46901200Y-85806599D01*
X34601200Y-81594099D02*
X34191200Y-82004099D01*
%TO.N,Net-(C2-Pad2)*%
X63521200Y-86386599D02*
X63521200Y-86181099D01*
X51584896Y-84708599D02*
X51428449Y-84552152D01*
X51623101Y-88646000D02*
X51053389Y-88646000D01*
X50706099Y-88298710D02*
X50706099Y-86581696D01*
X63521200Y-86181099D02*
X62048700Y-84708599D01*
X51004047Y-84117750D02*
X50403851Y-84117750D01*
X50398851Y-84122750D02*
X48470049Y-84122750D01*
X50037502Y-85933099D02*
X48748502Y-84644099D01*
X50057502Y-85933099D02*
X50037502Y-85933099D01*
X52601200Y-89624099D02*
X51623101Y-88646000D01*
X50403851Y-84117750D02*
X50398851Y-84122750D01*
X51428449Y-84542152D02*
X51004047Y-84117750D01*
X62048700Y-84708599D02*
X51584896Y-84708599D01*
X51053389Y-88646000D02*
X50706099Y-88298710D01*
X52601200Y-90694099D02*
X52601200Y-89624099D01*
X48470049Y-84122750D02*
X47948700Y-84644099D01*
X51428449Y-84552152D02*
X51428449Y-84542152D01*
X50706099Y-86581696D02*
X50057502Y-85933099D01*
X48748502Y-84644099D02*
X47948700Y-84644099D01*
D34*
%TO.N,/Propeller/FT232_RTS*%
X34255400Y-84579899D02*
X34857101Y-83978198D01*
X42881200Y-84644099D02*
X45873700Y-84644099D01*
X34857101Y-83978198D02*
X42215299Y-83978198D01*
X42215299Y-83978198D02*
X42881200Y-84644099D01*
X34255400Y-85617699D02*
X34255400Y-84579899D01*
D33*
%TO.N,/Propeller/3V3*%
X56144600Y-90157499D02*
X56201200Y-90214099D01*
X50633000Y-94653299D02*
X50633000Y-95415899D01*
X36977483Y-90269196D02*
X38708801Y-90269196D01*
X50633000Y-94653299D02*
X50633000Y-92674499D01*
X50633000Y-94653299D02*
X49902900Y-94653299D01*
X30754322Y-91172221D02*
X36074458Y-91172221D01*
X50633000Y-95415899D02*
X53261200Y-98044099D01*
X46803700Y-95354099D02*
X46818700Y-95354099D01*
X50633000Y-92674499D02*
X50627400Y-92668899D01*
X55025400Y-90157499D02*
X56144600Y-90157499D01*
X30641200Y-91059099D02*
X30754322Y-91172221D01*
X46818700Y-95354099D02*
X48711200Y-93461599D01*
X38708801Y-90269196D02*
X38983800Y-89994197D01*
X36074458Y-91172221D02*
X36977483Y-90269196D01*
X48711200Y-93461599D02*
X45858700Y-93461599D01*
X49902900Y-94653299D02*
X48711200Y-93461599D01*
X45858700Y-93461599D02*
X45681200Y-93284099D01*
%TO.N,Net-(R8-Pad1)*%
X43791200Y-86253499D02*
X41955400Y-84417699D01*
X35827600Y-84417699D02*
X35555400Y-84689899D01*
X35555400Y-84689899D02*
X35555400Y-85617699D01*
X41955400Y-84417699D02*
X35827600Y-84417699D01*
X43791200Y-86614099D02*
X43791200Y-86253499D01*
%TO.N,Net-(R7-Pad1)*%
X32704600Y-94752526D02*
X32367773Y-94415699D01*
X34821200Y-95324099D02*
X32871200Y-95324099D01*
X29541200Y-88464099D02*
X32387600Y-85617699D01*
X29541200Y-91994099D02*
X29541200Y-88464099D01*
X32704600Y-95157499D02*
X32704600Y-94752526D01*
X32367773Y-94415699D02*
X31962800Y-94415699D01*
X32387600Y-85617699D02*
X32955400Y-85617699D01*
X31962800Y-94415699D02*
X29541200Y-91994099D01*
X32871200Y-95324099D02*
X32704600Y-95157499D01*
%TO.N,Net-(D4-Pad1)*%
X36855400Y-92817699D02*
X36855400Y-91692699D01*
X39730291Y-91356900D02*
X39892601Y-91356900D01*
X37379901Y-91168198D02*
X39541589Y-91168198D01*
X36855400Y-91692699D02*
X37379901Y-91168198D01*
X39541589Y-91168198D02*
X39730291Y-91356900D01*
X39892601Y-91356900D02*
X40355400Y-90894101D01*
%TO.N,Net-(D3-Pad1)*%
X40407341Y-89783956D02*
X40407341Y-89445099D01*
X36205400Y-92817699D02*
X36205400Y-91692699D01*
X36205400Y-91692699D02*
X37179402Y-90718697D01*
X37179402Y-90718697D02*
X39472600Y-90718697D01*
X39472600Y-90718697D02*
X40407341Y-89783956D01*
%TO.N,Net-(D2-Pad2)*%
X40105400Y-92817699D02*
X40105400Y-93942699D01*
X33980010Y-88789599D02*
X34905400Y-87864209D01*
X34905400Y-87864209D02*
X34905400Y-85617699D01*
X40105400Y-93942699D02*
X39268700Y-94779399D01*
X39268700Y-94779399D02*
X38741200Y-94779399D01*
X30860700Y-88789599D02*
X33980010Y-88789599D01*
X30641200Y-89009099D02*
X30860700Y-88789599D01*
%TO.N,Net-(D1-Pad2)*%
X28221200Y-93907299D02*
X28221200Y-92794099D01*
X29754600Y-95440699D02*
X28221200Y-93907299D01*
%TO.N,Net-(U1-Pad29)*%
X55871760Y-86842799D02*
X56544830Y-86169729D01*
X52980250Y-86842799D02*
X55871760Y-86842799D01*
%TO.N,Net-(U1-Pad28)*%
X61004550Y-86842799D02*
X57952600Y-86842799D01*
X57952600Y-86842799D02*
X57736700Y-86626899D01*
D35*
%TO.N,GND*%
X36855400Y-86742699D02*
X37248600Y-87135899D01*
D33*
X37505400Y-92817699D02*
X37505400Y-93729899D01*
X55025400Y-91427499D02*
X59975400Y-91427499D01*
X37605400Y-91617699D02*
X37505400Y-91717699D01*
X51051800Y-118613499D02*
X52226800Y-117438499D01*
X65666200Y-86141599D02*
X65421200Y-86386599D01*
X65881200Y-86846599D02*
X65881200Y-91104099D01*
D35*
X36855400Y-85617699D02*
X36855400Y-86742699D01*
D33*
X65421200Y-86386599D02*
X65881200Y-86846599D01*
X37217600Y-94017699D02*
X35184800Y-94017699D01*
X65421200Y-86386599D02*
X64936949Y-86386599D01*
X29041200Y-89021599D02*
X29041200Y-87364099D01*
X64131200Y-92171199D02*
X64233600Y-92273599D01*
X57777800Y-93967499D02*
X57141200Y-94604099D01*
X34881200Y-93914099D02*
X34591200Y-94204099D01*
X59975400Y-92697499D02*
X59975400Y-91988299D01*
X35081200Y-93914099D02*
X34905400Y-93738299D01*
X58461200Y-87834099D02*
X56721200Y-87834099D01*
X63846200Y-87477348D02*
X63846200Y-89999099D01*
X34255400Y-92817699D02*
X34905400Y-92817699D01*
X35184800Y-94017699D02*
X35081200Y-93914099D01*
X65666200Y-84574099D02*
X65666200Y-86141599D01*
X52226800Y-117438499D02*
X58299901Y-117438499D01*
X59975400Y-90157499D02*
X58461200Y-88643299D01*
X39455400Y-91717699D02*
X39355400Y-91617699D01*
X48878700Y-95354099D02*
X48878700Y-96201599D01*
X48878700Y-96201599D02*
X50721200Y-98044099D01*
X63846200Y-89999099D02*
X64131200Y-90284099D01*
X39455400Y-92817699D02*
X39455400Y-91717699D01*
X59975400Y-91988299D02*
X59975400Y-91427499D01*
X39355400Y-91617699D02*
X37605400Y-91617699D01*
X37505400Y-93729899D02*
X37217600Y-94017699D01*
X59975400Y-93967499D02*
X59975400Y-92697499D01*
X59975400Y-93967499D02*
X57777800Y-93967499D01*
X58461200Y-88643299D02*
X58461200Y-87834099D01*
X56721200Y-87834099D02*
X56011200Y-88544099D01*
X60056300Y-92069199D02*
X61434100Y-92069199D01*
X64936949Y-86386599D02*
X63846200Y-87477348D01*
X59975400Y-91988299D02*
X60056300Y-92069199D01*
X37505400Y-91717699D02*
X37505400Y-92817699D01*
X28841200Y-89221599D02*
X29041200Y-89021599D01*
X50601200Y-90694099D02*
X49403700Y-90694099D01*
D35*
X37248600Y-87135899D02*
X37479400Y-87135899D01*
X48711200Y-91386599D02*
X48273700Y-91386599D01*
D33*
X64131200Y-90284099D02*
X64131200Y-92171199D01*
X59975400Y-91427499D02*
X59975400Y-90157499D01*
X35081200Y-93914099D02*
X34881200Y-93914099D01*
X34905400Y-93738299D02*
X34905400Y-92817699D01*
X58299901Y-117438499D02*
X60686601Y-115051799D01*
D35*
X48273700Y-91386599D02*
X47161200Y-90274099D01*
D33*
X60686601Y-115051799D02*
X60686601Y-114299898D01*
X49403700Y-90694099D02*
X48711200Y-91386599D01*
%TO.N,3.3V*%
X58210000Y-33010000D02*
X54010978Y-33010000D01*
X54010978Y-33010000D02*
X52210000Y-31209022D01*
X48930000Y-48470000D02*
X50120000Y-49660000D01*
X59690000Y-46270000D02*
X59185000Y-46775000D01*
X81672500Y-46260000D02*
X81662500Y-46270000D01*
X52210000Y-31209022D02*
X52210000Y-30010000D01*
X82210000Y-45722500D02*
X81672500Y-46260000D01*
X50690000Y-45090000D02*
X48930000Y-46850000D01*
X37740000Y-49660000D02*
X29880000Y-49660000D01*
X48930000Y-48470000D02*
X48900000Y-48500000D01*
X44486701Y-49655000D02*
X40095000Y-49655000D01*
X57995000Y-49660000D02*
X59185000Y-48470000D01*
X51560000Y-45090000D02*
X50690000Y-45090000D01*
X82210000Y-44760000D02*
X82210000Y-45722500D01*
X48930000Y-46850000D02*
X48930000Y-48470000D01*
X50120000Y-49660000D02*
X57995000Y-49660000D01*
X81662500Y-46270000D02*
X59690000Y-46270000D01*
X59185000Y-46775000D02*
X59185000Y-48470000D01*
X48900000Y-48500000D02*
X45641701Y-48500000D01*
X52210000Y-30010000D02*
X49030000Y-26830000D01*
X40095000Y-49655000D02*
X38920000Y-48480000D01*
X45641701Y-48500000D02*
X44486701Y-49655000D01*
X38920000Y-48480000D02*
X37740000Y-49660000D01*
X29880000Y-49660000D02*
X28700000Y-48480000D01*
X49030000Y-26830000D02*
X49030000Y-26760000D01*
%TO.N,/Carte Mere/P3*%
X38570000Y-39760000D02*
X36330000Y-42000000D01*
X62485000Y-37915000D02*
X60640000Y-39760000D01*
X60640000Y-39760000D02*
X38570000Y-39760000D01*
%TO.N,/Carte Mere/P2*%
X33790000Y-42000000D02*
X36030000Y-39760000D01*
X66789520Y-37269520D02*
X67435000Y-37915000D01*
X57719520Y-37269520D02*
X66789520Y-37269520D01*
X36030000Y-39760000D02*
X36460000Y-39760000D01*
X56210000Y-35760000D02*
X57719520Y-37269520D01*
%TO.N,/Carte Mere/P1*%
X31250000Y-42000000D02*
X35835000Y-37415000D01*
X35835000Y-37415000D02*
X39485000Y-37415000D01*
%TO.N,/Carte Mere/P0*%
X43810480Y-36790480D02*
X34179520Y-36790480D01*
X44435000Y-37415000D02*
X43810480Y-36790480D01*
X34179520Y-36790480D02*
X28970000Y-42000000D01*
X28970000Y-42000000D02*
X28710000Y-42000000D01*
%TO.N,Net-(D3-Pad1)*%
X78185000Y-37010000D02*
X78185000Y-33760000D01*
X77685000Y-36510000D02*
X78185000Y-37010000D01*
X75210000Y-36510000D02*
X77685000Y-36510000D01*
%TO.N,Net-(D1-Pad1)*%
X35710000Y-33010000D02*
X32985000Y-33010000D01*
X32985000Y-33010000D02*
X32985000Y-36260000D01*
%TO.N,Net-(C11-Pad1)*%
X82460480Y-32735480D02*
X76984520Y-32735480D01*
X64497500Y-33738572D02*
X64497500Y-31010000D01*
X73072973Y-30710480D02*
X75210000Y-32847507D01*
X64797020Y-30710480D02*
X73072973Y-30710480D01*
X62485000Y-35375000D02*
X62861072Y-35375000D01*
X82735000Y-33010000D02*
X84210000Y-33010000D01*
X76984520Y-32735480D02*
X75210000Y-34510000D01*
X82460480Y-32735480D02*
X82735000Y-33010000D01*
X62861072Y-35375000D02*
X64497500Y-33738572D01*
X75210000Y-32847507D02*
X75210000Y-34510000D01*
X64497500Y-31010000D02*
X64797020Y-30710480D01*
%TO.N,Net-(C10-Pad1)*%
X70422500Y-31760000D02*
X68960000Y-31760000D01*
X67435000Y-34105000D02*
X68077500Y-34105000D01*
X82750000Y-37010000D02*
X80235000Y-37010000D01*
X68077500Y-34105000D02*
X70422500Y-31760000D01*
X80210000Y-37035000D02*
X80235000Y-37010000D01*
X80210000Y-38760000D02*
X80210000Y-37035000D01*
X84210000Y-35550000D02*
X82750000Y-37010000D01*
X80235000Y-37010000D02*
X80235000Y-33760000D01*
%TO.N,/Carte Mere/5V*%
X54110000Y-23260000D02*
X54110000Y-26760000D01*
%TO.N,Net-(C4-Pad1)*%
X41497500Y-30510000D02*
X41497500Y-33238572D01*
X37460000Y-32760000D02*
X37460000Y-35010000D01*
X29235000Y-32985000D02*
X30460000Y-31760000D01*
X39350000Y-35010000D02*
X39485000Y-34875000D01*
X26710000Y-32985000D02*
X29235000Y-32985000D01*
X39861072Y-34875000D02*
X39485000Y-34875000D01*
X35710000Y-35010000D02*
X39350000Y-35010000D01*
X41497500Y-33238572D02*
X39861072Y-34875000D01*
X36460000Y-31760000D02*
X37460000Y-32760000D01*
X30460000Y-31760000D02*
X36460000Y-31760000D01*
%TO.N,Net-(C3-Pad1)*%
X44460000Y-33580000D02*
X44435000Y-33605000D01*
X46780000Y-31260000D02*
X48922500Y-31260000D01*
X30935000Y-37735000D02*
X30960000Y-37760000D01*
X30935000Y-36260000D02*
X30935000Y-33010000D01*
X44460000Y-31535500D02*
X44460000Y-33580000D01*
X30200000Y-35525000D02*
X30935000Y-36260000D01*
X30935000Y-36260000D02*
X30935000Y-37735000D01*
X44435000Y-33605000D02*
X46780000Y-31260000D01*
X26710000Y-35525000D02*
X30200000Y-35525000D01*
%TO.N,GND*%
X39485000Y-33235000D02*
X40460000Y-32260000D01*
X52740000Y-43380000D02*
X52740000Y-45580000D01*
X49550000Y-43180000D02*
X52540000Y-43180000D01*
X50997500Y-31260000D02*
X50997500Y-34260000D01*
X82697500Y-47310000D02*
X81096827Y-47310000D01*
X39485000Y-33605000D02*
X39485000Y-30572500D01*
X62422500Y-31010000D02*
X62422500Y-33972500D01*
X50997500Y-31260000D02*
X50997500Y-30047500D01*
X49020000Y-43710000D02*
X49550000Y-43180000D01*
X73710000Y-32972500D02*
X72497500Y-31760000D01*
X62422500Y-31010000D02*
X60061632Y-28649132D01*
X52540000Y-43180000D02*
X52740000Y-43380000D01*
X83747500Y-46260000D02*
X82697500Y-47310000D01*
X60210000Y-35760000D02*
X59960000Y-35760000D01*
X84725000Y-45282500D02*
X83747500Y-46260000D01*
X72497500Y-34760000D02*
X72497500Y-31760000D01*
X69475592Y-33710480D02*
X68456552Y-34729520D01*
X62485000Y-34035000D02*
X62485000Y-34105000D01*
X49020000Y-45090000D02*
X49020000Y-43710000D01*
X68456552Y-34729520D02*
X64776552Y-34729520D01*
X75490000Y-46840000D02*
X73830000Y-48500000D01*
X39485000Y-30572500D02*
X39422500Y-30510000D01*
X72497500Y-37760000D02*
X72497500Y-34760000D01*
X60061632Y-28649132D02*
X57997472Y-28649132D01*
X71447980Y-33710480D02*
X69475592Y-33710480D01*
X84725000Y-42010000D02*
X84725000Y-45282500D01*
X61865000Y-34105000D02*
X62485000Y-34105000D01*
X61185480Y-35735480D02*
X61185480Y-34784520D01*
X61185480Y-34784520D02*
X60210000Y-35760000D01*
X81096827Y-47310000D02*
X80626827Y-46840000D01*
X61185480Y-34784520D02*
X61865000Y-34105000D01*
X62422500Y-33972500D02*
X62485000Y-34035000D01*
X61449520Y-35999520D02*
X61185480Y-35735480D01*
X64776552Y-34729520D02*
X63506552Y-35999520D01*
X39485000Y-33605000D02*
X39485000Y-33235000D01*
X51470000Y-46850000D02*
X51470000Y-48470000D01*
X50997500Y-34260000D02*
X50997500Y-37260000D01*
X63506552Y-35999520D02*
X61449520Y-35999520D01*
X72497500Y-34760000D02*
X71447980Y-33710480D01*
X50997500Y-30047500D02*
X50460000Y-29510000D01*
X52740000Y-45580000D02*
X51470000Y-46850000D01*
X80626827Y-46840000D02*
X75490000Y-46840000D01*
X73710000Y-33010000D02*
X73710000Y-32972500D01*
D36*
%TO.N,/Carte Mere/6V*%
X48922500Y-34260000D02*
X48307500Y-34875000D01*
X70422500Y-38222500D02*
X70422500Y-37760000D01*
X62485000Y-36645000D02*
X58845000Y-36645000D01*
X67435000Y-35375000D02*
X69807500Y-35375000D01*
X67435000Y-36645000D02*
X67435000Y-35375000D01*
X62485000Y-36645000D02*
X67435000Y-36645000D01*
X55157849Y-34760000D02*
X51583329Y-38334520D01*
X82185000Y-42010000D02*
X81085000Y-42010000D01*
X70422500Y-34760000D02*
X70422500Y-37760000D01*
X69807500Y-35375000D02*
X70422500Y-34760000D01*
X49997020Y-38334520D02*
X48922500Y-37260000D01*
X81085000Y-42010000D02*
X78335000Y-39260000D01*
X78335000Y-39260000D02*
X71460000Y-39260000D01*
X58845000Y-36645000D02*
X56960000Y-34760000D01*
X48307500Y-34875000D02*
X44435000Y-34875000D01*
X71460000Y-39260000D02*
X70422500Y-38222500D01*
X47807500Y-36145000D02*
X48922500Y-37260000D01*
X44435000Y-36145000D02*
X47807500Y-36145000D01*
X51583329Y-38334520D02*
X49997020Y-38334520D01*
X56960000Y-34760000D02*
X55157849Y-34760000D01*
X44435000Y-36145000D02*
X39485000Y-36145000D01*
X48922500Y-37260000D02*
X48922500Y-34260000D01*
D37*
%TO.N,GND*%
X110937500Y-53885673D02*
X112187500Y-52635673D01*
D33*
X97247500Y-31030673D02*
X97135000Y-31143173D01*
X112941137Y-31163173D02*
X119245000Y-31163173D01*
X110935000Y-33418173D02*
X110935000Y-33169310D01*
X103367500Y-52760673D02*
X101695000Y-52760673D01*
X101695000Y-52760673D02*
X101427500Y-52493173D01*
X103365000Y-31288173D02*
X101692500Y-31288173D01*
X97250000Y-52503173D02*
X97137500Y-52615673D01*
X99407500Y-52503173D02*
X97250000Y-52503173D01*
D37*
X112190000Y-52638173D02*
X119235000Y-52638173D01*
D33*
X99405000Y-31030673D02*
X97247500Y-31030673D01*
D37*
X110937500Y-54890673D02*
X110937500Y-53885673D01*
D33*
X101425000Y-31020673D02*
X99415000Y-31020673D01*
X99415000Y-31020673D02*
X99405000Y-31030673D01*
X101692500Y-31288173D02*
X101425000Y-31020673D01*
D37*
X112187500Y-52635673D02*
X112190000Y-52638173D01*
D33*
X110935000Y-33169310D02*
X112941137Y-31163173D01*
X101427500Y-52493173D02*
X99417500Y-52493173D01*
X99417500Y-52493173D02*
X99407500Y-52503173D01*
%TO.N,Net-(C2-Pad1)*%
X111675000Y-34468173D02*
X112010000Y-34133173D01*
X112010000Y-32730000D02*
X112346827Y-32393173D01*
X112346827Y-32393173D02*
X117935000Y-32393173D01*
X112010000Y-34133173D02*
X112010000Y-32730000D01*
X117935000Y-32393173D02*
X119245000Y-33703173D01*
X109175000Y-33418173D02*
X110225000Y-34468173D01*
X110225000Y-34468173D02*
X111675000Y-34468173D01*
D38*
%TO.N,Net-(Cbyp1-Pad1)*%
X97137500Y-57963673D02*
X96393000Y-58708173D01*
X97137500Y-55155673D02*
X97137500Y-57963673D01*
D33*
X99417500Y-54568173D02*
X99407500Y-54578173D01*
D38*
X96393000Y-58708173D02*
X96393000Y-61756173D01*
D33*
X101427500Y-54568173D02*
X99417500Y-54568173D01*
X99407500Y-54578173D02*
X98830000Y-55155673D01*
X98830000Y-55155673D02*
X97137500Y-55155673D01*
%TO.N,Net-(Cbyp2-Pad1)*%
X96901000Y-40754173D02*
X96901000Y-40420173D01*
X101425000Y-33095673D02*
X99415000Y-33095673D01*
X97135000Y-40988173D02*
X96901000Y-40754173D01*
X99415000Y-33095673D02*
X99405000Y-33105673D01*
X99405000Y-33105673D02*
X98827500Y-33683173D01*
X98827500Y-33683173D02*
X97135000Y-33683173D01*
D38*
X97135000Y-33683173D02*
X97135000Y-40988173D01*
D33*
%TO.N,Net-(Ccomp1-Pad1)*%
X107687500Y-56980673D02*
X110937500Y-56980673D01*
X107177500Y-56470673D02*
X107687500Y-56980673D01*
%TO.N,Net-(Ccomp1-Pad2)*%
X112937500Y-56850673D02*
X112937500Y-54890673D01*
%TO.N,Net-(Ccomp3-Pad1)*%
X107175000Y-34998173D02*
X107685000Y-35508173D01*
X107685000Y-35508173D02*
X110935000Y-35508173D01*
%TO.N,Net-(Ccomp4-Pad2)*%
X112935000Y-35378173D02*
X112935000Y-33418173D01*
%TO.N,Net-(Cfilt1-Pad1)*%
X103337500Y-55150673D02*
X105192500Y-57005673D01*
X103337500Y-54890673D02*
X103337500Y-55150673D01*
%TO.N,Net-(Cfilt2-Pad1)*%
X103335000Y-33418173D02*
X103335000Y-33678173D01*
X103335000Y-33678173D02*
X105190000Y-35533173D01*
D38*
%TO.N,Net-(D1-Pad2)*%
X102997000Y-63788173D02*
X105791000Y-63788173D01*
X99187000Y-59978173D02*
X102997000Y-63788173D01*
%TO.N,Net-(D2-Pad2)*%
X99695000Y-38642173D02*
X104013000Y-42960173D01*
X104013000Y-42960173D02*
X105537000Y-42960173D01*
D33*
%TO.N,Net-(Q1-Pad4)*%
X105917000Y-55470173D02*
X105917000Y-57305771D01*
X105492598Y-57730173D02*
X99437000Y-57730173D01*
X105337500Y-54890673D02*
X106467500Y-53760673D01*
X99437000Y-57730173D02*
X98787500Y-57080673D01*
X106467500Y-53760673D02*
X106467500Y-52760673D01*
X105917000Y-57305771D02*
X105492598Y-57730173D01*
X105337500Y-54890673D02*
X105917000Y-55470173D01*
%TO.N,Net-(Q2-Pad4)*%
X106465000Y-32288173D02*
X106465000Y-31288173D01*
X105490098Y-36257673D02*
X99434500Y-36257673D01*
X99434500Y-36257673D02*
X98785000Y-35608173D01*
X105335000Y-33418173D02*
X106465000Y-32288173D01*
X105914500Y-33997673D02*
X105914500Y-35833271D01*
X105914500Y-35833271D02*
X105490098Y-36257673D01*
X105335000Y-33418173D02*
X105914500Y-33997673D01*
%TO.N,Net-(R1-Pad1)*%
X107177500Y-54890673D02*
X107177500Y-54781673D01*
X107177500Y-54781673D02*
X108331000Y-53628173D01*
%TO.N,Net-(R3-Pad1)*%
X107175000Y-33178173D02*
X108215000Y-32138173D01*
X107175000Y-33418173D02*
X107175000Y-33178173D01*
%TO.N,Net-(C1-Pad1)*%
X109177500Y-54890673D02*
X110227500Y-55940673D01*
X117922500Y-53865673D02*
X119235000Y-55178173D01*
X112012500Y-54202500D02*
X112349327Y-53865673D01*
X112012500Y-55605673D02*
X112012500Y-54202500D01*
X112349327Y-53865673D02*
X117922500Y-53865673D01*
X110227500Y-55940673D02*
X111677500Y-55940673D01*
X111677500Y-55940673D02*
X112012500Y-55605673D01*
%TD*%
M02*
