%TF.GenerationSoftware,KiCad,Pcbnew,6.0.7+dfsg-1~bpo11+1*%
%TF.CreationDate,2022-09-15T22:54:34-04:00*%
%TF.ProjectId,COMPLETE_PCB,434f4d50-4c45-4544-955f-5043422e6b69,rev?*%
%TF.SameCoordinates,Original*%
%TF.FileFunction,Copper,L1,Top*%
%TF.FilePolarity,Positive*%
%FSLAX46Y46*%
G04 Gerber Fmt 4.6, Leading zero omitted, Abs format (unit mm)*
G04 Created by KiCad (PCBNEW 6.0.7+dfsg-1~bpo11+1) date 2022-09-15 22:54:34*
%MOMM*%
%LPD*%
G01*
G04 APERTURE LIST*
G04 Aperture macros list*
%AMRoundRect*
0 Rectangle with rounded corners*
0 $1 Rounding radius*
0 $2 $3 $4 $5 $6 $7 $8 $9 X,Y pos of 4 corners*
0 Add a 4 corners polygon primitive as box body*
4,1,4,$2,$3,$4,$5,$6,$7,$8,$9,$2,$3,0*
0 Add four circle primitives for the rounded corners*
1,1,$1+$1,$2,$3*
1,1,$1+$1,$4,$5*
1,1,$1+$1,$6,$7*
1,1,$1+$1,$8,$9*
0 Add four rect primitives between the rounded corners*
20,1,$1+$1,$2,$3,$4,$5,0*
20,1,$1+$1,$4,$5,$6,$7,0*
20,1,$1+$1,$6,$7,$8,$9,0*
20,1,$1+$1,$8,$9,$2,$3,0*%
%AMOutline4P*
0 Free polygon, 4 corners , with rotation*
0 The origin of the aperture is its center*
0 number of corners: always 4*
0 $1 to $8 corner X, Y*
0 $9 Rotation angle, in degrees counterclockwise*
0 create outline with 4 corners*
4,1,4,$1,$2,$3,$4,$5,$6,$7,$8,$1,$2,$9*%
G04 Aperture macros list end*
%TA.AperFunction,ComponentPad*%
%ADD10O,1.700000X1.700000*%
%TD*%
%TA.AperFunction,ComponentPad*%
%ADD11R,1.700000X1.700000*%
%TD*%
%TA.AperFunction,SMDPad,CuDef*%
%ADD12R,1.500000X1.500000*%
%TD*%
%TA.AperFunction,SMDPad,CuDef*%
%ADD13RoundRect,0.250000X-0.450000X0.325000X-0.450000X-0.325000X0.450000X-0.325000X0.450000X0.325000X0*%
%TD*%
%TA.AperFunction,SMDPad,CuDef*%
%ADD14RoundRect,0.250000X-0.475000X0.337500X-0.475000X-0.337500X0.475000X-0.337500X0.475000X0.337500X0*%
%TD*%
%TA.AperFunction,SMDPad,CuDef*%
%ADD15RoundRect,0.250000X-0.450000X0.350000X-0.450000X-0.350000X0.450000X-0.350000X0.450000X0.350000X0*%
%TD*%
%TA.AperFunction,SMDPad,CuDef*%
%ADD16RoundRect,0.250000X0.475000X-0.337500X0.475000X0.337500X-0.475000X0.337500X-0.475000X-0.337500X0*%
%TD*%
%TA.AperFunction,SMDPad,CuDef*%
%ADD17RoundRect,0.137500X0.137500X-0.362500X0.137500X0.362500X-0.137500X0.362500X-0.137500X-0.362500X0*%
%TD*%
%TA.AperFunction,SMDPad,CuDef*%
%ADD18RoundRect,0.137500X0.600000X-0.137500X0.600000X0.137500X-0.600000X0.137500X-0.600000X-0.137500X0*%
%TD*%
%TA.AperFunction,SMDPad,CuDef*%
%ADD19RoundRect,0.250000X0.450000X-0.350000X0.450000X0.350000X-0.450000X0.350000X-0.450000X-0.350000X0*%
%TD*%
%TA.AperFunction,SMDPad,CuDef*%
%ADD20RoundRect,0.250000X0.450000X-0.325000X0.450000X0.325000X-0.450000X0.325000X-0.450000X-0.325000X0*%
%TD*%
%TA.AperFunction,SMDPad,CuDef*%
%ADD21R,2.500000X0.500000*%
%TD*%
%TA.AperFunction,SMDPad,CuDef*%
%ADD22R,2.500000X2.000000*%
%TD*%
%TA.AperFunction,SMDPad,CuDef*%
%ADD23R,2.200000X1.200000*%
%TD*%
%TA.AperFunction,SMDPad,CuDef*%
%ADD24R,6.400000X5.800000*%
%TD*%
%TA.AperFunction,SMDPad,CuDef*%
%ADD25RoundRect,0.250000X0.337500X0.475000X-0.337500X0.475000X-0.337500X-0.475000X0.337500X-0.475000X0*%
%TD*%
%TA.AperFunction,ComponentPad*%
%ADD26C,1.500000*%
%TD*%
%TA.AperFunction,ComponentPad*%
%ADD27C,1.620000*%
%TD*%
%TA.AperFunction,SMDPad,CuDef*%
%ADD28RoundRect,0.250000X-0.350000X-0.450000X0.350000X-0.450000X0.350000X0.450000X-0.350000X0.450000X0*%
%TD*%
%TA.AperFunction,SMDPad,CuDef*%
%ADD29RoundRect,0.250000X0.350000X0.450000X-0.350000X0.450000X-0.350000X-0.450000X0.350000X-0.450000X0*%
%TD*%
%TA.AperFunction,SMDPad,CuDef*%
%ADD30RoundRect,0.150000X-0.825000X-0.150000X0.825000X-0.150000X0.825000X0.150000X-0.825000X0.150000X0*%
%TD*%
%TA.AperFunction,SMDPad,CuDef*%
%ADD31RoundRect,0.050100X0.174900X0.099900X-0.174900X0.099900X-0.174900X-0.099900X0.174900X-0.099900X0*%
%TD*%
%TA.AperFunction,SMDPad,CuDef*%
%ADD32RoundRect,0.050100X0.324900X0.099900X-0.324900X0.099900X-0.324900X-0.099900X0.324900X-0.099900X0*%
%TD*%
%TA.AperFunction,SMDPad,CuDef*%
%ADD33RoundRect,0.050350X0.449650X0.424650X-0.449650X0.424650X-0.449650X-0.424650X0.449650X-0.424650X0*%
%TD*%
%TA.AperFunction,SMDPad,CuDef*%
%ADD34RoundRect,0.150000X0.825000X0.150000X-0.825000X0.150000X-0.825000X-0.150000X0.825000X-0.150000X0*%
%TD*%
%TA.AperFunction,SMDPad,CuDef*%
%ADD35R,3.300000X8.200000*%
%TD*%
%TA.AperFunction,SMDPad,CuDef*%
%ADD36RoundRect,0.250000X1.000000X-1.750000X1.000000X1.750000X-1.000000X1.750000X-1.000000X-1.750000X0*%
%TD*%
%TA.AperFunction,SMDPad,CuDef*%
%ADD37Outline4P,-2.150000X-1.800000X2.150000X-0.800000X2.150000X0.800000X-2.150000X1.800000X180.000000*%
%TD*%
%TA.AperFunction,SMDPad,CuDef*%
%ADD38Outline4P,-2.150000X-1.800000X2.150000X-0.800000X2.150000X0.800000X-2.150000X1.800000X0.000000*%
%TD*%
%TA.AperFunction,ViaPad*%
%ADD39C,0.800000*%
%TD*%
%TA.AperFunction,Conductor*%
%ADD40C,0.250000*%
%TD*%
%TA.AperFunction,Conductor*%
%ADD41C,0.400000*%
%TD*%
%TA.AperFunction,Conductor*%
%ADD42C,1.500000*%
%TD*%
%TA.AperFunction,Conductor*%
%ADD43C,2.500000*%
%TD*%
%TA.AperFunction,Conductor*%
%ADD44C,2.000000*%
%TD*%
%TA.AperFunction,Conductor*%
%ADD45C,1.000000*%
%TD*%
%TA.AperFunction,Conductor*%
%ADD46C,0.690000*%
%TD*%
%TA.AperFunction,Conductor*%
%ADD47C,2.200000*%
%TD*%
G04 APERTURE END LIST*
%TO.C,kibuzzard-6323E44E*%
G36*
X90288018Y-101678972D02*
G01*
X123631982Y-101678972D01*
X123631982Y-120741028D01*
X90288018Y-120741028D01*
X90288018Y-113339537D01*
X91941663Y-113339537D01*
X92989570Y-119009180D01*
X94170420Y-119009180D01*
X94314959Y-118227161D01*
X95531134Y-118227161D01*
X95718819Y-118786305D01*
X95957335Y-118953461D01*
X96297513Y-119009180D01*
X97689508Y-119009180D01*
X98029687Y-118953461D01*
X98268203Y-118786305D01*
X98369264Y-118485227D01*
X98925099Y-118485227D01*
X99104964Y-118911428D01*
X99535075Y-119087382D01*
X99965186Y-118911428D01*
X100145050Y-118485227D01*
X99965186Y-118055116D01*
X99864462Y-118012995D01*
X99535075Y-117875252D01*
X99104964Y-118055116D01*
X98925099Y-118485227D01*
X98369264Y-118485227D01*
X98455888Y-118227161D01*
X98455888Y-114395264D01*
X100512599Y-114395264D01*
X100981811Y-114395264D01*
X100981811Y-117953454D01*
X100614262Y-117953454D01*
X100614262Y-119009180D01*
X102530210Y-119009180D01*
X102530210Y-117953454D01*
X102147021Y-117953454D01*
X102147021Y-113339537D01*
X100934890Y-113339537D01*
X100512599Y-114395264D01*
X98455888Y-114395264D01*
X98455888Y-114121557D01*
X98268203Y-113562413D01*
X98029687Y-113395256D01*
X97689508Y-113339537D01*
X96297513Y-113339537D01*
X95957335Y-113395256D01*
X95718819Y-113562413D01*
X95531134Y-114121557D01*
X95531134Y-118227161D01*
X94314959Y-118227161D01*
X95218326Y-113339537D01*
X94068757Y-113339537D01*
X93967095Y-114051175D01*
X93576085Y-116999390D01*
X93192895Y-114066816D01*
X93091232Y-113339537D01*
X91941663Y-113339537D01*
X90288018Y-113339537D01*
X90288018Y-109087305D01*
X92101587Y-109087305D01*
X94141524Y-109087305D01*
X94566180Y-109035712D01*
X94840024Y-108880930D01*
X94988852Y-108607087D01*
X95038462Y-108198305D01*
X95514712Y-108198305D01*
X95564321Y-108607087D01*
X95713149Y-108880930D01*
X95986993Y-109035712D01*
X96411649Y-109087305D01*
X97594337Y-109087305D01*
X98018993Y-109035712D01*
X98292837Y-108880930D01*
X98441665Y-108607087D01*
X98491274Y-108198305D01*
X98967524Y-108198305D01*
X99017133Y-108607087D01*
X99165962Y-108880930D01*
X99439805Y-109035712D01*
X99864462Y-109087305D01*
X101150337Y-109087305D01*
X101753587Y-109087305D01*
X102928337Y-109087305D01*
X102928337Y-106713993D01*
X103158524Y-106713993D01*
X103610962Y-109087305D01*
X104873024Y-109087305D01*
X106190649Y-109087305D01*
X108278212Y-109087305D01*
X108702868Y-109035712D01*
X108976712Y-108880930D01*
X109125540Y-108607087D01*
X109166479Y-108269743D01*
X109651399Y-108269743D01*
X109691087Y-108583274D01*
X109826024Y-108841243D01*
X110080024Y-109019837D01*
X110476899Y-109087305D01*
X111810399Y-109087305D01*
X112953399Y-109087305D01*
X114112274Y-109087305D01*
X114215462Y-108372930D01*
X115001274Y-108372930D01*
X115104462Y-109087305D01*
X116263337Y-109087305D01*
X116580837Y-109087305D01*
X117731774Y-109087305D01*
X117731774Y-107253743D01*
X117882587Y-107253743D01*
X118438212Y-109087305D01*
X119628837Y-109087305D01*
X120033649Y-109087305D01*
X122073587Y-109087305D01*
X122498243Y-109035712D01*
X122772087Y-108880930D01*
X122920915Y-108607087D01*
X122970524Y-108198305D01*
X122970524Y-104031118D01*
X122799868Y-103523118D01*
X122287899Y-103332618D01*
X120033649Y-103332618D01*
X120033649Y-109087305D01*
X119628837Y-109087305D01*
X119025587Y-107253743D01*
X119410555Y-107094993D01*
X119541524Y-106745743D01*
X119541524Y-104078743D01*
X119354993Y-103535024D01*
X119113891Y-103383219D01*
X118763649Y-103332618D01*
X116580837Y-103332618D01*
X116580837Y-109087305D01*
X116263337Y-109087305D01*
X115223524Y-103332618D01*
X113993212Y-103332618D01*
X112953399Y-109087305D01*
X111810399Y-109087305D01*
X112207274Y-109019837D01*
X112461274Y-108841243D01*
X112596212Y-108583274D01*
X112635899Y-108269743D01*
X112635899Y-104078743D01*
X112449368Y-103535024D01*
X112208266Y-103383219D01*
X111858024Y-103332618D01*
X110429274Y-103332618D01*
X110079032Y-103383219D01*
X109837930Y-103535024D01*
X109651399Y-104078743D01*
X109651399Y-108269743D01*
X109166479Y-108269743D01*
X109175149Y-108198305D01*
X109175149Y-106706055D01*
X109067993Y-106364743D01*
X108722712Y-106198055D01*
X109036243Y-105979774D01*
X109119587Y-105610680D01*
X109119587Y-104031118D01*
X108948930Y-103523118D01*
X108436962Y-103332618D01*
X106190649Y-103332618D01*
X106190649Y-109087305D01*
X104873024Y-109087305D01*
X104190399Y-105983743D01*
X104880962Y-103332618D01*
X103690337Y-103332618D01*
X103102962Y-105801180D01*
X102928337Y-105801180D01*
X102928337Y-103332618D01*
X101753587Y-103332618D01*
X101753587Y-109087305D01*
X101150337Y-109087305D01*
X101356712Y-108015743D01*
X100253399Y-108015743D01*
X100150212Y-107904618D01*
X100150212Y-104515305D01*
X100253399Y-104404180D01*
X101356712Y-104404180D01*
X101158274Y-103332618D01*
X99642212Y-103332618D01*
X99161993Y-103515180D01*
X98967524Y-104039055D01*
X98967524Y-108198305D01*
X98491274Y-108198305D01*
X98491274Y-103332618D01*
X97316524Y-103332618D01*
X97316524Y-107952243D01*
X97296680Y-108047493D01*
X97205399Y-108079243D01*
X96800587Y-108079243D01*
X96709305Y-108047493D01*
X96689462Y-107952243D01*
X96689462Y-103332618D01*
X95514712Y-103332618D01*
X95514712Y-108198305D01*
X95038462Y-108198305D01*
X95038462Y-104031118D01*
X94867805Y-103523118D01*
X94355837Y-103332618D01*
X92101587Y-103332618D01*
X92101587Y-109087305D01*
X90288018Y-109087305D01*
X90288018Y-101678972D01*
G37*
G36*
X111469087Y-104451805D02*
G01*
X111469087Y-107960180D01*
X111449243Y-108051462D01*
X111357962Y-108079243D01*
X110921399Y-108079243D01*
X110830118Y-108051462D01*
X110810274Y-107960180D01*
X110810274Y-104451805D01*
X110913462Y-104340680D01*
X111365899Y-104340680D01*
X111469087Y-104451805D01*
G37*
G36*
X121827524Y-104451805D02*
G01*
X121827524Y-107960180D01*
X121807680Y-108051462D01*
X121716399Y-108079243D01*
X121176649Y-108079243D01*
X121176649Y-104340680D01*
X121724337Y-104340680D01*
X121827524Y-104451805D01*
G37*
G36*
X93895462Y-104451805D02*
G01*
X93895462Y-107960180D01*
X93875618Y-108051462D01*
X93784337Y-108079243D01*
X93244587Y-108079243D01*
X93244587Y-104340680D01*
X93792274Y-104340680D01*
X93895462Y-104451805D01*
G37*
G36*
X97306319Y-114442185D02*
G01*
X97306319Y-117898712D01*
X97286768Y-117988645D01*
X97196836Y-118016015D01*
X96782365Y-118016015D01*
X96692433Y-117988645D01*
X96672883Y-117898712D01*
X96672883Y-114442185D01*
X96774545Y-114332702D01*
X97204656Y-114332702D01*
X97306319Y-114442185D01*
G37*
G36*
X114874274Y-107460118D02*
G01*
X114342462Y-107460118D01*
X114612337Y-105420180D01*
X114874274Y-107460118D01*
G37*
G36*
X118406462Y-104459743D02*
G01*
X118406462Y-106205993D01*
X118295337Y-106325055D01*
X117731774Y-106325055D01*
X117731774Y-104340680D01*
X118295337Y-104340680D01*
X118406462Y-104459743D01*
G37*
G36*
X108016274Y-104451805D02*
G01*
X108016274Y-105697993D01*
X107976587Y-105813087D01*
X107873399Y-105848805D01*
X107333649Y-105848805D01*
X107333649Y-104340680D01*
X107913087Y-104340680D01*
X108016274Y-104451805D01*
G37*
G36*
X107984524Y-106757649D02*
G01*
X108032149Y-106888618D01*
X108032149Y-107960180D01*
X108008337Y-108051462D01*
X107913087Y-108079243D01*
X107333649Y-108079243D01*
X107333649Y-106721930D01*
X107857524Y-106721930D01*
X107984524Y-106757649D01*
G37*
%TD*%
D10*
%TO.P,J7,20,Pin_20*%
%TO.N,unconnected-(J7-Pad20)*%
X78991800Y-103373499D03*
%TO.P,J7,19,Pin_19*%
%TO.N,unconnected-(J7-Pad19)*%
X76451800Y-103373499D03*
%TO.P,J7,18,Pin_18*%
%TO.N,unconnected-(J7-Pad18)*%
X73911800Y-103373499D03*
%TO.P,J7,17,Pin_17*%
%TO.N,unconnected-(J7-Pad17)*%
X71371800Y-103373499D03*
%TO.P,J7,16,Pin_16*%
%TO.N,unconnected-(J7-Pad16)*%
X68831800Y-103373499D03*
%TO.P,J7,15,Pin_15*%
%TO.N,unconnected-(J7-Pad15)*%
X66291800Y-103373499D03*
%TO.P,J7,14,Pin_14*%
%TO.N,unconnected-(J7-Pad14)*%
X63751800Y-103373499D03*
%TO.P,J7,13,Pin_13*%
%TO.N,unconnected-(J7-Pad13)*%
X61211800Y-103373499D03*
%TO.P,J7,12,Pin_12*%
%TO.N,GND*%
X58671800Y-103373499D03*
%TO.P,J7,11,Pin_11*%
%TO.N,/ESP-01/5V*%
X56131800Y-103373499D03*
%TO.P,J7,10,Pin_10*%
%TO.N,GND*%
X53591800Y-103373499D03*
%TO.P,J7,9,Pin_9*%
%TO.N,/ESP-01/3V3*%
X51051800Y-103373499D03*
%TO.P,J7,8,Pin_8*%
%TO.N,unconnected-(J7-Pad8)*%
X48511800Y-103373499D03*
%TO.P,J7,7,Pin_7*%
%TO.N,unconnected-(J7-Pad7)*%
X45971800Y-103373499D03*
%TO.P,J7,6,Pin_6*%
%TO.N,unconnected-(J7-Pad6)*%
X43431800Y-103373499D03*
%TO.P,J7,5,Pin_5*%
%TO.N,unconnected-(J7-Pad5)*%
X40891800Y-103373499D03*
%TO.P,J7,4,Pin_4*%
%TO.N,unconnected-(J7-Pad4)*%
X38351800Y-103373499D03*
%TO.P,J7,3,Pin_3*%
%TO.N,unconnected-(J7-Pad3)*%
X35811800Y-103373499D03*
%TO.P,J7,2,Pin_2*%
%TO.N,/ESP-01/FT232_TX*%
X33271800Y-103373499D03*
D11*
%TO.P,J7,1,Pin_1*%
%TO.N,/ESP-01/FT232_RX*%
X30731800Y-103373499D03*
%TD*%
D10*
%TO.P,J4,20,Pin_20*%
%TO.N,/ESP-01/P15_ESP-RX*%
X78991800Y-118613499D03*
%TO.P,J4,19,Pin_19*%
%TO.N,/ESP-01/P14_ESP-TX*%
X76451800Y-118613499D03*
%TO.P,J4,18,Pin_18*%
%TO.N,unconnected-(J4-Pad18)*%
X73911800Y-118613499D03*
%TO.P,J4,17,Pin_17*%
%TO.N,unconnected-(J4-Pad17)*%
X71371800Y-118613499D03*
%TO.P,J4,16,Pin_16*%
%TO.N,unconnected-(J4-Pad16)*%
X68831800Y-118613499D03*
%TO.P,J4,15,Pin_15*%
%TO.N,unconnected-(J4-Pad15)*%
X66291800Y-118613499D03*
%TO.P,J4,14,Pin_14*%
%TO.N,unconnected-(J4-Pad14)*%
X63751800Y-118613499D03*
%TO.P,J4,13,Pin_13*%
%TO.N,unconnected-(J4-Pad13)*%
X61211800Y-118613499D03*
%TO.P,J4,12,Pin_12*%
%TO.N,unconnected-(J4-Pad12)*%
X58671800Y-118613499D03*
%TO.P,J4,11,Pin_11*%
%TO.N,/ESP-01/Reset*%
X56131800Y-118613499D03*
%TO.P,J4,10,Pin_10*%
%TO.N,/ESP-01/3V3*%
X53591800Y-118613499D03*
%TO.P,J4,9,Pin_9*%
%TO.N,GND*%
X51051800Y-118613499D03*
%TO.P,J4,8,Pin_8*%
%TO.N,unconnected-(J4-Pad8)*%
X48511800Y-118613499D03*
%TO.P,J4,7,Pin_7*%
%TO.N,unconnected-(J4-Pad7)*%
X45971800Y-118613499D03*
%TO.P,J4,6,Pin_6*%
%TO.N,unconnected-(J4-Pad6)*%
X43431800Y-118613499D03*
%TO.P,J4,5,Pin_5*%
%TO.N,unconnected-(J4-Pad5)*%
X40891800Y-118613499D03*
%TO.P,J4,4,Pin_4*%
%TO.N,unconnected-(J4-Pad4)*%
X38351800Y-118613499D03*
%TO.P,J4,3,Pin_3*%
%TO.N,unconnected-(J4-Pad3)*%
X35811800Y-118613499D03*
%TO.P,J4,2,Pin_2*%
%TO.N,unconnected-(J4-Pad2)*%
X33271800Y-118613499D03*
D11*
%TO.P,J4,1,Pin_1*%
%TO.N,unconnected-(J4-Pad1)*%
X30731800Y-118613499D03*
%TD*%
D10*
%TO.P,J3,20,Pin_20*%
%TO.N,/Propeller/P15_ESP-RX*%
X78661200Y-98044099D03*
%TO.P,J3,19,Pin_19*%
%TO.N,/Propeller/P14_ESP-TX*%
X76121200Y-98044099D03*
%TO.P,J3,18,Pin_18*%
%TO.N,/Propeller/P13*%
X73581200Y-98044099D03*
%TO.P,J3,17,Pin_17*%
%TO.N,/Propeller/P12*%
X71041200Y-98044099D03*
%TO.P,J3,16,Pin_16*%
%TO.N,/Propeller/P11*%
X68501200Y-98044099D03*
%TO.P,J3,15,Pin_15*%
%TO.N,/Propeller/P10*%
X65961200Y-98044099D03*
%TO.P,J3,14,Pin_14*%
%TO.N,/Propeller/P9*%
X63421200Y-98044099D03*
%TO.P,J3,13,Pin_13*%
%TO.N,/Propeller/P8*%
X60881200Y-98044099D03*
%TO.P,J3,12,Pin_12*%
%TO.N,/Propeller/7-12V*%
X58341200Y-98044099D03*
%TO.P,J3,11,Pin_11*%
%TO.N,/Propeller/Reset*%
X55801200Y-98044099D03*
%TO.P,J3,10,Pin_10*%
%TO.N,/Propeller/3V3*%
X53261200Y-98044099D03*
%TO.P,J3,9,Pin_9*%
%TO.N,GND*%
X50721200Y-98044099D03*
%TO.P,J3,8,Pin_8*%
%TO.N,/Propeller/P7*%
X48181200Y-98044099D03*
%TO.P,J3,7,Pin_7*%
%TO.N,/Propeller/P6*%
X45641200Y-98044099D03*
%TO.P,J3,6,Pin_6*%
%TO.N,/Propeller/P5*%
X43101200Y-98044099D03*
%TO.P,J3,5,Pin_5*%
%TO.N,/Propeller/P4*%
X40561200Y-98044099D03*
%TO.P,J3,4,Pin_4*%
%TO.N,/Propeller/P3*%
X38021200Y-98044099D03*
%TO.P,J3,3,Pin_3*%
%TO.N,/Propeller/P2*%
X35481200Y-98044099D03*
%TO.P,J3,2,Pin_2*%
%TO.N,/Propeller/P1*%
X32941200Y-98044099D03*
D11*
%TO.P,J3,1,Pin_1*%
%TO.N,/Propeller/P0*%
X30401200Y-98044099D03*
%TD*%
D12*
%TO.P,SW2,2,2*%
%TO.N,GND*%
X46225600Y-106344299D03*
%TO.P,SW2,1,1*%
%TO.N,/ESP-01/P15_ESP-RX*%
X46225600Y-114144299D03*
%TD*%
D13*
%TO.P,D4,1,K*%
%TO.N,Net-(D4-Pad1)*%
X41117400Y-91570899D03*
%TO.P,D4,2,A*%
%TO.N,Net-(D4-Pad2)*%
X41117400Y-93620899D03*
%TD*%
D14*
%TO.P,C6,1*%
%TO.N,/Propeller/3V3*%
X74471200Y-85416599D03*
%TO.P,C6,2*%
%TO.N,GND*%
X74471200Y-87491599D03*
%TD*%
%TO.P,C1,1*%
%TO.N,/Propeller/3V3*%
X66161200Y-87176599D03*
%TO.P,C1,2*%
%TO.N,GND*%
X66161200Y-89251599D03*
%TD*%
D10*
%TO.P,JP4,2,B*%
%TO.N,/ESP-01/ESP_TX*%
X33241200Y-111133299D03*
D11*
%TO.P,JP4,1,A*%
%TO.N,/ESP-01/FT232_RX*%
X30701200Y-111133299D03*
%TD*%
D10*
%TO.P,JP3,2,B*%
%TO.N,/ESP-01/ESP_RX*%
X33241200Y-114818099D03*
D11*
%TO.P,JP3,1,A*%
%TO.N,/ESP-01/FT232_TX*%
X30701200Y-114818099D03*
%TD*%
D15*
%TO.P,R6,2*%
%TO.N,Net-(J2-Pad6)*%
X49400600Y-108196299D03*
%TO.P,R6,1*%
%TO.N,/ESP-01/3V3*%
X49400600Y-106196299D03*
%TD*%
D16*
%TO.P,C11,2*%
%TO.N,GND*%
X62151400Y-108165399D03*
%TO.P,C11,1*%
%TO.N,/ESP-01/3V3*%
X62151400Y-110240399D03*
%TD*%
D11*
%TO.P,JP2,1,A*%
%TO.N,/Propeller/FT232_RX*%
X44211200Y-88430299D03*
D10*
%TO.P,JP2,2,B*%
%TO.N,/Propeller/P30_TX*%
X46751200Y-88430299D03*
%TD*%
D11*
%TO.P,JP1,1,A*%
%TO.N,/Propeller/FT232_TX*%
X44216200Y-92087899D03*
D10*
%TO.P,JP1,2,B*%
%TO.N,/Propeller/P31_RX*%
X46756200Y-92087899D03*
%TD*%
D17*
%TO.P,U1,1,P4*%
%TO.N,/Propeller/P4*%
X53374600Y-95845699D03*
%TO.P,U1,2,P5*%
%TO.N,/Propeller/P5*%
X54174600Y-95845699D03*
%TO.P,U1,3,P6*%
%TO.N,/Propeller/P6*%
X54974600Y-95845699D03*
%TO.P,U1,4,P7*%
%TO.N,/Propeller/P7*%
X55774600Y-95845699D03*
%TO.P,U1,5,VSS*%
%TO.N,GND*%
X56574600Y-95845699D03*
%TO.P,U1,6,~{BOE}*%
X57374600Y-95845699D03*
%TO.P,U1,7,~{RES}*%
%TO.N,/Propeller/Reset*%
X58174600Y-95845699D03*
%TO.P,U1,8,VDD*%
%TO.N,/Propeller/3V3*%
X58974600Y-95845699D03*
%TO.P,U1,9,P8*%
%TO.N,/Propeller/P8*%
X59774600Y-95845699D03*
%TO.P,U1,10,P9*%
%TO.N,/Propeller/P9*%
X60574600Y-95845699D03*
%TO.P,U1,11,P10*%
%TO.N,/Propeller/P10*%
X61374600Y-95845699D03*
D18*
%TO.P,U1,12,P11*%
%TO.N,/Propeller/P11*%
X63037100Y-94424099D03*
%TO.P,U1,13,P12*%
%TO.N,/Propeller/P12*%
X63037100Y-93624099D03*
%TO.P,U1,14,P13*%
%TO.N,/Propeller/P13*%
X63037100Y-92824099D03*
%TO.P,U1,15,P14*%
%TO.N,/Propeller/P14_ESP-TX*%
X63037100Y-92024099D03*
%TO.P,U1,16,P15*%
%TO.N,/Propeller/P15_ESP-RX*%
X63037100Y-91224099D03*
%TO.P,U1,17,VSS*%
%TO.N,GND*%
X63037100Y-90424099D03*
%TO.P,U1,18,VDD*%
%TO.N,/Propeller/3V3*%
X63037100Y-89624099D03*
%TO.P,U1,19,P16*%
%TO.N,/Propeller/P16*%
X63037100Y-88824099D03*
%TO.P,U1,20,P17*%
%TO.N,/Propeller/P17*%
X63037100Y-88024099D03*
%TO.P,U1,21,P18*%
%TO.N,/Propeller/P18*%
X63037100Y-87224099D03*
%TO.P,U1,22,P19*%
%TO.N,/Propeller/P19*%
X63037100Y-86424099D03*
D17*
%TO.P,U1,23,P20*%
%TO.N,/Propeller/P20*%
X61374600Y-85002499D03*
%TO.P,U1,24,P21*%
%TO.N,/Propeller/P21*%
X60574600Y-85002499D03*
%TO.P,U1,25,P22*%
%TO.N,/Propeller/P22*%
X59774600Y-85002499D03*
%TO.P,U1,26,P23*%
%TO.N,/Propeller/P23*%
X58974600Y-85002499D03*
%TO.P,U1,27,VSS*%
%TO.N,GND*%
X58174600Y-85002499D03*
%TO.P,U1,28,XI*%
%TO.N,Net-(U1-Pad28)*%
X57374600Y-85002499D03*
%TO.P,U1,29,XO*%
%TO.N,Net-(U1-Pad29)*%
X56574600Y-85002499D03*
%TO.P,U1,30,VDD*%
%TO.N,/Propeller/3V3*%
X55774600Y-85002499D03*
%TO.P,U1,31,P24*%
%TO.N,/Propeller/P24*%
X54974600Y-85002499D03*
%TO.P,U1,32,P25*%
%TO.N,/Propeller/P25*%
X54174600Y-85002499D03*
%TO.P,U1,33,P26*%
%TO.N,/Propeller/P26*%
X53374600Y-85002499D03*
D18*
%TO.P,U1,34,P27*%
%TO.N,/Propeller/P27*%
X51712100Y-86424099D03*
%TO.P,U1,35,P28*%
%TO.N,/Propeller/P28_SCL*%
X51712100Y-87224099D03*
%TO.P,U1,36,P29*%
%TO.N,/Propeller/P29_SDA*%
X51712100Y-88024099D03*
%TO.P,U1,37,P30*%
%TO.N,/Propeller/P30_TX*%
X51712100Y-88824099D03*
%TO.P,U1,38,P31*%
%TO.N,/Propeller/P31_RX*%
X51712100Y-89624099D03*
%TO.P,U1,39,VSS*%
%TO.N,GND*%
X51712100Y-90424099D03*
%TO.P,U1,40,VDD*%
%TO.N,/Propeller/3V3*%
X51712100Y-91224099D03*
%TO.P,U1,41,P0*%
%TO.N,/Propeller/P0*%
X51712100Y-92024099D03*
%TO.P,U1,42,P1*%
%TO.N,/Propeller/P1*%
X51712100Y-92824099D03*
%TO.P,U1,43,P2*%
%TO.N,/Propeller/P2*%
X51712100Y-93624099D03*
%TO.P,U1,44,P3*%
%TO.N,/Propeller/P3*%
X51712100Y-94424099D03*
%TD*%
D11*
%TO.P,J5,1,Pin_1*%
%TO.N,GND*%
X82412000Y-95333699D03*
D10*
%TO.P,J5,2,Pin_2*%
%TO.N,/Propeller/Reset*%
X82412000Y-92793699D03*
%TO.P,J5,3,Pin_3*%
%TO.N,/Propeller/P31_RX*%
X82412000Y-90253699D03*
%TO.P,J5,4,Pin_4*%
%TO.N,/Propeller/P30_TX*%
X82412000Y-87713699D03*
%TO.P,J5,5,Pin_5*%
%TO.N,/Propeller/3V3*%
X82412000Y-85173699D03*
%TD*%
D19*
%TO.P,R10,1*%
%TO.N,Net-(D4-Pad2)*%
X39110800Y-93579899D03*
%TO.P,R10,2*%
%TO.N,/Propeller/3V3*%
X39110800Y-91579899D03*
%TD*%
D14*
%TO.P,C12,2*%
%TO.N,GND*%
X62151400Y-114075799D03*
%TO.P,C12,1*%
%TO.N,/ESP-01/3V3*%
X62151400Y-112000799D03*
%TD*%
D12*
%TO.P,SW1,1,1*%
%TO.N,GND*%
X77566400Y-94463899D03*
%TO.P,SW1,2,2*%
%TO.N,/Propeller/Reset*%
X77566400Y-86663899D03*
%TD*%
D10*
%TO.P,J2,8,Pin_8*%
%TO.N,/ESP-01/3V3*%
X56761200Y-114775499D03*
%TO.P,J2,7,Pin_7*%
%TO.N,/ESP-01/ESP_RX*%
X59301200Y-114775499D03*
%TO.P,J2,6,Pin_6*%
%TO.N,Net-(J2-Pad6)*%
X56761200Y-112235499D03*
%TO.P,J2,5,Pin_5*%
%TO.N,/ESP-01/P15_ESP-RX*%
X59301200Y-112235499D03*
%TO.P,J2,4,Pin_4*%
%TO.N,/ESP-01/3V3*%
X56761200Y-109695499D03*
%TO.P,J2,3,Pin_3*%
%TO.N,/ESP-01/P14_ESP-TX*%
X59301200Y-109695499D03*
%TO.P,J2,2,Pin_2*%
%TO.N,/ESP-01/ESP_TX*%
X56761200Y-107155499D03*
D11*
%TO.P,J2,1,Pin_1*%
%TO.N,GND*%
X59301200Y-107155499D03*
%TD*%
D10*
%TO.P,J8,5,Pin_5*%
%TO.N,/ESP-01/3V3*%
X82775800Y-116192499D03*
%TO.P,J8,4,Pin_4*%
%TO.N,/ESP-01/ESP_TX*%
X82775800Y-113652499D03*
%TO.P,J8,3,Pin_3*%
%TO.N,/ESP-01/ESP_RX*%
X82775800Y-111112499D03*
%TO.P,J8,2,Pin_2*%
%TO.N,unconnected-(J8-Pad2)*%
X82775800Y-108572499D03*
D11*
%TO.P,J8,1,Pin_1*%
%TO.N,GND*%
X82775800Y-106032499D03*
%TD*%
D20*
%TO.P,D3,1,K*%
%TO.N,Net-(D3-Pad1)*%
X41117400Y-88998099D03*
%TO.P,D3,2,A*%
%TO.N,Net-(D3-Pad2)*%
X41117400Y-86948099D03*
%TD*%
D15*
%TO.P,R5,2*%
%TO.N,/ESP-01/P15_ESP-RX*%
X49375200Y-114292299D03*
%TO.P,R5,1*%
%TO.N,/ESP-01/3V3*%
X49375200Y-112292299D03*
%TD*%
%TO.P,R9,1*%
%TO.N,Net-(D3-Pad2)*%
X39110800Y-87007899D03*
%TO.P,R9,2*%
%TO.N,/Propeller/3V3*%
X39110800Y-89007899D03*
%TD*%
D12*
%TO.P,SW3,2,2*%
%TO.N,GND*%
X42060000Y-106344299D03*
%TO.P,SW3,1,1*%
%TO.N,Net-(J2-Pad6)*%
X42060000Y-114144299D03*
%TD*%
D11*
%TO.P,J6,1,Pin_1*%
%TO.N,/Propeller/FT232_RX*%
X30401200Y-82804099D03*
D10*
%TO.P,J6,2,Pin_2*%
%TO.N,/Propeller/FT232_TX*%
X32941200Y-82804099D03*
%TO.P,J6,3,Pin_3*%
%TO.N,/Propeller/P29_SDA*%
X35481200Y-82804099D03*
%TO.P,J6,4,Pin_4*%
%TO.N,/Propeller/P28_SCL*%
X38021200Y-82804099D03*
%TO.P,J6,5,Pin_5*%
%TO.N,/Propeller/P27*%
X40561200Y-82804099D03*
%TO.P,J6,6,Pin_6*%
%TO.N,/Propeller/P26*%
X43101200Y-82804099D03*
%TO.P,J6,7,Pin_7*%
%TO.N,/Propeller/P25*%
X45641200Y-82804099D03*
%TO.P,J6,8,Pin_8*%
%TO.N,/Propeller/P24*%
X48181200Y-82804099D03*
%TO.P,J6,9,Pin_9*%
%TO.N,/Propeller/3V3*%
X50721200Y-82804099D03*
%TO.P,J6,10,Pin_10*%
%TO.N,GND*%
X53261200Y-82804099D03*
%TO.P,J6,11,Pin_11*%
%TO.N,/Propeller/5V*%
X55801200Y-82804099D03*
%TO.P,J6,12,Pin_12*%
%TO.N,GND*%
X58341200Y-82804099D03*
%TO.P,J6,13,Pin_13*%
%TO.N,/Propeller/P23*%
X60881200Y-82804099D03*
%TO.P,J6,14,Pin_14*%
%TO.N,/Propeller/P22*%
X63421200Y-82804099D03*
%TO.P,J6,15,Pin_15*%
%TO.N,/Propeller/P21*%
X65961200Y-82804099D03*
%TO.P,J6,16,Pin_16*%
%TO.N,/Propeller/P20*%
X68501200Y-82804099D03*
%TO.P,J6,17,Pin_17*%
%TO.N,/Propeller/P19*%
X71041200Y-82804099D03*
%TO.P,J6,18,Pin_18*%
%TO.N,/Propeller/P18*%
X73581200Y-82804099D03*
%TO.P,J6,19,Pin_19*%
%TO.N,/Propeller/P17*%
X76121200Y-82804099D03*
%TO.P,J6,20,Pin_20*%
%TO.N,/Propeller/P16*%
X78661200Y-82804099D03*
%TD*%
D12*
%TO.P,SW4,2,2*%
%TO.N,/ESP-01/Reset*%
X52524800Y-114144299D03*
%TO.P,SW4,1,1*%
%TO.N,GND*%
X52524800Y-106344299D03*
%TD*%
D14*
%TO.P,C8,1*%
%TO.N,/Propeller/3V3*%
X68181200Y-87176599D03*
%TO.P,C8,2*%
%TO.N,GND*%
X68181200Y-89251599D03*
%TD*%
D21*
%TO.P,J1,1,VBUS*%
%TO.N,Net-(D1-Pad2)*%
X36097400Y-88553899D03*
%TO.P,J1,2,D-*%
%TO.N,Net-(J1-Pad2)*%
X36097400Y-89353899D03*
%TO.P,J1,3,D+*%
%TO.N,Net-(J1-Pad3)*%
X36097400Y-90153899D03*
%TO.P,J1,4,ID*%
%TO.N,unconnected-(J1-Pad4)*%
X36097400Y-90953899D03*
%TO.P,J1,5,GND*%
%TO.N,GND*%
X36097400Y-91753899D03*
D22*
%TO.P,J1,6,Shield*%
X36097400Y-85753899D03*
X36097400Y-94553899D03*
X30597400Y-94553899D03*
X30597400Y-85753899D03*
%TD*%
D23*
%TO.P,U4,1,GND*%
%TO.N,GND*%
X60760000Y-33980000D03*
D24*
%TO.P,U4,2,VO*%
%TO.N,3.3V*%
X67060000Y-36260000D03*
D23*
%TO.P,U4,3,VI*%
%TO.N,Net-(C9-Pad1)*%
X60760000Y-38540000D03*
%TD*%
D25*
%TO.P,C5,1*%
%TO.N,/Carte Mere/9V*%
X43747500Y-37760000D03*
%TO.P,C5,2*%
%TO.N,GND*%
X41672500Y-37760000D03*
%TD*%
D11*
%TO.P,J3,1,Pin_1*%
%TO.N,Net-(C4-Pad1)*%
X26710000Y-32985000D03*
D10*
%TO.P,J3,2,Pin_2*%
%TO.N,Net-(C3-Pad1)*%
X26710000Y-35525000D03*
%TD*%
D26*
%TO.P,U7,A*%
%TO.N,Net-(R5-Pad2)*%
X38430000Y-69600000D03*
%TO.P,U7,CATH*%
%TO.N,GND*%
X40970000Y-69600000D03*
%TO.P,U7,COLL*%
%TO.N,/Capteur/A2*%
X38430000Y-75100000D03*
%TO.P,U7,E*%
%TO.N,GND*%
X40970000Y-75100000D03*
%TD*%
D27*
%TO.P,RV4,1,1*%
%TO.N,3.3V*%
X55460000Y-71660000D03*
%TO.P,RV4,2,2*%
X57960000Y-74160000D03*
%TO.P,RV4,3,3*%
%TO.N,/Capteur/A3*%
X55460000Y-76660000D03*
%TD*%
D11*
%TO.P,J7,1,Pin_1*%
%TO.N,3.3V*%
X29830000Y-57740000D03*
D10*
%TO.P,J7,2,Pin_2*%
%TO.N,GND*%
X29830000Y-60280000D03*
%TO.P,J7,3,Pin_3*%
%TO.N,/Capteur/A0*%
X29830000Y-62820000D03*
%TD*%
D28*
%TO.P,R3,1*%
%TO.N,3.3V*%
X32210000Y-56380000D03*
%TO.P,R3,2*%
%TO.N,Net-(R3-Pad2)*%
X34210000Y-56380000D03*
%TD*%
%TO.P,R5,1*%
%TO.N,3.3V*%
X32210000Y-69540000D03*
%TO.P,R5,2*%
%TO.N,Net-(R5-Pad2)*%
X34210000Y-69540000D03*
%TD*%
D11*
%TO.P,J9,1,Pin_1*%
%TO.N,Net-(J9-Pad1)*%
X71290000Y-48500000D03*
D10*
%TO.P,J9,2,Pin_2*%
%TO.N,GND*%
X73830000Y-48500000D03*
%TO.P,J9,3,Pin_3*%
%TO.N,P8*%
X76370000Y-48500000D03*
%TD*%
D11*
%TO.P,J15,1,Pin_1*%
%TO.N,/Carte Mere/P0*%
X28700000Y-45090000D03*
D10*
%TO.P,J15,2,Pin_2*%
%TO.N,/Carte Mere/P1*%
X31240000Y-45090000D03*
%TO.P,J15,3,Pin_3*%
%TO.N,/Carte Mere/P2*%
X33780000Y-45090000D03*
%TO.P,J15,4,Pin_4*%
%TO.N,/Carte Mere/P3*%
X36320000Y-45090000D03*
%TO.P,J15,5,Pin_5*%
%TO.N,/Carte Mere/P4*%
X38860000Y-45090000D03*
%TO.P,J15,6,Pin_6*%
%TO.N,/Carte Mere/P5*%
X41400000Y-45090000D03*
%TO.P,J15,7,Pin_7*%
%TO.N,/Carte Mere/P6*%
X43940000Y-45090000D03*
%TO.P,J15,8,Pin_8*%
%TO.N,/Carte Mere/P7*%
X46480000Y-45090000D03*
%TO.P,J15,9,Pin_9*%
%TO.N,GND*%
X49020000Y-45090000D03*
%TO.P,J15,10,Pin_10*%
%TO.N,3.3V*%
X51560000Y-45090000D03*
%TO.P,J15,11,Pin_11*%
%TO.N,/Carte Mere/RESET*%
X54100000Y-45090000D03*
%TO.P,J15,12,Pin_12*%
%TO.N,unconnected-(J15-Pad12)*%
X56640000Y-45090000D03*
%TO.P,J15,13,Pin_13*%
%TO.N,P8*%
X59180000Y-45090000D03*
%TO.P,J15,14,Pin_14*%
%TO.N,/Carte Mere/P9*%
X61720000Y-45090000D03*
%TO.P,J15,15,Pin_15*%
%TO.N,/Carte Mere/P10*%
X64260000Y-45090000D03*
%TO.P,J15,16,Pin_16*%
%TO.N,/Carte Mere/P11*%
X66800000Y-45090000D03*
%TO.P,J15,17,Pin_17*%
%TO.N,/Carte Mere/P12*%
X69340000Y-45090000D03*
%TO.P,J15,18,Pin_18*%
%TO.N,/Carte Mere/P13*%
X71880000Y-45090000D03*
%TO.P,J15,19,Pin_19*%
%TO.N,/Carte Mere/P14*%
X74420000Y-45090000D03*
%TO.P,J15,20,Pin_20*%
%TO.N,/Carte Mere/P15*%
X76960000Y-45090000D03*
%TD*%
D11*
%TO.P,J17,1,Pin_1*%
%TO.N,3.3V*%
X59185000Y-48470000D03*
D10*
%TO.P,J17,2,Pin_2*%
%TO.N,GND*%
X61725000Y-48470000D03*
%TO.P,J17,3,Pin_3*%
%TO.N,/Carte Mere/P7*%
X64265000Y-48470000D03*
%TD*%
D11*
%TO.P,J10,1,Pin_1*%
%TO.N,3.3V*%
X29830000Y-70900000D03*
D10*
%TO.P,J10,2,Pin_2*%
%TO.N,GND*%
X29830000Y-73440000D03*
%TO.P,J10,3,Pin_3*%
%TO.N,/Capteur/A2*%
X29830000Y-75980000D03*
%TD*%
D26*
%TO.P,U6,A*%
%TO.N,Net-(R4-Pad2)*%
X61450000Y-56460000D03*
%TO.P,U6,CATH*%
%TO.N,GND*%
X63990000Y-56460000D03*
%TO.P,U6,COLL*%
%TO.N,/Capteur/A1*%
X61450000Y-61960000D03*
%TO.P,U6,E*%
%TO.N,GND*%
X63990000Y-61960000D03*
%TD*%
D27*
%TO.P,RV1,1,1*%
%TO.N,3.3V*%
X32470000Y-58490000D03*
%TO.P,RV1,2,2*%
X34970000Y-60990000D03*
%TO.P,RV1,3,3*%
%TO.N,/Capteur/A0*%
X32470000Y-63490000D03*
%TD*%
D11*
%TO.P,J6,1,Pin_1*%
%TO.N,/Carte Mere/P0*%
X28710000Y-42000000D03*
D10*
%TO.P,J6,2,Pin_2*%
%TO.N,/Carte Mere/P1*%
X31250000Y-42000000D03*
%TO.P,J6,3,Pin_3*%
%TO.N,/Carte Mere/P2*%
X33790000Y-42000000D03*
%TO.P,J6,4,Pin_4*%
%TO.N,/Carte Mere/P3*%
X36330000Y-42000000D03*
%TO.P,J6,5,Pin_5*%
%TO.N,/Carte Mere/P4*%
X38870000Y-42000000D03*
%TO.P,J6,6,Pin_6*%
%TO.N,/Carte Mere/P5*%
X41410000Y-42000000D03*
%TO.P,J6,7,Pin_7*%
%TO.N,/Carte Mere/P6*%
X43950000Y-42000000D03*
%TO.P,J6,8,Pin_8*%
%TO.N,/Carte Mere/P7*%
X46490000Y-42000000D03*
%TO.P,J6,9,Pin_9*%
%TO.N,GND*%
X49030000Y-42000000D03*
%TO.P,J6,10,Pin_10*%
%TO.N,3.3V*%
X51570000Y-42000000D03*
%TO.P,J6,11,Pin_11*%
%TO.N,/Carte Mere/RESET*%
X54110000Y-42000000D03*
%TO.P,J6,12,Pin_12*%
%TO.N,unconnected-(J6-Pad12)*%
X56650000Y-42000000D03*
%TO.P,J6,13,Pin_13*%
%TO.N,P8*%
X59190000Y-42000000D03*
%TO.P,J6,14,Pin_14*%
%TO.N,/Carte Mere/P9*%
X61730000Y-42000000D03*
%TO.P,J6,15,Pin_15*%
%TO.N,/Carte Mere/P10*%
X64270000Y-42000000D03*
%TO.P,J6,16,Pin_16*%
%TO.N,/Carte Mere/P11*%
X66810000Y-42000000D03*
%TO.P,J6,17,Pin_17*%
%TO.N,/Carte Mere/P12*%
X69350000Y-42000000D03*
%TO.P,J6,18,Pin_18*%
%TO.N,/Carte Mere/P13*%
X71890000Y-42000000D03*
%TO.P,J6,19,Pin_19*%
%TO.N,/Carte Mere/P14*%
X74430000Y-42000000D03*
%TO.P,J6,20,Pin_20*%
%TO.N,/Carte Mere/P15*%
X76970000Y-42000000D03*
%TD*%
D26*
%TO.P,U5,A*%
%TO.N,Net-(R3-Pad2)*%
X38430000Y-56440000D03*
%TO.P,U5,CATH*%
%TO.N,GND*%
X40970000Y-56440000D03*
%TO.P,U5,COLL*%
%TO.N,/Capteur/A0*%
X38430000Y-61940000D03*
%TO.P,U5,E*%
%TO.N,GND*%
X40970000Y-61940000D03*
%TD*%
%TO.P,U8,A*%
%TO.N,Net-(R6-Pad2)*%
X61420000Y-69610000D03*
%TO.P,U8,CATH*%
%TO.N,GND*%
X63960000Y-69610000D03*
%TO.P,U8,COLL*%
%TO.N,/Capteur/A3*%
X61420000Y-75110000D03*
%TO.P,U8,E*%
%TO.N,GND*%
X63960000Y-75110000D03*
%TD*%
D27*
%TO.P,RV2,1,1*%
%TO.N,3.3V*%
X55490000Y-58510000D03*
%TO.P,RV2,2,2*%
X57990000Y-61010000D03*
%TO.P,RV2,3,3*%
%TO.N,/Capteur/A1*%
X55490000Y-63510000D03*
%TD*%
D28*
%TO.P,R4,1*%
%TO.N,3.3V*%
X55230000Y-56400000D03*
%TO.P,R4,2*%
%TO.N,Net-(R4-Pad2)*%
X57230000Y-56400000D03*
%TD*%
D11*
%TO.P,JP1,1,A*%
%TO.N,/Carte Mere/5V*%
X53860000Y-30510000D03*
D10*
%TO.P,JP1,2,C*%
%TO.N,Net-(C9-Pad1)*%
X56400000Y-30510000D03*
%TO.P,JP1,3,B*%
%TO.N,/Carte Mere/9V*%
X58940000Y-30510000D03*
%TD*%
D11*
%TO.P,J12,1,Pin_1*%
%TO.N,3.3V*%
X28700000Y-48480000D03*
D10*
%TO.P,J12,2,Pin_2*%
%TO.N,GND*%
X31240000Y-48480000D03*
%TO.P,J12,3,Pin_3*%
%TO.N,/Carte Mere/P4*%
X33780000Y-48480000D03*
%TD*%
D11*
%TO.P,J5,1,Pin_1*%
%TO.N,/Carte Mere/P31_RX*%
X28710000Y-26785400D03*
D10*
%TO.P,J5,2,Pin_2*%
%TO.N,/Carte Mere/P30_TX*%
X31250000Y-26785400D03*
%TO.P,J5,3,Pin_3*%
%TO.N,/Carte Mere/P29_SDA*%
X33790000Y-26785400D03*
%TO.P,J5,4,Pin_4*%
%TO.N,/Carte Mere/P28_SCL*%
X36330000Y-26785400D03*
%TO.P,J5,5,Pin_5*%
%TO.N,/Carte Mere/P27*%
X38870000Y-26785400D03*
%TO.P,J5,6,Pin_6*%
%TO.N,/Carte Mere/P26*%
X41410000Y-26785400D03*
%TO.P,J5,7,Pin_7*%
%TO.N,/Carte Mere/P25*%
X43950000Y-26785400D03*
%TO.P,J5,8,Pin_8*%
%TO.N,/Carte Mere/P24*%
X46490000Y-26785400D03*
%TO.P,J5,9,Pin_9*%
%TO.N,3.3V*%
X49030000Y-26785400D03*
%TO.P,J5,10,Pin_10*%
%TO.N,GND*%
X51570000Y-26785400D03*
%TO.P,J5,11,Pin_11*%
%TO.N,/Carte Mere/5V*%
X54110000Y-26785400D03*
%TO.P,J5,12,Pin_12*%
%TO.N,GND*%
X56650000Y-26785400D03*
%TO.P,J5,13,Pin_13*%
%TO.N,/Carte Mere/P23*%
X59190000Y-26785400D03*
%TO.P,J5,14,Pin_14*%
%TO.N,/Carte Mere/P22*%
X61730000Y-26785400D03*
%TO.P,J5,15,Pin_15*%
%TO.N,/Carte Mere/P21*%
X64270000Y-26785400D03*
%TO.P,J5,16,Pin_16*%
%TO.N,/Carte Mere/P20*%
X66810000Y-26785400D03*
%TO.P,J5,17,Pin_17*%
%TO.N,/Carte Mere/P19*%
X69350000Y-26785400D03*
%TO.P,J5,18,Pin_18*%
%TO.N,/Carte Mere/P18*%
X71890000Y-26785400D03*
%TO.P,J5,19,Pin_19*%
%TO.N,/Carte Mere/P17*%
X74430000Y-26785400D03*
%TO.P,J5,20,Pin_20*%
%TO.N,/Carte Mere/P16*%
X76970000Y-26785400D03*
%TD*%
D25*
%TO.P,C9,1*%
%TO.N,Net-(C9-Pad1)*%
X57460000Y-38510000D03*
%TO.P,C9,2*%
%TO.N,GND*%
X55385000Y-38510000D03*
%TD*%
D11*
%TO.P,J4,1,Pin_1*%
%TO.N,Net-(C11-Pad1)*%
X84210000Y-33010000D03*
D10*
%TO.P,J4,2,Pin_2*%
%TO.N,Net-(C10-Pad1)*%
X84210000Y-35550000D03*
%TD*%
D11*
%TO.P,J14,1,Pin_1*%
%TO.N,/Carte Mere/P31_RX*%
X28710000Y-23680000D03*
D10*
%TO.P,J14,2,Pin_2*%
%TO.N,/Carte Mere/P30_TX*%
X31250000Y-23680000D03*
%TO.P,J14,3,Pin_3*%
%TO.N,/Carte Mere/P29_SDA*%
X33790000Y-23680000D03*
%TO.P,J14,4,Pin_4*%
%TO.N,/Carte Mere/P28_SCL*%
X36330000Y-23680000D03*
%TO.P,J14,5,Pin_5*%
%TO.N,/Carte Mere/P27*%
X38870000Y-23680000D03*
%TO.P,J14,6,Pin_6*%
%TO.N,/Carte Mere/P26*%
X41410000Y-23680000D03*
%TO.P,J14,7,Pin_7*%
%TO.N,/Carte Mere/P25*%
X43950000Y-23680000D03*
%TO.P,J14,8,Pin_8*%
%TO.N,/Carte Mere/P24*%
X46490000Y-23680000D03*
%TO.P,J14,9,Pin_9*%
%TO.N,3.3V*%
X49030000Y-23680000D03*
%TO.P,J14,10,Pin_10*%
%TO.N,GND*%
X51570000Y-23680000D03*
%TO.P,J14,11,Pin_11*%
%TO.N,/Carte Mere/5V*%
X54110000Y-23680000D03*
%TO.P,J14,12,Pin_12*%
%TO.N,GND*%
X56650000Y-23680000D03*
%TO.P,J14,13,Pin_13*%
%TO.N,/Carte Mere/P23*%
X59190000Y-23680000D03*
%TO.P,J14,14,Pin_14*%
%TO.N,/Carte Mere/P22*%
X61730000Y-23680000D03*
%TO.P,J14,15,Pin_15*%
%TO.N,/Carte Mere/P21*%
X64270000Y-23680000D03*
%TO.P,J14,16,Pin_16*%
%TO.N,/Carte Mere/P20*%
X66810000Y-23680000D03*
%TO.P,J14,17,Pin_17*%
%TO.N,/Carte Mere/P19*%
X69350000Y-23680000D03*
%TO.P,J14,18,Pin_18*%
%TO.N,/Carte Mere/P18*%
X71890000Y-23680000D03*
%TO.P,J14,19,Pin_19*%
%TO.N,/Carte Mere/P17*%
X74430000Y-23680000D03*
%TO.P,J14,20,Pin_20*%
%TO.N,/Carte Mere/P16*%
X76970000Y-23680000D03*
%TD*%
D25*
%TO.P,C8,1*%
%TO.N,/Carte Mere/5V*%
X43747500Y-34510000D03*
%TO.P,C8,2*%
%TO.N,GND*%
X41672500Y-34510000D03*
%TD*%
D14*
%TO.P,C12,1*%
%TO.N,3.3V*%
X71885000Y-35972500D03*
%TO.P,C12,2*%
%TO.N,GND*%
X71885000Y-38047500D03*
%TD*%
D11*
%TO.P,J13,1,Pin_1*%
%TO.N,3.3V*%
X38920000Y-48480000D03*
D10*
%TO.P,J13,2,Pin_2*%
%TO.N,GND*%
X41460000Y-48480000D03*
%TO.P,J13,3,Pin_3*%
%TO.N,/Carte Mere/P5*%
X44000000Y-48480000D03*
%TD*%
D27*
%TO.P,RV3,1,1*%
%TO.N,3.3V*%
X32470000Y-71650000D03*
%TO.P,RV3,2,2*%
X34970000Y-74150000D03*
%TO.P,RV3,3,3*%
%TO.N,/Capteur/A2*%
X32470000Y-76650000D03*
%TD*%
D11*
%TO.P,J8,1,Pin_1*%
%TO.N,3.3V*%
X52850000Y-57760000D03*
D10*
%TO.P,J8,2,Pin_2*%
%TO.N,GND*%
X52850000Y-60300000D03*
%TO.P,J8,3,Pin_3*%
%TO.N,/Capteur/A1*%
X52850000Y-62840000D03*
%TD*%
D29*
%TO.P,R8,1*%
%TO.N,P8*%
X85960000Y-46260000D03*
%TO.P,R8,2*%
%TO.N,3.3V*%
X83960000Y-46260000D03*
%TD*%
D11*
%TO.P,J11,1,Pin_1*%
%TO.N,3.3V*%
X52820000Y-70910000D03*
D10*
%TO.P,J11,2,Pin_2*%
%TO.N,GND*%
X52820000Y-73450000D03*
%TO.P,J11,3,Pin_3*%
%TO.N,/Capteur/A3*%
X52820000Y-75990000D03*
%TD*%
D11*
%TO.P,J16,1,Pin_1*%
%TO.N,3.3V*%
X48930000Y-48470000D03*
D10*
%TO.P,J16,2,Pin_2*%
%TO.N,GND*%
X51470000Y-48470000D03*
%TO.P,J16,3,Pin_3*%
%TO.N,/Carte Mere/P6*%
X54010000Y-48470000D03*
%TD*%
D30*
%TO.P,U2,1,GND*%
%TO.N,GND*%
X46735000Y-34105000D03*
%TO.P,U2,2,VOUT*%
%TO.N,/Carte Mere/5V*%
X46735000Y-35375000D03*
%TO.P,U2,3,VOUT*%
X46735000Y-36645000D03*
%TO.P,U2,4,VIN*%
%TO.N,/Carte Mere/9V*%
X46735000Y-37915000D03*
%TO.P,U2,5*%
%TO.N,N/C*%
X51685000Y-37915000D03*
%TO.P,U2,6,VOUT*%
%TO.N,/Carte Mere/5V*%
X51685000Y-36645000D03*
%TO.P,U2,7,VOUT*%
X51685000Y-35375000D03*
%TO.P,U2,8,NC*%
%TO.N,unconnected-(U2-Pad8)*%
X51685000Y-34105000D03*
%TD*%
D28*
%TO.P,R6,1*%
%TO.N,3.3V*%
X55200000Y-69550000D03*
%TO.P,R6,2*%
%TO.N,Net-(R6-Pad2)*%
X57200000Y-69550000D03*
%TD*%
D11*
%TO.P,J2,1,Pin_1*%
%TO.N,/Carte Mere/9V*%
X82185000Y-26760000D03*
D10*
%TO.P,J2,2,Pin_2*%
%TO.N,GND*%
X84725000Y-26760000D03*
%TD*%
D11*
%TO.P,J1,1,Pin_1*%
%TO.N,/Carte Mere/6V*%
X82185000Y-42010000D03*
D10*
%TO.P,J1,2,Pin_2*%
%TO.N,GND*%
X84725000Y-42010000D03*
%TD*%
D28*
%TO.P,R7,1*%
%TO.N,Net-(J9-Pad1)*%
X79960000Y-46260000D03*
%TO.P,R7,2*%
%TO.N,3.3V*%
X81960000Y-46260000D03*
%TD*%
D11*
%TO.P,J3,1,Pin_1*%
%TO.N,GND*%
X97135000Y-31143173D03*
D10*
%TO.P,J3,2,Pin_2*%
%TO.N,Net-(Cbyp2-Pad1)*%
X97135000Y-33683173D03*
%TD*%
D14*
%TO.P,Ccomp3,1*%
%TO.N,Net-(Ccomp3-Pad1)*%
X103415000Y-36490673D03*
%TO.P,Ccomp3,2*%
%TO.N,GND*%
X103415000Y-38565673D03*
%TD*%
D31*
%TO.P,Q2,1,D*%
%TO.N,Net-(D2-Pad2)*%
X99920000Y-37568173D03*
%TO.P,Q2,2,D*%
X99920000Y-36918173D03*
%TO.P,Q2,3,G*%
%TO.N,Net-(Q2-Pad3)*%
X99920000Y-36268173D03*
%TO.P,Q2,4,S*%
%TO.N,Net-(Q2-Pad4)*%
X97970000Y-36268173D03*
%TO.P,Q2,5,D*%
%TO.N,Net-(D2-Pad2)*%
X97970000Y-36918173D03*
%TO.P,Q2,6,D*%
X97970000Y-37568173D03*
D32*
%TO.P,Q2,7,S*%
%TO.N,Net-(Q2-Pad4)*%
X98850000Y-36268173D03*
D33*
%TO.P,Q2,8,D*%
%TO.N,Net-(D2-Pad2)*%
X98945000Y-37243173D03*
%TD*%
D14*
%TO.P,Cfilt2,1*%
%TO.N,Net-(Cfilt2-Pad1)*%
X105435000Y-36490673D03*
%TO.P,Cfilt2,2*%
%TO.N,GND*%
X105435000Y-38565673D03*
%TD*%
%TO.P,Ccomp2,1*%
%TO.N,Net-(Ccomp1-Pad1)*%
X103417500Y-57963173D03*
%TO.P,Ccomp2,2*%
%TO.N,GND*%
X103417500Y-60038173D03*
%TD*%
D31*
%TO.P,Q1,1,D*%
%TO.N,Net-(D1-Pad2)*%
X99922500Y-59040673D03*
%TO.P,Q1,2,D*%
X99922500Y-58390673D03*
%TO.P,Q1,3,G*%
%TO.N,Net-(Q1-Pad3)*%
X99922500Y-57740673D03*
%TO.P,Q1,4,S*%
%TO.N,Net-(Q1-Pad4)*%
X97972500Y-57740673D03*
%TO.P,Q1,5,D*%
%TO.N,Net-(D1-Pad2)*%
X97972500Y-58390673D03*
%TO.P,Q1,6,D*%
X97972500Y-59040673D03*
D32*
%TO.P,Q1,7,S*%
%TO.N,Net-(Q1-Pad4)*%
X98852500Y-57740673D03*
D33*
%TO.P,Q1,8,D*%
%TO.N,Net-(D1-Pad2)*%
X98947500Y-58715673D03*
%TD*%
D15*
%TO.P,R1,1*%
%TO.N,Net-(R1-Pad1)*%
X101427500Y-57980673D03*
%TO.P,R1,2*%
%TO.N,GND*%
X101427500Y-59980673D03*
%TD*%
D34*
%TO.P,U4,1,Isense*%
%TO.N,Net-(Cfilt2-Pad1)*%
X105190000Y-34793173D03*
%TO.P,U4,2,Comp*%
%TO.N,Net-(Ccomp3-Pad1)*%
X105190000Y-33523173D03*
%TO.P,U4,3,FB*%
%TO.N,Net-(R3-Pad1)*%
X105190000Y-32253173D03*
%TO.P,U4,4,AGND*%
%TO.N,GND*%
X105190000Y-30983173D03*
%TO.P,U4,5,PGND*%
X100240000Y-30983173D03*
%TO.P,U4,6,DR*%
%TO.N,Net-(Q2-Pad3)*%
X100240000Y-32253173D03*
%TO.P,U4,7,FA/SD*%
%TO.N,Net-(Rfadj2-Pad1)*%
X100240000Y-33523173D03*
%TO.P,U4,8,VIN*%
%TO.N,Net-(Cbyp2-Pad1)*%
X100240000Y-34793173D03*
%TD*%
D35*
%TO.P,L2,1,1*%
%TO.N,Net-(Cbyp2-Pad1)*%
X98361000Y-44048173D03*
%TO.P,L2,2,2*%
%TO.N,Net-(D2-Pad2)*%
X103061000Y-44048173D03*
%TD*%
D11*
%TO.P,J6,1,Pin_1*%
%TO.N,Net-(C1-Pad1)*%
X119235000Y-55178173D03*
D10*
%TO.P,J6,2,Pin_2*%
%TO.N,GND*%
X119235000Y-52638173D03*
%TD*%
D36*
%TO.P,C2,1*%
%TO.N,Net-(C2-Pad1)*%
X111945000Y-39600673D03*
%TO.P,C2,2*%
%TO.N,GND*%
X111945000Y-31600673D03*
%TD*%
%TO.P,C1,1*%
%TO.N,Net-(C1-Pad1)*%
X111947500Y-61073173D03*
%TO.P,C1,2*%
%TO.N,GND*%
X111947500Y-53073173D03*
%TD*%
D15*
%TO.P,Rfadj2,1*%
%TO.N,Net-(Rfadj2-Pad1)*%
X96345000Y-36458173D03*
%TO.P,Rfadj2,2*%
%TO.N,GND*%
X96345000Y-38458173D03*
%TD*%
D37*
%TO.P,D2,1,K*%
%TO.N,Net-(C2-Pad1)*%
X115005000Y-45268173D03*
D38*
%TO.P,D2,2,A*%
%TO.N,Net-(D2-Pad2)*%
X108605000Y-45268173D03*
%TD*%
D14*
%TO.P,Cfilt1,1*%
%TO.N,Net-(Cfilt1-Pad1)*%
X105437500Y-57963173D03*
%TO.P,Cfilt1,2*%
%TO.N,GND*%
X105437500Y-60038173D03*
%TD*%
D15*
%TO.P,Rfadj1,1*%
%TO.N,Net-(Rfadj1-Pad1)*%
X96347500Y-57930673D03*
%TO.P,Rfadj1,2*%
%TO.N,GND*%
X96347500Y-59930673D03*
%TD*%
%TO.P,R3,1*%
%TO.N,Net-(R3-Pad1)*%
X101425000Y-36508173D03*
%TO.P,R3,2*%
%TO.N,GND*%
X101425000Y-38508173D03*
%TD*%
D35*
%TO.P,L1,1,1*%
%TO.N,Net-(Cbyp1-Pad1)*%
X98361000Y-65520673D03*
%TO.P,L1,2,2*%
%TO.N,Net-(D1-Pad2)*%
X103061000Y-65520673D03*
%TD*%
D11*
%TO.P,J5,1,Pin_1*%
%TO.N,Net-(C2-Pad1)*%
X119255000Y-37368173D03*
D10*
%TO.P,J5,2,Pin_2*%
%TO.N,GND*%
X119255000Y-39908173D03*
%TD*%
D11*
%TO.P,J4,1,Pin_1*%
%TO.N,Net-(C2-Pad1)*%
X119245000Y-33703173D03*
D10*
%TO.P,J4,2,Pin_2*%
%TO.N,GND*%
X119245000Y-31163173D03*
%TD*%
D34*
%TO.P,U3,1,Isense*%
%TO.N,Net-(Cfilt1-Pad1)*%
X105192500Y-56265673D03*
%TO.P,U3,2,Comp*%
%TO.N,Net-(Ccomp1-Pad1)*%
X105192500Y-54995673D03*
%TO.P,U3,3,FB*%
%TO.N,Net-(R1-Pad1)*%
X105192500Y-53725673D03*
%TO.P,U3,4,AGND*%
%TO.N,GND*%
X105192500Y-52455673D03*
%TO.P,U3,5,PGND*%
X100242500Y-52455673D03*
%TO.P,U3,6,DR*%
%TO.N,Net-(Q1-Pad3)*%
X100242500Y-53725673D03*
%TO.P,U3,7,FA/SD*%
%TO.N,Net-(Rfadj1-Pad1)*%
X100242500Y-54995673D03*
%TO.P,U3,8,VIN*%
%TO.N,Net-(Cbyp1-Pad1)*%
X100242500Y-56265673D03*
%TD*%
D11*
%TO.P,J1,1,Pin_1*%
%TO.N,GND*%
X97137500Y-52615673D03*
D10*
%TO.P,J1,2,Pin_2*%
%TO.N,Net-(Cbyp1-Pad1)*%
X97137500Y-55155673D03*
%TD*%
D37*
%TO.P,D1,1,K*%
%TO.N,Net-(C1-Pad1)*%
X115007500Y-66740673D03*
D38*
%TO.P,D1,2,A*%
%TO.N,Net-(D1-Pad2)*%
X108607500Y-66740673D03*
%TD*%
D11*
%TO.P,J2,1,Pin_1*%
%TO.N,Net-(C1-Pad1)*%
X119235000Y-58858173D03*
D10*
%TO.P,J2,2,Pin_2*%
%TO.N,GND*%
X119235000Y-61398173D03*
%TD*%
D39*
%TO.N,/Propeller/P24*%
X51893097Y-83982202D03*
%TO.N,/Propeller/P25*%
X55315984Y-87693483D03*
%TO.N,/Propeller/P26*%
X54671996Y-88457869D03*
%TO.N,/Propeller/P28_SCL*%
X50703949Y-84842250D03*
%TO.N,/Propeller/P29_SDA*%
X49609413Y-86517599D03*
%TO.N,/Propeller/P5*%
X57361200Y-92894099D03*
%TO.N,Net-(J1-Pad3)*%
X34305390Y-90447721D03*
%TO.N,Net-(J1-Pad2)*%
X33891200Y-89514099D03*
%TO.N,/Propeller/5V*%
X29441200Y-92954397D03*
%TO.N,Net-(C3-Pad2)*%
X49881200Y-89204099D03*
X60431200Y-88894099D03*
%TO.N,/Propeller/3V3*%
X38983800Y-89994197D03*
X45681200Y-93284099D03*
X56201200Y-90214099D03*
%TO.N,Net-(D4-Pad1)*%
X40355400Y-90894101D03*
%TO.N,Net-(D3-Pad1)*%
X40407341Y-89445099D03*
%TO.N,Net-(D2-Pad2)*%
X38741200Y-94779399D03*
X32213499Y-88946398D03*
%TO.N,Net-(D1-Pad2)*%
X28221200Y-92794099D03*
%TO.N,Net-(U1-Pad29)*%
X56544830Y-86169729D03*
%TO.N,Net-(U1-Pad28)*%
X57736700Y-86626899D03*
%TO.N,GND*%
X57141200Y-94604099D03*
X56011200Y-88544099D03*
X47161200Y-90274099D03*
X49642790Y-90653099D03*
X61434100Y-92069199D03*
X65881200Y-91104099D03*
X60686601Y-114299898D03*
X29041200Y-87364099D03*
X58461200Y-87834099D03*
X37479400Y-87135899D03*
X34591200Y-94204099D03*
%TO.N,3.3V*%
X58210000Y-33010000D03*
X82210000Y-44760000D03*
%TO.N,/Carte Mere/P2*%
X56210000Y-35760000D03*
X36460000Y-39760000D03*
%TO.N,Net-(C10-Pad1)*%
X80210000Y-38760000D03*
X68960000Y-31760000D03*
%TO.N,Net-(C3-Pad1)*%
X30960000Y-37760000D03*
X44460000Y-31535500D03*
%TO.N,GND*%
X50460000Y-29510000D03*
X40460000Y-32260000D03*
X59960000Y-35760000D03*
X73710000Y-33010000D03*
X57997472Y-28649132D03*
%TO.N,Net-(Cbyp1-Pad1)*%
X96393000Y-61756173D03*
%TO.N,Net-(Cbyp2-Pad1)*%
X96901000Y-40420173D03*
%TO.N,Net-(Ccomp1-Pad1)*%
X107177500Y-56470673D03*
%TO.N,Net-(Ccomp3-Pad1)*%
X107175000Y-34998173D03*
%TO.N,Net-(Cfilt1-Pad1)*%
X105192500Y-57005673D03*
%TO.N,Net-(Cfilt2-Pad1)*%
X105190000Y-35533173D03*
%TO.N,Net-(D1-Pad2)*%
X105791000Y-63788173D03*
X99187000Y-59978173D03*
%TO.N,Net-(D2-Pad2)*%
X99695000Y-38642173D03*
X105537000Y-42960173D03*
%TO.N,Net-(Q1-Pad4)*%
X98787500Y-57080673D03*
%TO.N,Net-(Q2-Pad4)*%
X98785000Y-35608173D03*
%TO.N,Net-(R1-Pad1)*%
X108331000Y-53628173D03*
%TO.N,Net-(R3-Pad1)*%
X108215000Y-32138173D03*
%TD*%
D40*
%TO.N,/ESP-01/FT232_TX*%
X32052400Y-110041099D02*
X32052400Y-113466899D01*
X33271800Y-108821699D02*
X32052400Y-110041099D01*
X33271800Y-103373499D02*
X33271800Y-108821699D01*
X32052400Y-113466899D02*
X30701200Y-114818099D01*
%TO.N,/ESP-01/FT232_RX*%
X30701200Y-111133299D02*
X30701200Y-103404099D01*
X30701200Y-103404099D02*
X30731800Y-103373499D01*
%TO.N,/ESP-01/Reset*%
X54950600Y-119794699D02*
X53109000Y-119794699D01*
X52321600Y-114347499D02*
X52524800Y-114144299D01*
X56131800Y-118613499D02*
X54950600Y-119794699D01*
X53109000Y-119794699D02*
X52321600Y-119007299D01*
X52321600Y-119007299D02*
X52321600Y-114347499D01*
%TO.N,/ESP-01/ESP_RX*%
X83970000Y-116660000D02*
X83970000Y-112306699D01*
X83970000Y-112306699D02*
X82775800Y-111112499D01*
X83205200Y-117424800D02*
X83970000Y-116660000D01*
X59301200Y-114775499D02*
X61950501Y-117424800D01*
X61950501Y-117424800D02*
X83205200Y-117424800D01*
%TO.N,/ESP-01/P15_ESP-RX*%
X50226800Y-114292299D02*
X51449800Y-113069299D01*
X49375200Y-114292299D02*
X50226800Y-114292299D01*
X49227200Y-114144299D02*
X49375200Y-114292299D01*
X56334099Y-113470099D02*
X58066600Y-113470099D01*
X51449800Y-113069299D02*
X55933299Y-113069299D01*
X55933299Y-113069299D02*
X56334099Y-113470099D01*
X46225600Y-114144299D02*
X49227200Y-114144299D01*
X58066600Y-113470099D02*
X59301200Y-112235499D01*
%TO.N,/Propeller/P16*%
X69613710Y-86245899D02*
X65199392Y-86245899D01*
X64999600Y-87453173D02*
X63628674Y-88824099D01*
X70892511Y-84967098D02*
X69613710Y-86245899D01*
X63628674Y-88824099D02*
X63037100Y-88824099D01*
X72335881Y-84442499D02*
X71811282Y-84967098D01*
X71811282Y-84967098D02*
X70892511Y-84967098D01*
X65199392Y-86245899D02*
X64999600Y-86445691D01*
X64999600Y-86445691D02*
X64999600Y-87453173D01*
X77022800Y-84442499D02*
X72335881Y-84442499D01*
X78661200Y-82804099D02*
X77022800Y-84442499D01*
%TO.N,/Propeller/P17*%
X65013203Y-85796398D02*
X69427521Y-85796398D01*
X72149692Y-83992998D02*
X74932301Y-83992998D01*
X63037100Y-88024099D02*
X63628674Y-88024099D01*
X64549600Y-86260001D02*
X65013203Y-85796398D01*
X69427521Y-85796398D02*
X70795319Y-84428600D01*
X64549600Y-87103173D02*
X64549600Y-86260001D01*
X63628674Y-88024099D02*
X64549600Y-87103173D01*
X74932301Y-83992998D02*
X76121200Y-82804099D01*
X71714090Y-84428600D02*
X72149692Y-83992998D01*
X70795319Y-84428600D02*
X71714090Y-84428600D01*
%TO.N,/Propeller/P18*%
X72841802Y-83543497D02*
X73581200Y-82804099D01*
X64827014Y-85346897D02*
X69241332Y-85346897D01*
X70609130Y-83979099D02*
X71527901Y-83979099D01*
X69241332Y-85346897D02*
X70609130Y-83979099D01*
X71527901Y-83979099D02*
X71963503Y-83543497D01*
X64099600Y-86074311D02*
X64827014Y-85346897D01*
X63628674Y-87224099D02*
X64099600Y-86753173D01*
X63037100Y-87224099D02*
X63628674Y-87224099D01*
X71963503Y-83543497D02*
X72841802Y-83543497D01*
X64099600Y-86753173D02*
X64099600Y-86074311D01*
%TO.N,/Propeller/P19*%
X63037100Y-86424099D02*
X64568700Y-84892499D01*
X68952800Y-84892499D02*
X71041200Y-82804099D01*
X64568700Y-84892499D02*
X68952800Y-84892499D01*
%TO.N,/Propeller/P20*%
X61374600Y-85002499D02*
X62391800Y-83985299D01*
X67320000Y-83985299D02*
X68501200Y-82804099D01*
X62391800Y-83985299D02*
X67320000Y-83985299D01*
%TO.N,/Propeller/P21*%
X60574600Y-85356573D02*
X61045526Y-85827499D01*
X60574600Y-85002499D02*
X60574600Y-85356573D01*
X67608910Y-84442499D02*
X68072310Y-83979099D01*
X69676200Y-82317398D02*
X68987901Y-81629099D01*
X68072310Y-83979099D02*
X68987901Y-83979099D01*
X68987901Y-81629099D02*
X67136200Y-81629099D01*
X61045526Y-85827499D02*
X61728800Y-85827499D01*
X68987901Y-83979099D02*
X69676200Y-83290800D01*
X67136200Y-81629099D02*
X65961200Y-82804099D01*
X63113800Y-84442499D02*
X67608910Y-84442499D01*
X69676200Y-83290800D02*
X69676200Y-82317398D01*
X61728800Y-85827499D02*
X63113800Y-84442499D01*
%TO.N,/Propeller/P22*%
X62937310Y-82804099D02*
X63421200Y-82804099D01*
X61762810Y-83978599D02*
X62937310Y-82804099D01*
X60444426Y-83978599D02*
X61762810Y-83978599D01*
X59774600Y-84648425D02*
X60444426Y-83978599D01*
X59774600Y-85002499D02*
X59774600Y-84648425D01*
%TO.N,/Propeller/P23*%
X60818926Y-82804099D02*
X60881200Y-82804099D01*
X58974600Y-84648425D02*
X60818926Y-82804099D01*
X58974600Y-85002499D02*
X58974600Y-84648425D01*
%TO.N,/Propeller/P24*%
X54974600Y-84648425D02*
X54308377Y-83982202D01*
X54308377Y-83982202D02*
X51893097Y-83982202D01*
X54974600Y-85002499D02*
X54974600Y-84648425D01*
%TO.N,/Propeller/P25*%
X54174600Y-86552099D02*
X55315984Y-87693483D01*
X54174600Y-85002499D02*
X54174600Y-86552099D01*
%TO.N,/Propeller/P26*%
X53374600Y-85002499D02*
X53374600Y-87160473D01*
X53374600Y-87160473D02*
X54671996Y-88457869D01*
%TO.N,/Propeller/P27*%
X50871596Y-83985299D02*
X41742400Y-83985299D01*
X51712100Y-84825803D02*
X50871596Y-83985299D01*
X51712100Y-86424099D02*
X51712100Y-84825803D01*
X41742400Y-83985299D02*
X40561200Y-82804099D01*
%TO.N,/Propeller/P28_SCL*%
X51712100Y-87224099D02*
X51120526Y-87224099D01*
X51120526Y-87224099D02*
X50649600Y-86753173D01*
X39659600Y-84442499D02*
X50304198Y-84442499D01*
X50649600Y-86753173D02*
X50649600Y-84896599D01*
X50304198Y-84442499D02*
X50703949Y-84842250D01*
X50649600Y-84896599D02*
X50703949Y-84842250D01*
X38021200Y-82804099D02*
X39659600Y-84442499D01*
%TO.N,/Propeller/P29_SDA*%
X35998510Y-82804099D02*
X35481200Y-82804099D01*
X51712100Y-88024099D02*
X51120526Y-88024099D01*
X51120526Y-88024099D02*
X49351702Y-86255275D01*
X49351702Y-85395599D02*
X48855802Y-84899699D01*
X49351702Y-86255275D02*
X49351702Y-85395599D01*
X38094110Y-84899699D02*
X35998510Y-82804099D01*
X48855802Y-84899699D02*
X38094110Y-84899699D01*
%TO.N,/Propeller/P30_TX*%
X46751200Y-88430299D02*
X47601200Y-87580299D01*
X47601200Y-87580299D02*
X49351998Y-87580299D01*
X49351998Y-87580299D02*
X50595798Y-88824099D01*
X50595798Y-88824099D02*
X51712100Y-88824099D01*
%TO.N,/Propeller/P31_RX*%
X50181298Y-89928599D02*
X50485798Y-89624099D01*
X50485798Y-89624099D02*
X51712100Y-89624099D01*
X48915500Y-89928599D02*
X50181298Y-89928599D01*
X46756200Y-92087899D02*
X48915500Y-89928599D01*
%TO.N,/Propeller/P13*%
X72359402Y-96822301D02*
X73581200Y-98044099D01*
X64661420Y-92824099D02*
X68256919Y-96419598D01*
X68256919Y-96419598D02*
X69174090Y-96419598D01*
X69576793Y-96822301D02*
X72359402Y-96822301D01*
X63037100Y-92824099D02*
X64661420Y-92824099D01*
X69174090Y-96419598D02*
X69576793Y-96822301D01*
%TO.N,/Propeller/P12*%
X68987901Y-96869099D02*
X70162901Y-98044099D01*
X68070730Y-96869099D02*
X68987901Y-96869099D01*
X63037100Y-93624099D02*
X64825730Y-93624099D01*
X70162901Y-98044099D02*
X71041200Y-98044099D01*
X64825730Y-93624099D02*
X68070730Y-96869099D01*
%TO.N,/Propeller/P11*%
X63037100Y-94424099D02*
X64881200Y-94424099D01*
X64881200Y-94424099D02*
X68501200Y-98044099D01*
%TO.N,/Propeller/P10*%
X63762800Y-95845699D02*
X65961200Y-98044099D01*
X61374600Y-95845699D02*
X63762800Y-95845699D01*
%TO.N,/Propeller/P9*%
X60574600Y-96199773D02*
X61314126Y-96939299D01*
X61314126Y-96939299D02*
X62316400Y-96939299D01*
X60574600Y-95845699D02*
X60574600Y-96199773D01*
X62316400Y-96939299D02*
X63421200Y-98044099D01*
%TO.N,/Propeller/P8*%
X59774600Y-96937499D02*
X60881200Y-98044099D01*
X59774600Y-95845699D02*
X59774600Y-96937499D01*
%TO.N,/Propeller/Reset*%
X77566400Y-86663899D02*
X77566400Y-87948099D01*
X56330274Y-98044099D02*
X55801200Y-98044099D01*
X58174600Y-96199773D02*
X56330274Y-98044099D01*
X58174600Y-95845699D02*
X58174600Y-96199773D01*
X77566400Y-87948099D02*
X82412000Y-92793699D01*
%TO.N,/Propeller/P7*%
X54521200Y-98445800D02*
X53592901Y-99374099D01*
X53592901Y-99374099D02*
X49511200Y-99374099D01*
X55774600Y-96199773D02*
X54521200Y-97453173D01*
X55774600Y-95845699D02*
X55774600Y-96199773D01*
X49511200Y-99374099D02*
X48181200Y-98044099D01*
X54521200Y-97453173D02*
X54521200Y-98445800D01*
%TO.N,/Propeller/P6*%
X54974600Y-96199773D02*
X54310274Y-96864099D01*
X45886890Y-98044099D02*
X45641200Y-98044099D01*
X54310274Y-96864099D02*
X47066890Y-96864099D01*
X47066890Y-96864099D02*
X45886890Y-98044099D01*
X54974600Y-95845699D02*
X54974600Y-96199773D01*
%TO.N,/Propeller/P5*%
X56772126Y-92894099D02*
X57361200Y-92894099D01*
X54174600Y-95491625D02*
X56772126Y-92894099D01*
X54174600Y-95845699D02*
X54174600Y-95491625D01*
%TO.N,/Propeller/P4*%
X53374600Y-95845699D02*
X43023533Y-95845699D01*
X40825133Y-98044099D02*
X40561200Y-98044099D01*
X43023533Y-95845699D02*
X40825133Y-98044099D01*
%TO.N,/Propeller/P3*%
X39624998Y-97318600D02*
X39596479Y-97318600D01*
X42837344Y-95396198D02*
X42104740Y-96128802D01*
X42104740Y-96128802D02*
X41650567Y-96128802D01*
X40074499Y-96869099D02*
X39624998Y-97318600D01*
X40910270Y-96869099D02*
X40074499Y-96869099D01*
X38870980Y-98044099D02*
X38021200Y-98044099D01*
X50740001Y-95396198D02*
X42837344Y-95396198D01*
X39596479Y-97318600D02*
X38870980Y-98044099D01*
X51712100Y-94424099D02*
X50740001Y-95396198D01*
X41650567Y-96128802D02*
X40910270Y-96869099D01*
%TO.N,/Propeller/P2*%
X50649600Y-94095025D02*
X50649600Y-94844319D01*
X41918551Y-95679301D02*
X41464378Y-95679301D01*
X41464378Y-95679301D02*
X40724081Y-96419598D01*
X42651155Y-94946697D02*
X41918551Y-95679301D01*
X36656200Y-96869099D02*
X35481200Y-98044099D01*
X40724081Y-96419598D02*
X39888310Y-96419598D01*
X39438809Y-96869099D02*
X36656200Y-96869099D01*
X50547222Y-94946697D02*
X42651155Y-94946697D01*
X51120526Y-93624099D02*
X50649600Y-94095025D01*
X51712100Y-93624099D02*
X51120526Y-93624099D01*
X39888310Y-96419598D02*
X39438809Y-96869099D01*
X50649600Y-94844319D02*
X50547222Y-94946697D01*
%TO.N,/Propeller/P1*%
X51712100Y-92824099D02*
X51120526Y-92824099D01*
X39702121Y-95970097D02*
X39252620Y-96419598D01*
X50199600Y-93745025D02*
X50199600Y-94497196D01*
X51120526Y-92824099D02*
X50199600Y-93745025D01*
X41278189Y-95229800D02*
X40537892Y-95970097D01*
X40537892Y-95970097D02*
X39702121Y-95970097D01*
X41732362Y-95229800D02*
X41278189Y-95229800D01*
X50199600Y-94497196D02*
X42464966Y-94497196D01*
X39252620Y-96419598D02*
X34565701Y-96419598D01*
X34565701Y-96419598D02*
X32941200Y-98044099D01*
X42464966Y-94497196D02*
X41732362Y-95229800D01*
%TO.N,/Propeller/P0*%
X51120526Y-92024099D02*
X51712100Y-92024099D01*
X41546173Y-94780299D02*
X42278777Y-94047695D01*
X41092000Y-94780299D02*
X41546173Y-94780299D01*
X40351703Y-95520596D02*
X41092000Y-94780299D01*
X30401200Y-98044099D02*
X30401200Y-96944099D01*
X49749600Y-94047695D02*
X49749600Y-93395025D01*
X39066431Y-95970097D02*
X39515932Y-95520596D01*
X31375202Y-95970097D02*
X39066431Y-95970097D01*
X39515932Y-95520596D02*
X40351703Y-95520596D01*
X49749600Y-93395025D02*
X51120526Y-92024099D01*
X30401200Y-96944099D02*
X31375202Y-95970097D01*
X42278777Y-94047695D02*
X49749600Y-94047695D01*
%TO.N,/ESP-01/ESP_TX*%
X81506200Y-105443699D02*
X81506200Y-112382899D01*
X62864573Y-109077899D02*
X63201400Y-108741072D01*
X58046600Y-108440899D02*
X60068600Y-108440899D01*
X81074400Y-105011899D02*
X81506200Y-105443699D01*
X81506200Y-112382899D02*
X82775800Y-113652499D01*
X63518798Y-105011899D02*
X81074400Y-105011899D01*
X60705600Y-109077899D02*
X62864573Y-109077899D01*
X60068600Y-108440899D02*
X60705600Y-109077899D01*
X63201400Y-108741072D02*
X63201400Y-105329297D01*
X63201400Y-105329297D02*
X63518798Y-105011899D01*
X56761200Y-107155499D02*
X58046600Y-108440899D01*
%TO.N,Net-(J2-Pad6)*%
X43135000Y-113069299D02*
X48539027Y-113069299D01*
X49400600Y-108196299D02*
X45632000Y-108196299D01*
X48539027Y-113069299D02*
X48687027Y-113217299D01*
X45632000Y-108196299D02*
X42060000Y-111768299D01*
X50063373Y-113217299D02*
X51045173Y-112235499D01*
X42060000Y-114144299D02*
X43135000Y-113069299D01*
X51045173Y-112235499D02*
X56761200Y-112235499D01*
X42060000Y-111768299D02*
X42060000Y-114144299D01*
X48687027Y-113217299D02*
X50063373Y-113217299D01*
%TO.N,/Propeller/P15_ESP-RX*%
X68630003Y-95520596D02*
X69546468Y-95520596D01*
X69546468Y-95520596D02*
X69949171Y-95923299D01*
X64333506Y-91224099D02*
X68630003Y-95520596D01*
X69949171Y-95923299D02*
X76540400Y-95923299D01*
X63037100Y-91224099D02*
X64333506Y-91224099D01*
X76540400Y-95923299D02*
X78661200Y-98044099D01*
%TO.N,/Propeller/P14_ESP-TX*%
X64497110Y-92024099D02*
X68443108Y-95970097D01*
X69360279Y-95970097D02*
X69762982Y-96372800D01*
X68443108Y-95970097D02*
X69360279Y-95970097D01*
X63037100Y-92024099D02*
X64497110Y-92024099D01*
X69762982Y-96372800D02*
X74449901Y-96372800D01*
X74449901Y-96372800D02*
X76121200Y-98044099D01*
%TO.N,/ESP-01/3V3*%
X57639499Y-114775499D02*
X59004999Y-113409999D01*
X60742200Y-113409999D02*
X62151400Y-112000799D01*
X63201400Y-113050799D02*
X62151400Y-112000799D01*
X57936200Y-110870499D02*
X56761200Y-109695499D01*
X56761200Y-109695499D02*
X51972000Y-109695499D01*
X49375200Y-112292299D02*
X50425600Y-111241899D01*
X59004999Y-113409999D02*
X60742200Y-113409999D01*
X61521300Y-110870499D02*
X57936200Y-110870499D01*
X63613400Y-116975299D02*
X63201400Y-116563299D01*
X51972000Y-109695499D02*
X49375200Y-112292299D01*
X50425600Y-111241899D02*
X50425600Y-107221299D01*
X62151400Y-110240399D02*
X62151400Y-112000799D01*
X56761200Y-114775499D02*
X53591800Y-117944899D01*
X51051800Y-104545099D02*
X49400600Y-106196299D01*
X56761200Y-114775499D02*
X57639499Y-114775499D01*
X62151400Y-110240399D02*
X61521300Y-110870499D01*
X63201400Y-116563299D02*
X63201400Y-113050799D01*
X53591800Y-117944899D02*
X53591800Y-118613499D01*
X82775800Y-116192499D02*
X81993000Y-116975299D01*
X81993000Y-116975299D02*
X63613400Y-116975299D01*
X50425600Y-107221299D02*
X49400600Y-106196299D01*
X51051800Y-103373499D02*
X51051800Y-104545099D01*
%TO.N,Net-(J1-Pad3)*%
X34305390Y-90447721D02*
X34599212Y-90153899D01*
X34599212Y-90153899D02*
X36097400Y-90153899D01*
%TO.N,Net-(J1-Pad2)*%
X36097400Y-89353899D02*
X34051400Y-89353899D01*
X34051400Y-89353899D02*
X33891200Y-89514099D01*
%TO.N,/Propeller/3V3*%
X71078700Y-85416599D02*
X74471200Y-85416599D01*
X54531200Y-83405025D02*
X54531200Y-82412398D01*
X45950000Y-93262899D02*
X45537000Y-92849899D01*
X58961200Y-89610699D02*
X58961200Y-90214099D01*
X76663700Y-85416599D02*
X76906600Y-85173699D01*
X54531200Y-82412398D02*
X53742901Y-81624099D01*
X66161200Y-87176599D02*
X63713700Y-89624099D01*
X68613700Y-86744099D02*
X69751200Y-86744099D01*
X57812900Y-88462399D02*
X58961200Y-89610699D01*
X39110800Y-89867197D02*
X38983800Y-89994197D01*
X39159202Y-90169599D02*
X38983800Y-89994197D01*
X58961200Y-90214099D02*
X56201200Y-90214099D01*
X58974600Y-89624099D02*
X63037100Y-89624099D01*
X53742901Y-81624099D02*
X51901200Y-81624099D01*
X58974600Y-95845699D02*
X58974600Y-89624099D01*
X58974600Y-89624099D02*
X57812900Y-88462399D01*
X69751200Y-86744099D02*
X71078700Y-85416599D01*
X45537000Y-93139899D02*
X45681200Y-93284099D01*
X51712100Y-91224099D02*
X55191200Y-91224099D01*
X39110800Y-91579899D02*
X39110800Y-90121197D01*
X44829344Y-90169599D02*
X39159202Y-90169599D01*
X57812900Y-88462399D02*
X55774600Y-86424099D01*
X45537000Y-90877255D02*
X44829344Y-90169599D01*
X45537000Y-92679899D02*
X45537000Y-93139899D01*
X76906600Y-85173699D02*
X82412000Y-85173699D01*
X68181200Y-87176599D02*
X68613700Y-86744099D01*
X51901200Y-81624099D02*
X50721200Y-82804099D01*
X51712100Y-91224099D02*
X51120526Y-91224099D01*
X66161200Y-87176599D02*
X68181200Y-87176599D01*
X63713700Y-89624099D02*
X63037100Y-89624099D01*
X55774600Y-85002499D02*
X55774600Y-84648425D01*
X39110800Y-90121197D02*
X38983800Y-89994197D01*
X39110800Y-89007899D02*
X39110800Y-89867197D01*
X45537000Y-92679899D02*
X45537000Y-90877255D01*
X51120526Y-91224099D02*
X49081726Y-93262899D01*
X45537000Y-92849899D02*
X45537000Y-92679899D01*
X55774600Y-84648425D02*
X54531200Y-83405025D01*
X55774600Y-86424099D02*
X55774600Y-85002499D01*
X74471200Y-85416599D02*
X76663700Y-85416599D01*
X49081726Y-93262899D02*
X45950000Y-93262899D01*
X55191200Y-91224099D02*
X56201200Y-90214099D01*
%TO.N,Net-(D4-Pad2)*%
X39151800Y-93620899D02*
X39110800Y-93579899D01*
X41117400Y-93620899D02*
X39151800Y-93620899D01*
%TO.N,Net-(D4-Pad1)*%
X40440602Y-90894101D02*
X40355400Y-90894101D01*
X41117400Y-91570899D02*
X40440602Y-90894101D01*
%TO.N,Net-(D3-Pad2)*%
X39170600Y-86948099D02*
X39110800Y-87007899D01*
X41117400Y-86948099D02*
X39170600Y-86948099D01*
%TO.N,Net-(D3-Pad1)*%
X40854341Y-88998099D02*
X40407341Y-89445099D01*
X41117400Y-88998099D02*
X40854341Y-88998099D01*
%TO.N,Net-(D1-Pad2)*%
X28221200Y-91914099D02*
X28221200Y-92794099D01*
X34547600Y-87004099D02*
X33131200Y-87004099D01*
X33131200Y-87004099D02*
X28221200Y-91914099D01*
X36097400Y-88553899D02*
X34547600Y-87004099D01*
%TO.N,Net-(U1-Pad29)*%
X56574600Y-85002499D02*
X56574600Y-86139959D01*
X56574600Y-86139959D02*
X56544830Y-86169729D01*
%TO.N,Net-(U1-Pad28)*%
X57374600Y-85002499D02*
X57374600Y-86264799D01*
X57374600Y-86264799D02*
X57736700Y-86626899D01*
%TO.N,GND*%
X68181200Y-89251599D02*
X71368700Y-86064099D01*
X58174600Y-85356573D02*
X58461200Y-85643173D01*
X59301200Y-107155499D02*
X59301200Y-106352899D01*
X62151400Y-108165399D02*
X61141500Y-107155499D01*
X52524800Y-106344299D02*
X52524800Y-104440499D01*
X42060000Y-106344299D02*
X46225600Y-106344299D01*
X77936600Y-94834099D02*
X81912400Y-94834099D01*
X49832400Y-104173699D02*
X49832400Y-102931198D01*
X30597400Y-94553899D02*
X36097400Y-94553899D01*
X64988700Y-90424099D02*
X63037100Y-90424099D01*
X49070400Y-104935699D02*
X49832400Y-104173699D01*
X54766800Y-104548499D02*
X53591800Y-103373499D01*
X74471200Y-87491599D02*
X77581200Y-90601599D01*
X66161200Y-89251599D02*
X64988700Y-90424099D01*
X54131200Y-90424099D02*
X56011200Y-88544099D01*
X47634200Y-104935699D02*
X49070400Y-104935699D01*
X60910700Y-114075799D02*
X60686601Y-114299898D01*
X46225600Y-106344299D02*
X47634200Y-104935699D01*
X63332609Y-104562398D02*
X81305699Y-104562398D01*
X51712100Y-90424099D02*
X49871790Y-90424099D01*
X59301200Y-106352899D02*
X57496800Y-104548499D01*
X62151400Y-105743607D02*
X63332609Y-104562398D01*
X51712100Y-90424099D02*
X54131200Y-90424099D01*
X73043700Y-86064099D02*
X74471200Y-87491599D01*
X77581200Y-90601599D02*
X77581200Y-94449099D01*
X58671800Y-103373499D02*
X57496800Y-104548499D01*
X77581200Y-94449099D02*
X77566400Y-94463899D01*
X29041200Y-87310099D02*
X29041200Y-87364099D01*
D41*
X37479400Y-87135899D02*
X37781200Y-87437699D01*
D40*
X62151400Y-114075799D02*
X60910700Y-114075799D01*
X30597400Y-85753899D02*
X29041200Y-87310099D01*
X61434100Y-91435525D02*
X61434100Y-92069199D01*
X61141500Y-107155499D02*
X59301200Y-107155499D01*
X58174600Y-85002499D02*
X58174600Y-82970699D01*
D41*
X37781200Y-91424099D02*
X37451400Y-91753899D01*
D40*
X65881200Y-91104099D02*
X65881200Y-89531599D01*
X71368700Y-86064099D02*
X73043700Y-86064099D01*
X49871790Y-90424099D02*
X49642790Y-90653099D01*
X62151400Y-108165399D02*
X62151400Y-105743607D01*
X52524800Y-104440499D02*
X53591800Y-103373499D01*
X57141200Y-94604099D02*
X57141200Y-95612299D01*
X81912400Y-94834099D02*
X82412000Y-95333699D01*
D41*
X37451400Y-91753899D02*
X36097400Y-91753899D01*
D40*
X49832400Y-102931198D02*
X50571099Y-102192499D01*
X58174600Y-85002499D02*
X58174600Y-85356573D01*
X65881200Y-89531599D02*
X66161200Y-89251599D01*
X58174600Y-82970699D02*
X58341200Y-82804099D01*
X57496800Y-104548499D02*
X54766800Y-104548499D01*
X77566400Y-94463899D02*
X77936600Y-94834099D01*
X81305699Y-104562398D02*
X82775800Y-106032499D01*
D41*
X36097400Y-85753899D02*
X37479400Y-87135899D01*
D40*
X50571099Y-102192499D02*
X52410800Y-102192499D01*
X57141200Y-95279099D02*
X56574600Y-95845699D01*
X58461200Y-85643173D02*
X58461200Y-87834099D01*
X63037100Y-90424099D02*
X62445526Y-90424099D01*
X66161200Y-89251599D02*
X68181200Y-89251599D01*
X36097400Y-94553899D02*
X36097400Y-91753899D01*
X30597400Y-85753899D02*
X36097400Y-85753899D01*
X57141200Y-94604099D02*
X57141200Y-95279099D01*
X57141200Y-95612299D02*
X57374600Y-95845699D01*
X52410800Y-102192499D02*
X53591800Y-103373499D01*
D41*
X37781200Y-87437699D02*
X37781200Y-91424099D01*
D40*
X62445526Y-90424099D02*
X61434100Y-91435525D01*
%TO.N,3.3V*%
X32210000Y-56380000D02*
X32210000Y-58230000D01*
X71885000Y-35972500D02*
X71597500Y-36260000D01*
X57960000Y-74160000D02*
X55460000Y-71660000D01*
X32210000Y-69540000D02*
X32210000Y-71390000D01*
X72934520Y-38785480D02*
X71460000Y-40260000D01*
X72934520Y-37022020D02*
X72934520Y-38785480D01*
X71597500Y-36260000D02*
X67060000Y-36260000D01*
X71460000Y-40260000D02*
X53210000Y-40260000D01*
X51570000Y-45080000D02*
X51570000Y-42000000D01*
X71885000Y-35972500D02*
X72934520Y-37022020D01*
X57990000Y-61010000D02*
X55490000Y-58510000D01*
X67060000Y-36260000D02*
X63855489Y-33055489D01*
X34970000Y-74150000D02*
X32470000Y-71650000D01*
X81960000Y-45010000D02*
X82210000Y-44760000D01*
X55230000Y-56400000D02*
X55230000Y-58250000D01*
X81960000Y-46260000D02*
X81960000Y-45010000D01*
X34970000Y-60990000D02*
X32470000Y-58490000D01*
X51570000Y-41900000D02*
X51570000Y-42000000D01*
X51560000Y-45090000D02*
X51570000Y-45080000D01*
X55200000Y-71400000D02*
X55460000Y-71660000D01*
X31190000Y-56380000D02*
X29830000Y-57740000D01*
X55230000Y-58250000D02*
X55490000Y-58510000D01*
X54180000Y-69550000D02*
X52820000Y-70910000D01*
X55200000Y-69550000D02*
X54180000Y-69550000D01*
X53210000Y-40260000D02*
X51570000Y-41900000D01*
X55200000Y-69550000D02*
X55200000Y-71400000D01*
X49030000Y-26760000D02*
X49030000Y-23260000D01*
X58255489Y-33055489D02*
X58210000Y-33010000D01*
X83960000Y-46260000D02*
X81960000Y-46260000D01*
X31190000Y-69540000D02*
X29830000Y-70900000D01*
X32210000Y-56380000D02*
X31190000Y-56380000D01*
X63855489Y-33055489D02*
X58255489Y-33055489D01*
X32210000Y-69540000D02*
X31190000Y-69540000D01*
X55230000Y-56400000D02*
X54210000Y-56400000D01*
X32210000Y-58230000D02*
X32470000Y-58490000D01*
X32210000Y-71390000D02*
X32470000Y-71650000D01*
X54210000Y-56400000D02*
X52850000Y-57760000D01*
%TO.N,P8*%
X59910499Y-45820499D02*
X59180000Y-45090000D01*
X76370000Y-48500000D02*
X75180000Y-49690000D01*
X59190000Y-42000000D02*
X59190000Y-45080000D01*
X84548173Y-47285000D02*
X77585000Y-47285000D01*
X61236189Y-46270499D02*
X60786189Y-45820499D01*
X85573173Y-46260000D02*
X84548173Y-47285000D01*
X59190000Y-45080000D02*
X59180000Y-45090000D01*
X60786189Y-45820499D02*
X59910499Y-45820499D01*
X75180000Y-49690000D02*
X68400000Y-49690000D01*
X85960000Y-46260000D02*
X85573173Y-46260000D01*
X64980499Y-46270499D02*
X61236189Y-46270499D01*
X68400000Y-49690000D02*
X64980499Y-46270499D01*
X77585000Y-47285000D02*
X76370000Y-48500000D01*
%TO.N,/Capteur/A3*%
X52820000Y-75990000D02*
X54790000Y-75990000D01*
X59870000Y-76660000D02*
X55460000Y-76660000D01*
X61420000Y-75110000D02*
X59870000Y-76660000D01*
X54790000Y-75990000D02*
X55460000Y-76660000D01*
%TO.N,/Capteur/A2*%
X29830000Y-75980000D02*
X31800000Y-75980000D01*
X36880000Y-76650000D02*
X32470000Y-76650000D01*
X31800000Y-75980000D02*
X32470000Y-76650000D01*
X38430000Y-75100000D02*
X36880000Y-76650000D01*
%TO.N,/Capteur/A1*%
X61450000Y-61960000D02*
X59900000Y-63510000D01*
X59900000Y-63510000D02*
X55490000Y-63510000D01*
X52850000Y-62840000D02*
X54820000Y-62840000D01*
X54820000Y-62840000D02*
X55490000Y-63510000D01*
%TO.N,Net-(R6-Pad2)*%
X61420000Y-69610000D02*
X57260000Y-69610000D01*
X57260000Y-69610000D02*
X57200000Y-69550000D01*
%TO.N,Net-(J9-Pad1)*%
X71290000Y-48040000D02*
X71290000Y-48500000D01*
X72970000Y-46360000D02*
X71290000Y-48040000D01*
X79960000Y-46260000D02*
X79860000Y-46360000D01*
X79860000Y-46360000D02*
X72970000Y-46360000D01*
%TO.N,/Capteur/A0*%
X38430000Y-61940000D02*
X36880000Y-63490000D01*
X36880000Y-63490000D02*
X32470000Y-63490000D01*
X31800000Y-62820000D02*
X32470000Y-63490000D01*
X29830000Y-62820000D02*
X31800000Y-62820000D01*
%TO.N,Net-(R5-Pad2)*%
X34270000Y-69600000D02*
X34210000Y-69540000D01*
X38430000Y-69600000D02*
X34270000Y-69600000D01*
%TO.N,/Carte Mere/P15*%
X76970000Y-45080000D02*
X76960000Y-45090000D01*
X76970000Y-42000000D02*
X76970000Y-45080000D01*
%TO.N,/Carte Mere/P14*%
X74430000Y-45080000D02*
X74430000Y-42000000D01*
X74420000Y-45090000D02*
X74430000Y-45080000D01*
%TO.N,/Carte Mere/P13*%
X71890000Y-42000000D02*
X71890000Y-45080000D01*
X71890000Y-45080000D02*
X71880000Y-45090000D01*
%TO.N,/Carte Mere/P12*%
X69340000Y-45090000D02*
X69350000Y-45080000D01*
X69350000Y-45080000D02*
X69350000Y-42000000D01*
%TO.N,/Carte Mere/P11*%
X66810000Y-42000000D02*
X66810000Y-45080000D01*
X66810000Y-45080000D02*
X66800000Y-45090000D01*
%TO.N,/Carte Mere/P10*%
X64260000Y-45090000D02*
X64270000Y-45080000D01*
X64270000Y-45080000D02*
X64270000Y-42000000D01*
%TO.N,/Carte Mere/P9*%
X61730000Y-45080000D02*
X61730000Y-42000000D01*
X61720000Y-45090000D02*
X61730000Y-45080000D01*
%TO.N,/Carte Mere/RESET*%
X54110000Y-45080000D02*
X54100000Y-45090000D01*
X54110000Y-42000000D02*
X54110000Y-45080000D01*
%TO.N,/Carte Mere/P7*%
X46480000Y-45750000D02*
X47000000Y-46270000D01*
X64265000Y-47325000D02*
X64265000Y-48470000D01*
X46480000Y-45090000D02*
X46480000Y-45750000D01*
X46480000Y-45090000D02*
X46490000Y-45080000D01*
X63660000Y-46720000D02*
X64265000Y-47325000D01*
X61050000Y-46720000D02*
X63660000Y-46720000D01*
X47000000Y-46270000D02*
X60600000Y-46270000D01*
X60600000Y-46270000D02*
X61050000Y-46720000D01*
X46490000Y-45080000D02*
X46490000Y-42000000D01*
%TO.N,/Carte Mere/P6*%
X43940000Y-45750000D02*
X44920000Y-46730000D01*
X53390000Y-46730000D02*
X54010000Y-47350000D01*
X44920000Y-46730000D02*
X53390000Y-46730000D01*
X43950000Y-42000000D02*
X43950000Y-45080000D01*
X54010000Y-47350000D02*
X54010000Y-48470000D01*
X43940000Y-45090000D02*
X43940000Y-45750000D01*
X43950000Y-45080000D02*
X43940000Y-45090000D01*
%TO.N,/Carte Mere/P5*%
X41410000Y-45080000D02*
X41410000Y-42000000D01*
X44000000Y-47430000D02*
X44000000Y-48480000D01*
X41400000Y-45090000D02*
X41410000Y-45080000D01*
X41660000Y-45090000D02*
X44000000Y-47430000D01*
X41400000Y-45090000D02*
X41660000Y-45090000D01*
%TO.N,/Carte Mere/P4*%
X36150000Y-48480000D02*
X38860000Y-45770000D01*
X38860000Y-45770000D02*
X38860000Y-45090000D01*
X38870000Y-42000000D02*
X38870000Y-45080000D01*
X33780000Y-48480000D02*
X36150000Y-48480000D01*
X38870000Y-45080000D02*
X38860000Y-45090000D01*
%TO.N,/Carte Mere/P16*%
X76970000Y-26760000D02*
X76970000Y-23260000D01*
%TO.N,/Carte Mere/P17*%
X74430000Y-23260000D02*
X74430000Y-26760000D01*
%TO.N,/Carte Mere/P18*%
X71890000Y-26760000D02*
X71890000Y-23260000D01*
%TO.N,/Carte Mere/P19*%
X69350000Y-23260000D02*
X69350000Y-26760000D01*
%TO.N,/Carte Mere/P20*%
X66810000Y-26760000D02*
X66810000Y-23260000D01*
%TO.N,/Carte Mere/P21*%
X64270000Y-23260000D02*
X64270000Y-26760000D01*
%TO.N,/Carte Mere/P22*%
X61730000Y-26760000D02*
X61730000Y-23260000D01*
%TO.N,/Carte Mere/P23*%
X59190000Y-23260000D02*
X59190000Y-26760000D01*
%TO.N,/Carte Mere/P24*%
X46490000Y-23260000D02*
X46490000Y-26760000D01*
%TO.N,/Carte Mere/P25*%
X43950000Y-26760000D02*
X43950000Y-23260000D01*
%TO.N,/Carte Mere/P26*%
X41410000Y-23260000D02*
X41410000Y-26760000D01*
%TO.N,/Carte Mere/P27*%
X38870000Y-26760000D02*
X38870000Y-23260000D01*
%TO.N,/Carte Mere/P28_SCL*%
X36330000Y-23260000D02*
X36330000Y-26760000D01*
%TO.N,/Carte Mere/P29_SDA*%
X33790000Y-26760000D02*
X33790000Y-23260000D01*
%TO.N,/Carte Mere/P3*%
X36320000Y-45090000D02*
X36330000Y-45080000D01*
X36330000Y-45080000D02*
X36330000Y-42000000D01*
%TO.N,/Carte Mere/P2*%
X33790000Y-45080000D02*
X33780000Y-45090000D01*
X52210000Y-39760000D02*
X56210000Y-35760000D01*
X33790000Y-42000000D02*
X33790000Y-45080000D01*
X36460000Y-39760000D02*
X52210000Y-39760000D01*
%TO.N,Net-(R4-Pad2)*%
X61450000Y-56460000D02*
X57290000Y-56460000D01*
X57290000Y-56460000D02*
X57230000Y-56400000D01*
%TO.N,Net-(R3-Pad2)*%
X38430000Y-56440000D02*
X34270000Y-56440000D01*
X34270000Y-56440000D02*
X34210000Y-56380000D01*
%TO.N,/Carte Mere/P1*%
X31240000Y-45090000D02*
X31250000Y-45080000D01*
X31250000Y-45080000D02*
X31250000Y-42000000D01*
%TO.N,/Carte Mere/P0*%
X28710000Y-45080000D02*
X28700000Y-45090000D01*
X28710000Y-42000000D02*
X28710000Y-45080000D01*
%TO.N,/Carte Mere/P30_TX*%
X31250000Y-23260000D02*
X31250000Y-26760000D01*
%TO.N,/Carte Mere/P31_RX*%
X28710000Y-26760000D02*
X28710000Y-23260000D01*
%TO.N,Net-(C10-Pad1)*%
X76460000Y-38760000D02*
X80210000Y-38760000D01*
X69460000Y-31760000D02*
X73960000Y-36260000D01*
X68960000Y-31760000D02*
X69460000Y-31760000D01*
X73960000Y-36260000D02*
X76460000Y-38760000D01*
%TO.N,Net-(C9-Pad1)*%
X57460000Y-31570000D02*
X57460000Y-38510000D01*
X57490000Y-38540000D02*
X60760000Y-38540000D01*
X56400000Y-30510000D02*
X57460000Y-31570000D01*
X57460000Y-38510000D02*
X57490000Y-38540000D01*
%TO.N,/Carte Mere/5V*%
X46735000Y-35375000D02*
X46735000Y-36645000D01*
X44612500Y-35375000D02*
X46735000Y-35375000D01*
X52061072Y-35375000D02*
X53860000Y-33576072D01*
X53860000Y-33576072D02*
X53860000Y-30510000D01*
X46735000Y-35375000D02*
X51685000Y-35375000D01*
X51685000Y-35375000D02*
X52061072Y-35375000D01*
X51685000Y-36645000D02*
X51685000Y-35375000D01*
X53860000Y-30510000D02*
X53860000Y-27010000D01*
X53860000Y-27010000D02*
X54110000Y-26760000D01*
X43747500Y-34510000D02*
X44612500Y-35375000D01*
%TO.N,/Carte Mere/9V*%
X55034511Y-36211561D02*
X52706552Y-38539520D01*
X57765489Y-29335489D02*
X55913501Y-29335489D01*
X82185000Y-26760000D02*
X79435000Y-29510000D01*
X58940000Y-30510000D02*
X57765489Y-29335489D01*
X43747500Y-37760000D02*
X46580000Y-37760000D01*
X55913501Y-29335489D02*
X55034511Y-30214479D01*
X55034511Y-30214479D02*
X55034511Y-36211561D01*
X47359520Y-38539520D02*
X46735000Y-37915000D01*
X59940000Y-29510000D02*
X58940000Y-30510000D01*
X79435000Y-29510000D02*
X59940000Y-29510000D01*
X46580000Y-37760000D02*
X46735000Y-37915000D01*
X52706552Y-38539520D02*
X47359520Y-38539520D01*
%TO.N,Net-(C3-Pad1)*%
X39735489Y-34509125D02*
X39735489Y-31959897D01*
X36484614Y-37760000D02*
X39735489Y-34509125D01*
X30960000Y-37760000D02*
X36484614Y-37760000D01*
X40159886Y-31535500D02*
X44460000Y-31535500D01*
X39735489Y-31959897D02*
X40159886Y-31535500D01*
%TO.N,GND*%
X54900000Y-25010000D02*
X56650000Y-26760000D01*
X59714720Y-75295000D02*
X60974720Y-74035000D01*
X43922500Y-32260000D02*
X44890000Y-32260000D01*
X63810978Y-39760000D02*
X70172500Y-39760000D01*
X36724720Y-62125000D02*
X37984720Y-60865000D01*
X29830000Y-73440000D02*
X31675000Y-75285000D01*
X63210000Y-39159022D02*
X63810978Y-39760000D01*
X56434520Y-39559520D02*
X55385000Y-38510000D01*
X52650000Y-49650000D02*
X60545000Y-49650000D01*
X50204511Y-40825489D02*
X49030000Y-42000000D01*
X59744720Y-62145000D02*
X61004720Y-60885000D01*
X84210000Y-30760000D02*
X75960000Y-30760000D01*
X54695000Y-62145000D02*
X59744720Y-62145000D01*
X62915000Y-60885000D02*
X62915000Y-57535000D01*
X84725000Y-42010000D02*
X85960000Y-40775000D01*
X59960000Y-34780000D02*
X60760000Y-33980000D01*
X39895000Y-57515000D02*
X40970000Y-56440000D01*
X39895000Y-70675000D02*
X40970000Y-69600000D01*
X51320000Y-28650000D02*
X51570000Y-28650000D01*
X49030000Y-42000000D02*
X49030000Y-45080000D01*
X29830000Y-60280000D02*
X31675000Y-62125000D01*
X31675000Y-75285000D02*
X36724720Y-75285000D01*
X44890000Y-32260000D02*
X46735000Y-34105000D01*
X60545000Y-49650000D02*
X61725000Y-48470000D01*
X57997472Y-28107472D02*
X56650000Y-26760000D01*
X60974720Y-74035000D02*
X62885000Y-74035000D01*
X53460000Y-25010000D02*
X54900000Y-25010000D01*
X85960000Y-40775000D02*
X85960000Y-27995000D01*
X50460000Y-29510000D02*
X51320000Y-28650000D01*
X52820000Y-73450000D02*
X54665000Y-75295000D01*
X55385000Y-38510000D02*
X54095718Y-38510000D01*
X85960000Y-29010000D02*
X84210000Y-30760000D01*
X54665000Y-75295000D02*
X59714720Y-75295000D01*
X51470000Y-48470000D02*
X52650000Y-49650000D01*
X51710000Y-26760000D02*
X53460000Y-25010000D01*
X51570000Y-28650000D02*
X51570000Y-26760000D01*
X41672500Y-34510000D02*
X41672500Y-37760000D01*
X63210000Y-36430000D02*
X63210000Y-39159022D01*
X41672500Y-34510000D02*
X43922500Y-32260000D01*
X57997472Y-28649132D02*
X57997472Y-28107472D01*
X59960000Y-35760000D02*
X59960000Y-34780000D01*
X39895000Y-60865000D02*
X39895000Y-57515000D01*
X40460000Y-32260000D02*
X43922500Y-32260000D01*
X40970000Y-75100000D02*
X39895000Y-74025000D01*
X51570000Y-26760000D02*
X51710000Y-26760000D01*
X39895000Y-74025000D02*
X39895000Y-70675000D01*
X56650000Y-23260000D02*
X56650000Y-26760000D01*
X51780229Y-40825489D02*
X50204511Y-40825489D01*
X37984720Y-60865000D02*
X39895000Y-60865000D01*
X50230000Y-49710000D02*
X51470000Y-48470000D01*
X61004720Y-60885000D02*
X62915000Y-60885000D01*
X46735000Y-34105000D02*
X47865000Y-34105000D01*
X63990000Y-61960000D02*
X62915000Y-60885000D01*
X31675000Y-62125000D02*
X36724720Y-62125000D01*
X63210000Y-39159022D02*
X62809502Y-39559520D01*
X31240000Y-48480000D02*
X32460000Y-49700000D01*
X85960000Y-27995000D02*
X84725000Y-26760000D01*
X63960000Y-75110000D02*
X62885000Y-74035000D01*
X42690000Y-49710000D02*
X50230000Y-49710000D01*
X60760000Y-33980000D02*
X63210000Y-36430000D01*
X75960000Y-30760000D02*
X73710000Y-33010000D01*
X36724720Y-75285000D02*
X37984720Y-74025000D01*
X40240000Y-49700000D02*
X41460000Y-48480000D01*
X62885000Y-70685000D02*
X63960000Y-69610000D01*
X51570000Y-23260000D02*
X51570000Y-26760000D01*
X54095718Y-38510000D02*
X51780229Y-40825489D01*
X70172500Y-39760000D02*
X71885000Y-38047500D01*
X62809502Y-39559520D02*
X56434520Y-39559520D01*
X32460000Y-49700000D02*
X40240000Y-49700000D01*
X52850000Y-60300000D02*
X54695000Y-62145000D01*
X49030000Y-45080000D02*
X49020000Y-45090000D01*
X62885000Y-74035000D02*
X62885000Y-70685000D01*
X40970000Y-61940000D02*
X39895000Y-60865000D01*
X62915000Y-57535000D02*
X63990000Y-56460000D01*
X47865000Y-34105000D02*
X51570000Y-30400000D01*
X37984720Y-74025000D02*
X39895000Y-74025000D01*
X51570000Y-30400000D02*
X51570000Y-28650000D01*
X41460000Y-48480000D02*
X42690000Y-49710000D01*
D42*
X105192500Y-52455673D02*
X105369500Y-52278673D01*
D40*
X111945000Y-31600673D02*
X112382500Y-31163173D01*
X103357500Y-38508173D02*
X103415000Y-38565673D01*
X119945000Y-39908173D02*
X120995000Y-38858173D01*
D43*
X112382500Y-52638173D02*
X119235000Y-52638173D01*
D40*
X111947500Y-53073173D02*
X112382500Y-52638173D01*
X95512500Y-54240673D02*
X95512500Y-57152500D01*
X105437500Y-60038173D02*
X111947500Y-53528173D01*
D42*
X105369500Y-52278673D02*
X111153000Y-52278673D01*
D40*
X103415000Y-38565673D02*
X105435000Y-38565673D01*
X100240000Y-30983173D02*
X105190000Y-30983173D01*
X95510000Y-35680000D02*
X95320000Y-35870000D01*
X111327500Y-30983173D02*
X111945000Y-31600673D01*
X105190000Y-30983173D02*
X111327500Y-30983173D01*
X120995000Y-38858173D02*
X120995000Y-32238173D01*
X111947500Y-53528173D02*
X111947500Y-53073173D01*
X100240000Y-30983173D02*
X100080000Y-31143173D01*
X97137500Y-52615673D02*
X95512500Y-54240673D01*
X120995000Y-32238173D02*
X119920000Y-31163173D01*
X103360000Y-59980673D02*
X103417500Y-60038173D01*
D44*
X119235000Y-52638173D02*
X120285000Y-52638173D01*
D40*
X119255000Y-39908173D02*
X119945000Y-39908173D01*
X95510000Y-32768173D02*
X95510000Y-35680000D01*
X95322500Y-57342500D02*
X95322500Y-58905673D01*
D45*
X111947500Y-53073173D02*
X112385000Y-52635673D01*
D40*
X95322500Y-58905673D02*
X96347500Y-59930673D01*
X119920000Y-31163173D02*
X119245000Y-31163173D01*
X100080000Y-31143173D02*
X97135000Y-31143173D01*
X95320000Y-37433173D02*
X96345000Y-38458173D01*
X95320000Y-35870000D02*
X95320000Y-37433173D01*
X103417500Y-60038173D02*
X105437500Y-60038173D01*
D44*
X121539000Y-60224173D02*
X120365000Y-61398173D01*
D45*
X97315000Y-52438173D02*
X97137500Y-52615673D01*
D44*
X120285000Y-52638173D02*
X121539000Y-53892173D01*
D40*
X105435000Y-38565673D02*
X111945000Y-32055673D01*
D42*
X100242500Y-52455673D02*
X105192500Y-52455673D01*
D40*
X111945000Y-32055673D02*
X111945000Y-31600673D01*
D44*
X121539000Y-53892173D02*
X121539000Y-60224173D01*
D40*
X97135000Y-31143173D02*
X95510000Y-32768173D01*
X101427500Y-59980673D02*
X103360000Y-59980673D01*
D42*
X100225000Y-52438173D02*
X97315000Y-52438173D01*
D40*
X95512500Y-57152500D02*
X95322500Y-57342500D01*
X112382500Y-31163173D02*
X119245000Y-31163173D01*
X101425000Y-38508173D02*
X103357500Y-38508173D01*
D44*
X120365000Y-61398173D02*
X119235000Y-61398173D01*
D45*
X100242500Y-52455673D02*
X100225000Y-52438173D01*
D42*
X111153000Y-52278673D02*
X111947500Y-53073173D01*
D44*
%TO.N,Net-(C2-Pad1)*%
X119255000Y-37368173D02*
X119255000Y-33713173D01*
X117842500Y-33703173D02*
X111945000Y-39600673D01*
D43*
X111945000Y-42208173D02*
X115005000Y-45268173D01*
D44*
X119245000Y-33703173D02*
X117842500Y-33703173D01*
X119255000Y-33713173D02*
X119245000Y-33703173D01*
D43*
X111945000Y-39600673D02*
X111945000Y-42208173D01*
D40*
%TO.N,Net-(Cbyp1-Pad1)*%
X98247500Y-56265673D02*
X100242500Y-56265673D01*
D44*
X98361000Y-64764173D02*
X96393000Y-62796173D01*
D40*
X97137500Y-55155673D02*
X98247500Y-56265673D01*
D44*
X96393000Y-62796173D02*
X96393000Y-61756173D01*
X98361000Y-65520673D02*
X98361000Y-64764173D01*
%TO.N,Net-(Cbyp2-Pad1)*%
X96901000Y-42588173D02*
X96901000Y-40420173D01*
X98361000Y-44048173D02*
X96901000Y-42588173D01*
D40*
X97135000Y-33683173D02*
X98245000Y-34793173D01*
X98245000Y-34793173D02*
X100240000Y-34793173D01*
%TO.N,Net-(Ccomp1-Pad1)*%
X105702500Y-54995673D02*
X107177500Y-56470673D01*
X105192500Y-54995673D02*
X105702500Y-54995673D01*
X103417500Y-56393922D02*
X104815749Y-54995673D01*
X104815749Y-54995673D02*
X105192500Y-54995673D01*
X103417500Y-57963173D02*
X103417500Y-56393922D01*
%TO.N,Net-(Ccomp3-Pad1)*%
X103415000Y-34921422D02*
X104813249Y-33523173D01*
X105700000Y-33523173D02*
X107175000Y-34998173D01*
X103415000Y-36490673D02*
X103415000Y-34921422D01*
X104813249Y-33523173D02*
X105190000Y-33523173D01*
X105190000Y-33523173D02*
X105700000Y-33523173D01*
%TO.N,Net-(Cfilt1-Pad1)*%
X105192500Y-56265673D02*
X105192500Y-57005673D01*
X105192500Y-57718173D02*
X105437500Y-57963173D01*
X105192500Y-57005673D02*
X105192500Y-57718173D01*
%TO.N,Net-(Cfilt2-Pad1)*%
X105190000Y-36245673D02*
X105435000Y-36490673D01*
X105190000Y-34793173D02*
X105190000Y-35533173D01*
X105190000Y-35533173D02*
X105190000Y-36245673D01*
D45*
%TO.N,Net-(D1-Pad2)*%
X98947500Y-58715673D02*
X98947500Y-59738673D01*
D40*
X99272500Y-59040673D02*
X98947500Y-58715673D01*
X99922500Y-58390673D02*
X99272500Y-58390673D01*
D43*
X103061000Y-65520673D02*
X104248500Y-66708173D01*
D40*
X99213500Y-60004673D02*
X99922500Y-60004673D01*
D44*
X104793500Y-63788173D02*
X103061000Y-65520673D01*
D40*
X98622500Y-59040673D02*
X98947500Y-58715673D01*
D46*
X99922500Y-60459673D02*
X99922500Y-60004673D01*
D45*
X99187000Y-59978173D02*
X99213500Y-60004673D01*
D40*
X99922500Y-59040673D02*
X99272500Y-59040673D01*
D43*
X104248500Y-66708173D02*
X108575000Y-66708173D01*
D46*
X103061000Y-65520673D02*
X103061000Y-63598173D01*
D40*
X97972500Y-58390673D02*
X98622500Y-58390673D01*
X97972500Y-59040673D02*
X98622500Y-59040673D01*
D46*
X99922500Y-60004673D02*
X99922500Y-59040673D01*
D40*
X97972500Y-58390673D02*
X97972500Y-59040673D01*
D44*
X105791000Y-63788173D02*
X104793500Y-63788173D01*
D40*
X98947500Y-59738673D02*
X99187000Y-59978173D01*
X98622500Y-58390673D02*
X98947500Y-58715673D01*
D43*
X108575000Y-66708173D02*
X108607500Y-66740673D01*
D40*
X99272500Y-58390673D02*
X98947500Y-58715673D01*
D46*
X103061000Y-63598173D02*
X99922500Y-60459673D01*
D40*
X99922500Y-59040673D02*
X99922500Y-58390673D01*
%TO.N,Net-(D2-Pad2)*%
X97970000Y-36918173D02*
X98620000Y-36918173D01*
D45*
X103061000Y-40844173D02*
X102449000Y-41456173D01*
D40*
X98620000Y-36918173D02*
X98945000Y-37243173D01*
X104449000Y-44048173D02*
X103061000Y-44048173D01*
X105537000Y-42960173D02*
X104449000Y-44048173D01*
X98620000Y-37568173D02*
X98945000Y-37243173D01*
X99920000Y-37568173D02*
X99270000Y-37568173D01*
X99270000Y-37568173D02*
X98945000Y-37243173D01*
D42*
X98945000Y-37892173D02*
X99695000Y-38642173D01*
D46*
X102449000Y-41456173D02*
X99920000Y-38927173D01*
D40*
X98945000Y-37243173D02*
X98945000Y-37892173D01*
X97970000Y-36918173D02*
X97970000Y-37568173D01*
X97970000Y-37568173D02*
X98620000Y-37568173D01*
X99920000Y-37568173D02*
X99920000Y-36918173D01*
D43*
X108583000Y-45246173D02*
X108605000Y-45268173D01*
D45*
X99920000Y-38927173D02*
X99920000Y-37568173D01*
D40*
X99270000Y-36918173D02*
X98945000Y-37243173D01*
X99920000Y-36918173D02*
X99270000Y-36918173D01*
D43*
X103061000Y-44048173D02*
X104259000Y-45246173D01*
D45*
X103061000Y-44048173D02*
X103061000Y-40844173D01*
D43*
X104259000Y-45246173D02*
X108583000Y-45246173D01*
D40*
%TO.N,Net-(Q1-Pad3)*%
X100007500Y-57740673D02*
X100787500Y-56960673D01*
X102747500Y-54180673D02*
X102292500Y-53725673D01*
X100787500Y-56960673D02*
X101194251Y-56960673D01*
X101194251Y-56960673D02*
X102747500Y-55407424D01*
X99922500Y-57740673D02*
X100007500Y-57740673D01*
X102747500Y-55407424D02*
X102747500Y-54180673D01*
X102292500Y-53725673D02*
X100242500Y-53725673D01*
%TO.N,Net-(Q1-Pad4)*%
X98787500Y-57675673D02*
X98852500Y-57740673D01*
X98787500Y-57080673D02*
X98787500Y-57675673D01*
X98852500Y-57740673D02*
X97972500Y-57740673D01*
%TO.N,Net-(Q2-Pad3)*%
X102745000Y-33934924D02*
X102745000Y-32708173D01*
X101191751Y-35488173D02*
X102745000Y-33934924D01*
X102745000Y-32708173D02*
X102290000Y-32253173D01*
X102290000Y-32253173D02*
X100240000Y-32253173D01*
X99920000Y-36268173D02*
X100005000Y-36268173D01*
X100785000Y-35488173D02*
X101191751Y-35488173D01*
X100005000Y-36268173D02*
X100785000Y-35488173D01*
%TO.N,Net-(Q2-Pad4)*%
X98785000Y-35608173D02*
X98785000Y-36203173D01*
X98785000Y-36203173D02*
X98850000Y-36268173D01*
X98850000Y-36268173D02*
X97970000Y-36268173D01*
%TO.N,Net-(R1-Pad1)*%
X103787500Y-54670673D02*
X104732500Y-53725673D01*
X105192500Y-53725673D02*
X108233500Y-53725673D01*
X101427500Y-57980673D02*
X101427500Y-57684983D01*
X103787500Y-55324983D02*
X103787500Y-54670673D01*
X108233500Y-53725673D02*
X108331000Y-53628173D01*
X101427500Y-57684983D02*
X103787500Y-55324983D01*
X104732500Y-53725673D02*
X105192500Y-53725673D01*
%TO.N,Net-(R3-Pad1)*%
X101425000Y-36508173D02*
X101425000Y-36212483D01*
X103785000Y-33852483D02*
X103785000Y-33198173D01*
X103785000Y-33198173D02*
X104730000Y-32253173D01*
X104730000Y-32253173D02*
X105190000Y-32253173D01*
X108100000Y-32253173D02*
X105190000Y-32253173D01*
X101425000Y-36212483D02*
X103785000Y-33852483D01*
X108215000Y-32138173D02*
X108100000Y-32253173D01*
%TO.N,Net-(Rfadj1-Pad1)*%
X98840749Y-53970673D02*
X99865749Y-54995673D01*
X95962500Y-57545673D02*
X95962500Y-54668972D01*
X99865749Y-54995673D02*
X100242500Y-54995673D01*
X95962500Y-54668972D02*
X96660799Y-53970673D01*
X96660799Y-53970673D02*
X98840749Y-53970673D01*
X96347500Y-57930673D02*
X95962500Y-57545673D01*
%TO.N,Net-(Rfadj2-Pad1)*%
X98838249Y-32498173D02*
X99863249Y-33523173D01*
X95960000Y-36073173D02*
X95960000Y-33196472D01*
X99863249Y-33523173D02*
X100240000Y-33523173D01*
X96345000Y-36458173D02*
X95960000Y-36073173D01*
X95960000Y-33196472D02*
X96658299Y-32498173D01*
X96658299Y-32498173D02*
X98838249Y-32498173D01*
D44*
%TO.N,Net-(C1-Pad1)*%
X119235000Y-58858173D02*
X119235000Y-55178173D01*
D43*
X115007500Y-66740673D02*
X111947500Y-63680673D01*
X111947500Y-63680673D02*
X111947500Y-61073173D01*
D47*
X114094000Y-61073173D02*
X116309000Y-58858173D01*
X111947500Y-61073173D02*
X114094000Y-61073173D01*
X116309000Y-58858173D02*
X119235000Y-58858173D01*
%TD*%
M02*
