M48
; DRILL file {KiCad 6.0.7+dfsg-3} date Thu 06 Oct 2022 09:03:08 AM EDT
; FORMAT={-:-/ absolute / inch / decimal}
; #@! TF.CreationDate,2022-10-06T09:03:08-04:00
; #@! TF.GenerationSoftware,Kicad,Pcbnew,6.0.7+dfsg-3
; #@! TF.FileFunction,Plated,1,4,PTH
FMAT,2
INCH
; #@! TA.AperFunction,Plated,PTH,ViaDrill
T1C0.0157
; #@! TA.AperFunction,Plated,PTH,ComponentDrill
T2C0.0354
; #@! TA.AperFunction,Plated,PTH,ComponentDrill
T3C0.0394
%
G90
G05
T1
X1.1111Y-3.6533
X1.1434Y-3.4395
X1.1591Y-3.6596
X1.2189Y-1.4866
X1.2682Y-3.5018
X1.3343Y-3.5242
X1.3506Y-3.5609
X1.3619Y-3.7088
X1.4354Y-1.5654
X1.4756Y-3.4305
X1.5252Y-3.7315
X1.5348Y-3.5431
X1.5888Y-3.5785
X1.5908Y-3.5215
X1.5929Y-1.2701
X1.7504Y-1.2416
X1.7985Y-3.6726
X1.8567Y-3.5541
X1.9531Y-3.4062
X1.9544Y-3.569
X1.9638Y-3.512
X1.9866Y-1.1618
X1.9962Y-3.3402
X2.043Y-3.3064
X2.1524Y-3.4826
X2.1778Y-3.4525
X2.2052Y-3.486
X2.2126Y-3.5517
X2.213Y-1.4079
X2.2262Y-3.3925
X2.2497Y-3.7246
X2.2583Y-3.6572
X2.2731Y-3.4105
X2.2834Y-1.1279
X2.2917Y-1.2996
X2.3016Y-3.458
X2.3606Y-1.4079
X2.3792Y-3.4998
X2.3892Y-4.5
X2.4187Y-3.6248
X2.5937Y-3.5868
X2.715Y-1.2504
X2.902Y-1.2996
X3.1579Y-1.526
X3.2366Y-1.7622
X3.795Y-2.4313
X3.815Y-1.5913
X3.8892Y-1.4019
X3.8893Y-2.2473
X3.905Y-2.3613
X3.925Y-1.5213
X4.1413Y-1.3989
X4.1414Y-2.2443
X4.155Y-1.6913
X4.165Y-2.5113
X4.2195Y-1.3779
X4.2196Y-2.2233
X4.2604Y-1.2653
X4.265Y-2.1113
T2
X1.2783Y-2.3028
X1.2783Y-2.4996
X1.2783Y-2.8209
X1.2783Y-3.0177
X1.3768Y-2.4012
X1.3768Y-2.9193
X2.1835Y-2.8213
X2.1835Y-3.0181
X2.1846Y-2.3035
X2.1846Y-2.5004
X2.2819Y-2.9197
X2.2831Y-2.402
T3
X1.0516Y-1.2986
X1.0516Y-1.3986
X1.1299Y-1.7752
X1.1299Y-1.9087
X1.1303Y-0.9323
X1.1303Y-1.0545
X1.1303Y-1.6535
X1.1744Y-2.2732
X1.1744Y-2.3732
X1.1744Y-2.4732
X1.1744Y-2.7913
X1.1744Y-2.8913
X1.1744Y-2.9913
X1.1969Y-3.26
X1.1969Y-3.86
X1.2087Y-4.3753
X1.2087Y-4.5204
X1.2099Y-4.0698
X1.2099Y-4.6698
X1.2299Y-1.7752
X1.2299Y-1.9087
X1.2303Y-0.9323
X1.2303Y-1.0545
X1.2303Y-1.6535
X1.2969Y-3.26
X1.2969Y-3.86
X1.3087Y-4.3753
X1.3087Y-4.5204
X1.3099Y-4.0698
X1.3099Y-4.6698
X1.3299Y-1.7752
X1.3299Y-1.9087
X1.3303Y-0.9323
X1.3303Y-1.0545
X1.3303Y-1.6535
X1.3969Y-3.26
X1.3969Y-3.86
X1.4099Y-4.0698
X1.4099Y-4.6698
X1.4299Y-1.7752
X1.4303Y-0.9323
X1.4303Y-1.0545
X1.4303Y-1.6535
X1.4969Y-3.26
X1.4969Y-3.86
X1.5099Y-4.0698
X1.5099Y-4.6698
X1.513Y-2.222
X1.513Y-2.4386
X1.513Y-2.7402
X1.513Y-2.9567
X1.5299Y-1.7752
X1.5303Y-0.9323
X1.5303Y-1.0545
X1.5303Y-1.6535
X1.5323Y-1.9087
X1.5969Y-3.26
X1.5969Y-3.86
X1.6099Y-4.0698
X1.6099Y-4.6698
X1.613Y-2.222
X1.613Y-2.4386
X1.613Y-2.7402
X1.613Y-2.9567
X1.6299Y-1.7752
X1.6303Y-0.9323
X1.6303Y-1.0545
X1.6303Y-1.6535
X1.6323Y-1.9087
X1.6969Y-3.26
X1.6969Y-3.86
X1.7099Y-4.0698
X1.7099Y-4.6698
X1.7299Y-1.7752
X1.7303Y-0.9323
X1.7303Y-1.0545
X1.7303Y-1.6535
X1.7323Y-1.9087
X1.7406Y-3.4815
X1.7408Y-3.6255
X1.7969Y-3.26
X1.7969Y-3.86
X1.8099Y-4.0698
X1.8099Y-4.6698
X1.8299Y-1.7752
X1.8303Y-0.9323
X1.8303Y-1.0545
X1.8303Y-1.6535
X1.8406Y-3.4815
X1.8408Y-3.6255
X1.8969Y-3.26
X1.8969Y-3.86
X1.9099Y-4.0698
X1.9099Y-4.6698
X1.9264Y-1.9083
X1.9299Y-1.7752
X1.9303Y-0.9323
X1.9303Y-1.0545
X1.9303Y-1.6535
X1.9969Y-3.26
X1.9969Y-3.86
X2.0099Y-4.0698
X2.0099Y-4.6698
X2.0264Y-1.9083
X2.0299Y-1.7752
X2.0303Y-0.9323
X2.0303Y-1.0545
X2.0303Y-1.6535
X2.0795Y-2.7917
X2.0795Y-2.8917
X2.0795Y-2.9917
X2.0807Y-2.274
X2.0807Y-2.374
X2.0807Y-2.474
X2.0969Y-3.26
X2.0969Y-3.86
X2.1099Y-4.0698
X2.1099Y-4.6698
X2.1205Y-1.2012
X2.1264Y-1.9083
X2.1299Y-1.7752
X2.1303Y-0.9323
X2.1303Y-1.0545
X2.1303Y-1.6535
X2.1969Y-3.26
X2.1969Y-3.86
X2.2099Y-4.0698
X2.2099Y-4.6698
X2.2205Y-1.2012
X2.2299Y-1.7752
X2.2303Y-0.9323
X2.2303Y-1.0545
X2.2303Y-1.6535
X2.2347Y-4.2187
X2.2347Y-4.3187
X2.2347Y-4.4187
X2.2347Y-4.5187
X2.2969Y-3.26
X2.2969Y-3.86
X2.3099Y-4.0698
X2.3099Y-4.6698
X2.3205Y-1.2012
X2.3299Y-1.7752
X2.3301Y-1.9083
X2.3303Y-0.9323
X2.3303Y-1.0545
X2.3303Y-1.6535
X2.3347Y-4.2187
X2.3347Y-4.3187
X2.3347Y-4.4187
X2.3347Y-4.5187
X2.3969Y-3.26
X2.3969Y-3.86
X2.4099Y-4.0698
X2.4099Y-4.6698
X2.4181Y-2.7406
X2.4181Y-2.9571
X2.4193Y-2.2228
X2.4193Y-2.4394
X2.4299Y-1.7752
X2.4301Y-1.9083
X2.4303Y-0.9323
X2.4303Y-1.0545
X2.4303Y-1.6535
X2.4969Y-3.26
X2.4969Y-3.86
X2.5099Y-4.0698
X2.5099Y-4.6698
X2.5181Y-2.7406
X2.5181Y-2.9571
X2.5193Y-2.2228
X2.5193Y-2.4394
X2.5299Y-1.7752
X2.5301Y-1.9083
X2.5303Y-0.9323
X2.5303Y-1.0545
X2.5303Y-1.6535
X2.5969Y-3.26
X2.5969Y-3.86
X2.6099Y-4.0698
X2.6099Y-4.6698
X2.6299Y-1.7752
X2.6303Y-0.9323
X2.6303Y-1.0545
X2.6303Y-1.6535
X2.6969Y-3.26
X2.6969Y-3.86
X2.7099Y-4.0698
X2.7099Y-4.6698
X2.7299Y-1.7752
X2.7303Y-0.9323
X2.7303Y-1.0545
X2.7303Y-1.6535
X2.7969Y-3.26
X2.7969Y-3.86
X2.8067Y-1.9094
X2.8099Y-4.0698
X2.8099Y-4.6698
X2.8299Y-1.7752
X2.8303Y-0.9323
X2.8303Y-1.0545
X2.8303Y-1.6535
X2.8969Y-3.26
X2.8969Y-3.86
X2.9067Y-1.9094
X2.9099Y-4.0698
X2.9099Y-4.6698
X2.9299Y-1.7752
X2.9303Y-0.9323
X2.9303Y-1.0545
X2.9303Y-1.6535
X2.9969Y-3.26
X2.9969Y-3.86
X3.0067Y-1.9094
X3.0099Y-4.0698
X3.0099Y-4.6698
X3.0299Y-1.7752
X3.0303Y-0.9323
X3.0303Y-1.0545
X3.0303Y-1.6535
X3.0969Y-3.26
X3.0969Y-3.86
X3.1099Y-4.0698
X3.1099Y-4.6698
X3.2356Y-1.0535
X3.2356Y-1.6539
X3.2446Y-3.3533
X3.2446Y-3.4533
X3.2446Y-3.5533
X3.2446Y-3.6533
X3.2446Y-3.7533
X3.2589Y-4.1745
X3.2589Y-4.2745
X3.2589Y-4.3745
X3.2589Y-4.4745
X3.2589Y-4.5745
X3.3154Y-1.2996
X3.3154Y-1.3996
X3.3356Y-1.0535
X3.3356Y-1.6539
X3.8242Y-1.2261
X3.8242Y-1.3261
X3.8243Y-2.0715
X3.8243Y-2.1715
X4.6943Y-2.0724
X4.6943Y-2.1724
X4.6943Y-2.3173
X4.6943Y-2.4173
X4.6947Y-1.2269
X4.6947Y-1.3269
X4.6951Y-1.4712
X4.6951Y-1.5712
T0
M30
