%TF.GenerationSoftware,KiCad,Pcbnew,6.0.7+dfsg-1~bpo11+1*%
%TF.CreationDate,2022-09-15T22:54:34-04:00*%
%TF.ProjectId,COMPLETE_PCB,434f4d50-4c45-4544-955f-5043422e6b69,rev?*%
%TF.SameCoordinates,Original*%
%TF.FileFunction,Paste,Bot*%
%TF.FilePolarity,Positive*%
%FSLAX46Y46*%
G04 Gerber Fmt 4.6, Leading zero omitted, Abs format (unit mm)*
G04 Created by KiCad (PCBNEW 6.0.7+dfsg-1~bpo11+1) date 2022-09-15 22:54:34*
%MOMM*%
%LPD*%
G01*
G04 APERTURE LIST*
G04 Aperture macros list*
%AMRoundRect*
0 Rectangle with rounded corners*
0 $1 Rounding radius*
0 $2 $3 $4 $5 $6 $7 $8 $9 X,Y pos of 4 corners*
0 Add a 4 corners polygon primitive as box body*
4,1,4,$2,$3,$4,$5,$6,$7,$8,$9,$2,$3,0*
0 Add four circle primitives for the rounded corners*
1,1,$1+$1,$2,$3*
1,1,$1+$1,$4,$5*
1,1,$1+$1,$6,$7*
1,1,$1+$1,$8,$9*
0 Add four rect primitives between the rounded corners*
20,1,$1+$1,$2,$3,$4,$5,0*
20,1,$1+$1,$4,$5,$6,$7,0*
20,1,$1+$1,$6,$7,$8,$9,0*
20,1,$1+$1,$8,$9,$2,$3,0*%
G04 Aperture macros list end*
%ADD10RoundRect,0.237500X-0.300000X-0.237500X0.300000X-0.237500X0.300000X0.237500X-0.300000X0.237500X0*%
%ADD11R,0.450000X1.750000*%
%ADD12RoundRect,0.250000X-0.350000X-0.450000X0.350000X-0.450000X0.350000X0.450000X-0.350000X0.450000X0*%
%ADD13RoundRect,0.250000X0.350000X0.450000X-0.350000X0.450000X-0.350000X-0.450000X0.350000X-0.450000X0*%
%ADD14R,2.999300X2.057400*%
%ADD15RoundRect,0.150000X0.825000X0.150000X-0.825000X0.150000X-0.825000X-0.150000X0.825000X-0.150000X0*%
%ADD16RoundRect,0.250000X-0.337500X-0.475000X0.337500X-0.475000X0.337500X0.475000X-0.337500X0.475000X0*%
%ADD17RoundRect,0.250000X-0.475000X0.337500X-0.475000X-0.337500X0.475000X-0.337500X0.475000X0.337500X0*%
%ADD18RoundRect,0.150000X-0.150000X0.587500X-0.150000X-0.587500X0.150000X-0.587500X0.150000X0.587500X0*%
%ADD19RoundRect,0.250000X0.450000X-0.325000X0.450000X0.325000X-0.450000X0.325000X-0.450000X-0.325000X0*%
%ADD20RoundRect,0.250000X0.475000X-0.337500X0.475000X0.337500X-0.475000X0.337500X-0.475000X-0.337500X0*%
%ADD21RoundRect,0.237500X0.237500X-0.300000X0.237500X0.300000X-0.237500X0.300000X-0.237500X-0.300000X0*%
%ADD22RoundRect,0.250000X0.325000X0.450000X-0.325000X0.450000X-0.325000X-0.450000X0.325000X-0.450000X0*%
%ADD23RoundRect,0.250000X-0.450000X0.350000X-0.450000X-0.350000X0.450000X-0.350000X0.450000X0.350000X0*%
%ADD24RoundRect,0.250000X0.337500X0.475000X-0.337500X0.475000X-0.337500X-0.475000X0.337500X-0.475000X0*%
%ADD25RoundRect,0.250000X0.450000X-0.350000X0.450000X0.350000X-0.450000X0.350000X-0.450000X-0.350000X0*%
%ADD26RoundRect,0.250000X-0.325000X-0.450000X0.325000X-0.450000X0.325000X0.450000X-0.325000X0.450000X0*%
%ADD27RoundRect,0.250000X0.400000X0.625000X-0.400000X0.625000X-0.400000X-0.625000X0.400000X-0.625000X0*%
G04 APERTURE END LIST*
D10*
%TO.C,C9*%
X63941200Y-84574099D03*
X65666200Y-84574099D03*
%TD*%
D11*
%TO.C,U3*%
X32955400Y-85617699D03*
X33605400Y-85617699D03*
X34255400Y-85617699D03*
X34905400Y-85617699D03*
X35555400Y-85617699D03*
X36205400Y-85617699D03*
X36855400Y-85617699D03*
X37505400Y-85617699D03*
X38155400Y-85617699D03*
X38805400Y-85617699D03*
X39455400Y-85617699D03*
X40105400Y-85617699D03*
X40755400Y-85617699D03*
X41405400Y-85617699D03*
X41405400Y-92817699D03*
X40755400Y-92817699D03*
X40105400Y-92817699D03*
X39455400Y-92817699D03*
X38805400Y-92817699D03*
X38155400Y-92817699D03*
X37505400Y-92817699D03*
X36855400Y-92817699D03*
X36205400Y-92817699D03*
X35555400Y-92817699D03*
X34905400Y-92817699D03*
X34255400Y-92817699D03*
X33605400Y-92817699D03*
X32955400Y-92817699D03*
%TD*%
D12*
%TO.C,R8*%
X43791200Y-86614099D03*
X45791200Y-86614099D03*
%TD*%
D13*
%TO.C,R1*%
X52601200Y-90694099D03*
X50601200Y-90694099D03*
%TD*%
D14*
%TO.C,Y1*%
X61004550Y-86842799D03*
X52980250Y-86842799D03*
%TD*%
D15*
%TO.C,U2*%
X59975400Y-90157499D03*
X59975400Y-91427499D03*
X59975400Y-92697499D03*
X59975400Y-93967499D03*
X55025400Y-93967499D03*
X55025400Y-92697499D03*
X55025400Y-91427499D03*
X55025400Y-90157499D03*
%TD*%
D16*
%TO.C,C7*%
X46803700Y-95354099D03*
X48878700Y-95354099D03*
%TD*%
D17*
%TO.C,C3*%
X48651200Y-87556599D03*
X48651200Y-89631599D03*
%TD*%
D12*
%TO.C,R3*%
X50633000Y-94653299D03*
X52633000Y-94653299D03*
%TD*%
D18*
%TO.C,Q1*%
X63521200Y-86386599D03*
X65421200Y-86386599D03*
X64471200Y-88261599D03*
%TD*%
%TO.C,Q2*%
X62333600Y-92273599D03*
X64233600Y-92273599D03*
X63283600Y-94148599D03*
%TD*%
D19*
%TO.C,D2*%
X30641200Y-91059099D03*
X30641200Y-89009099D03*
%TD*%
D20*
%TO.C,C5*%
X48711200Y-93461599D03*
X48711200Y-91386599D03*
%TD*%
D12*
%TO.C,R7*%
X34821200Y-95664099D03*
X36821200Y-95664099D03*
%TD*%
D21*
%TO.C,C10*%
X28691200Y-90976599D03*
X28691200Y-89251599D03*
%TD*%
D16*
%TO.C,C2*%
X45873700Y-84644099D03*
X47948700Y-84644099D03*
%TD*%
D12*
%TO.C,R4*%
X50627400Y-92668899D03*
X52627400Y-92668899D03*
%TD*%
%TO.C,R2*%
X62131200Y-90284099D03*
X64131200Y-90284099D03*
%TD*%
D22*
%TO.C,D1*%
X31804600Y-95440699D03*
X29754600Y-95440699D03*
%TD*%
D15*
%TO.C,U3*%
X67435000Y-34105000D03*
X67435000Y-35375000D03*
X67435000Y-36645000D03*
X67435000Y-37915000D03*
X62485000Y-37915000D03*
X62485000Y-36645000D03*
X62485000Y-35375000D03*
X62485000Y-34105000D03*
%TD*%
D23*
%TO.C,R2*%
X75210000Y-34510000D03*
X75210000Y-36510000D03*
%TD*%
D16*
%TO.C,C2*%
X48922500Y-37260000D03*
X50997500Y-37260000D03*
%TD*%
D22*
%TO.C,D4*%
X80235000Y-33760000D03*
X78185000Y-33760000D03*
%TD*%
D24*
%TO.C,C4*%
X41497500Y-30510000D03*
X39422500Y-30510000D03*
%TD*%
D16*
%TO.C,C6*%
X70422500Y-34760000D03*
X72497500Y-34760000D03*
%TD*%
%TO.C,C10*%
X70422500Y-31760000D03*
X72497500Y-31760000D03*
%TD*%
D25*
%TO.C,R1*%
X35710000Y-35010000D03*
X35710000Y-33010000D03*
%TD*%
D26*
%TO.C,D3*%
X78185000Y-37010000D03*
X80235000Y-37010000D03*
%TD*%
D24*
%TO.C,C13*%
X81672500Y-46260000D03*
X83747500Y-46260000D03*
%TD*%
D16*
%TO.C,C3*%
X48922500Y-31260000D03*
X50997500Y-31260000D03*
%TD*%
%TO.C,C1*%
X48922500Y-34260000D03*
X50997500Y-34260000D03*
%TD*%
D24*
%TO.C,C11*%
X64497500Y-31010000D03*
X62422500Y-31010000D03*
%TD*%
D22*
%TO.C,D1*%
X32985000Y-36260000D03*
X30935000Y-36260000D03*
%TD*%
D15*
%TO.C,U1*%
X44435000Y-33605000D03*
X44435000Y-34875000D03*
X44435000Y-36145000D03*
X44435000Y-37415000D03*
X39485000Y-37415000D03*
X39485000Y-36145000D03*
X39485000Y-34875000D03*
X39485000Y-33605000D03*
%TD*%
D16*
%TO.C,C7*%
X70422500Y-37760000D03*
X72497500Y-37760000D03*
%TD*%
D26*
%TO.C,D2*%
X30935000Y-33010000D03*
X32985000Y-33010000D03*
%TD*%
D12*
%TO.C,Ccomp1*%
X110937500Y-56980673D03*
X112937500Y-56980673D03*
%TD*%
D27*
%TO.C,Rsense1*%
X106467500Y-52760673D03*
X103367500Y-52760673D03*
%TD*%
D13*
%TO.C,Rcomp2*%
X112935000Y-33418173D03*
X110935000Y-33418173D03*
%TD*%
D20*
%TO.C,Cbyp2*%
X101425000Y-33095673D03*
X101425000Y-31020673D03*
%TD*%
%TO.C,Cin1*%
X99407500Y-54578173D03*
X99407500Y-52503173D03*
%TD*%
D12*
%TO.C,R4*%
X107175000Y-33418173D03*
X109175000Y-33418173D03*
%TD*%
D13*
%TO.C,Rcomp1*%
X112937500Y-54890673D03*
X110937500Y-54890673D03*
%TD*%
D27*
%TO.C,Rsense2*%
X106465000Y-31288173D03*
X103365000Y-31288173D03*
%TD*%
D20*
%TO.C,Cbyp1*%
X101427500Y-54568173D03*
X101427500Y-52493173D03*
%TD*%
D12*
%TO.C,R2*%
X107177500Y-54890673D03*
X109177500Y-54890673D03*
%TD*%
%TO.C,Ccomp4*%
X110935000Y-35508173D03*
X112935000Y-35508173D03*
%TD*%
D20*
%TO.C,Cin2*%
X99405000Y-33105673D03*
X99405000Y-31030673D03*
%TD*%
D12*
%TO.C,Rfilt1*%
X103337500Y-54890673D03*
X105337500Y-54890673D03*
%TD*%
%TO.C,Rfilt2*%
X103335000Y-33418173D03*
X105335000Y-33418173D03*
%TD*%
M02*
