%TF.GenerationSoftware,KiCad,Pcbnew,6.0.7+dfsg-3*%
%TF.CreationDate,2022-10-06T09:03:11-04:00*%
%TF.ProjectId,COMPLETE_PCB,434f4d50-4c45-4544-955f-5043422e6b69,rev?*%
%TF.SameCoordinates,Original*%
%TF.FileFunction,Soldermask,Bot*%
%TF.FilePolarity,Negative*%
%FSLAX46Y46*%
G04 Gerber Fmt 4.6, Leading zero omitted, Abs format (unit mm)*
G04 Created by KiCad (PCBNEW 6.0.7+dfsg-3) date 2022-10-06 09:03:11*
%MOMM*%
%LPD*%
G01*
G04 APERTURE LIST*
G04 Aperture macros list*
%AMRoundRect*
0 Rectangle with rounded corners*
0 $1 Rounding radius*
0 $2 $3 $4 $5 $6 $7 $8 $9 X,Y pos of 4 corners*
0 Add a 4 corners polygon primitive as box body*
4,1,4,$2,$3,$4,$5,$6,$7,$8,$9,$2,$3,0*
0 Add four circle primitives for the rounded corners*
1,1,$1+$1,$2,$3*
1,1,$1+$1,$4,$5*
1,1,$1+$1,$6,$7*
1,1,$1+$1,$8,$9*
0 Add four rect primitives between the rounded corners*
20,1,$1+$1,$2,$3,$4,$5,0*
20,1,$1+$1,$4,$5,$6,$7,0*
20,1,$1+$1,$6,$7,$8,$9,0*
20,1,$1+$1,$8,$9,$2,$3,0*%
G04 Aperture macros list end*
%ADD10C,0.900000*%
%ADD11R,0.450000X1.750000*%
%ADD12R,1.700000X1.700000*%
%ADD13O,1.700000X1.700000*%
%ADD14C,1.000000*%
%ADD15C,2.500000*%
%ADD16C,1.500000*%
%ADD17C,1.620000*%
%ADD18RoundRect,0.250000X-0.337500X-0.475000X0.337500X-0.475000X0.337500X0.475000X-0.337500X0.475000X0*%
%ADD19RoundRect,0.250000X-0.450000X0.350000X-0.450000X-0.350000X0.450000X-0.350000X0.450000X0.350000X0*%
%ADD20RoundRect,0.250000X0.350000X0.450000X-0.350000X0.450000X-0.350000X-0.450000X0.350000X-0.450000X0*%
%ADD21RoundRect,0.250000X0.475000X-0.337500X0.475000X0.337500X-0.475000X0.337500X-0.475000X-0.337500X0*%
%ADD22RoundRect,0.250000X-0.325000X-0.450000X0.325000X-0.450000X0.325000X0.450000X-0.325000X0.450000X0*%
%ADD23RoundRect,0.250000X0.337500X0.475000X-0.337500X0.475000X-0.337500X-0.475000X0.337500X-0.475000X0*%
%ADD24RoundRect,0.250000X-0.350000X-0.450000X0.350000X-0.450000X0.350000X0.450000X-0.350000X0.450000X0*%
%ADD25RoundRect,0.150000X0.825000X0.150000X-0.825000X0.150000X-0.825000X-0.150000X0.825000X-0.150000X0*%
%ADD26RoundRect,0.237500X0.237500X-0.300000X0.237500X0.300000X-0.237500X0.300000X-0.237500X-0.300000X0*%
%ADD27RoundRect,0.250000X-0.475000X0.337500X-0.475000X-0.337500X0.475000X-0.337500X0.475000X0.337500X0*%
%ADD28RoundRect,0.250000X0.325000X0.450000X-0.325000X0.450000X-0.325000X-0.450000X0.325000X-0.450000X0*%
%ADD29RoundRect,0.237500X-0.300000X-0.237500X0.300000X-0.237500X0.300000X0.237500X-0.300000X0.237500X0*%
%ADD30RoundRect,0.150000X-0.150000X0.587500X-0.150000X-0.587500X0.150000X-0.587500X0.150000X0.587500X0*%
%ADD31R,2.999300X2.057400*%
%ADD32RoundRect,0.250000X0.450000X-0.350000X0.450000X0.350000X-0.450000X0.350000X-0.450000X-0.350000X0*%
%ADD33RoundRect,0.250000X0.450000X-0.325000X0.450000X0.325000X-0.450000X0.325000X-0.450000X-0.325000X0*%
%ADD34RoundRect,0.250000X0.400000X0.625000X-0.400000X0.625000X-0.400000X-0.625000X0.400000X-0.625000X0*%
G04 APERTURE END LIST*
D10*
%TO.C,J1*%
X33497400Y-87953899D03*
%TD*%
D11*
%TO.C,U3*%
X32955400Y-85617699D03*
X33605400Y-85617699D03*
X34255400Y-85617699D03*
X34905400Y-85617699D03*
X35555400Y-85617699D03*
X36205400Y-85617699D03*
X36855400Y-85617699D03*
X37505400Y-85617699D03*
X38155400Y-85617699D03*
X38805400Y-85617699D03*
X39455400Y-85617699D03*
X40105400Y-85617699D03*
X40755400Y-85617699D03*
X41405400Y-85617699D03*
X41405400Y-92817699D03*
X40755400Y-92817699D03*
X40105400Y-92817699D03*
X39455400Y-92817699D03*
X38805400Y-92817699D03*
X38155400Y-92817699D03*
X37505400Y-92817699D03*
X36855400Y-92817699D03*
X36205400Y-92817699D03*
X35555400Y-92817699D03*
X34905400Y-92817699D03*
X34255400Y-92817699D03*
X33605400Y-92817699D03*
X32955400Y-92817699D03*
%TD*%
D12*
%TO.C,J8*%
X52850000Y-57760000D03*
D13*
X52850000Y-60300000D03*
X52850000Y-62840000D03*
%TD*%
D12*
%TO.C,J4*%
X84210000Y-33010000D03*
D13*
X84210000Y-35550000D03*
%TD*%
D12*
%TO.C,J3*%
X26710000Y-32985000D03*
D13*
X26710000Y-35525000D03*
%TD*%
D12*
%TO.C,J17*%
X59185000Y-48470000D03*
D13*
X61725000Y-48470000D03*
X64265000Y-48470000D03*
%TD*%
D14*
%TO.C,U7*%
X42150000Y-77000000D03*
D15*
X37800000Y-72350000D03*
X41600000Y-72350000D03*
D16*
X38430000Y-69600000D03*
X40970000Y-69600000D03*
X38430000Y-75100000D03*
X40970000Y-75100000D03*
%TD*%
D12*
%TO.C,J14*%
X28710000Y-23680000D03*
D13*
X31250000Y-23680000D03*
X33790000Y-23680000D03*
X36330000Y-23680000D03*
X38870000Y-23680000D03*
X41410000Y-23680000D03*
X43950000Y-23680000D03*
X46490000Y-23680000D03*
X49030000Y-23680000D03*
X51570000Y-23680000D03*
X54110000Y-23680000D03*
X56650000Y-23680000D03*
X59190000Y-23680000D03*
X61730000Y-23680000D03*
X64270000Y-23680000D03*
X66810000Y-23680000D03*
X69350000Y-23680000D03*
X71890000Y-23680000D03*
X74430000Y-23680000D03*
X76970000Y-23680000D03*
%TD*%
D17*
%TO.C,RV4*%
X55460000Y-71660000D03*
X57960000Y-74160000D03*
X55460000Y-76660000D03*
%TD*%
D12*
%TO.C,JP1*%
X53860000Y-30510000D03*
D13*
X56400000Y-30510000D03*
X58940000Y-30510000D03*
%TD*%
D15*
%TO.C,U6*%
X64620000Y-59210000D03*
X60820000Y-59210000D03*
D14*
X65170000Y-63860000D03*
D16*
X61450000Y-56460000D03*
X63990000Y-56460000D03*
X61450000Y-61960000D03*
X63990000Y-61960000D03*
%TD*%
D12*
%TO.C,J5*%
X119255000Y-37368173D03*
D13*
X119255000Y-39908173D03*
%TD*%
D12*
%TO.C,J11*%
X52820000Y-70910000D03*
D13*
X52820000Y-73450000D03*
X52820000Y-75990000D03*
%TD*%
D12*
%TO.C,JP2*%
X44211200Y-88430299D03*
D13*
X46751200Y-88430299D03*
%TD*%
D12*
%TO.C,J8*%
X82775800Y-106032499D03*
D13*
X82775800Y-108572499D03*
X82775800Y-111112499D03*
X82775800Y-113652499D03*
X82775800Y-116192499D03*
%TD*%
D17*
%TO.C,RV1*%
X32470000Y-58490000D03*
X34970000Y-60990000D03*
X32470000Y-63490000D03*
%TD*%
D12*
%TO.C,J7*%
X29830000Y-57740000D03*
D13*
X29830000Y-60280000D03*
X29830000Y-62820000D03*
%TD*%
D12*
%TO.C,J2*%
X82185000Y-26760000D03*
D13*
X84725000Y-26760000D03*
%TD*%
D12*
%TO.C,J3*%
X30401200Y-98044099D03*
D13*
X32941200Y-98044099D03*
X35481200Y-98044099D03*
X38021200Y-98044099D03*
X40561200Y-98044099D03*
X43101200Y-98044099D03*
X45641200Y-98044099D03*
X48181200Y-98044099D03*
X50721200Y-98044099D03*
X53261200Y-98044099D03*
X55801200Y-98044099D03*
X58341200Y-98044099D03*
X60881200Y-98044099D03*
X63421200Y-98044099D03*
X65961200Y-98044099D03*
X68501200Y-98044099D03*
X71041200Y-98044099D03*
X73581200Y-98044099D03*
X76121200Y-98044099D03*
X78661200Y-98044099D03*
%TD*%
D12*
%TO.C,J5*%
X28710000Y-26785400D03*
D13*
X31250000Y-26785400D03*
X33790000Y-26785400D03*
X36330000Y-26785400D03*
X38870000Y-26785400D03*
X41410000Y-26785400D03*
X43950000Y-26785400D03*
X46490000Y-26785400D03*
X49030000Y-26785400D03*
X51570000Y-26785400D03*
X54110000Y-26785400D03*
X56650000Y-26785400D03*
X59190000Y-26785400D03*
X61730000Y-26785400D03*
X64270000Y-26785400D03*
X66810000Y-26785400D03*
X69350000Y-26785400D03*
X71890000Y-26785400D03*
X74430000Y-26785400D03*
X76970000Y-26785400D03*
%TD*%
D12*
%TO.C,J1*%
X97137500Y-52615673D03*
D13*
X97137500Y-55155673D03*
%TD*%
D12*
%TO.C,J9*%
X71290000Y-48500000D03*
D13*
X73830000Y-48500000D03*
X76370000Y-48500000D03*
%TD*%
D12*
%TO.C,JP1*%
X44216200Y-92087899D03*
D13*
X46756200Y-92087899D03*
%TD*%
D12*
%TO.C,JP4*%
X30701200Y-111133299D03*
D13*
X33241200Y-111133299D03*
%TD*%
D12*
%TO.C,J16*%
X48930000Y-48470000D03*
D13*
X51470000Y-48470000D03*
X54010000Y-48470000D03*
%TD*%
D12*
%TO.C,J3*%
X97135000Y-31143173D03*
D13*
X97135000Y-33683173D03*
%TD*%
D15*
%TO.C,U8*%
X64590000Y-72360000D03*
X60790000Y-72360000D03*
D14*
X65140000Y-77010000D03*
D16*
X61420000Y-69610000D03*
X63960000Y-69610000D03*
X61420000Y-75110000D03*
X63960000Y-75110000D03*
%TD*%
D12*
%TO.C,J2*%
X59301200Y-107155499D03*
D13*
X56761200Y-107155499D03*
X59301200Y-109695499D03*
X56761200Y-109695499D03*
X59301200Y-112235499D03*
X56761200Y-112235499D03*
X59301200Y-114775499D03*
X56761200Y-114775499D03*
%TD*%
D12*
%TO.C,J10*%
X29830000Y-70900000D03*
D13*
X29830000Y-73440000D03*
X29830000Y-75980000D03*
%TD*%
D12*
%TO.C,J6*%
X30401200Y-82804099D03*
D13*
X32941200Y-82804099D03*
X35481200Y-82804099D03*
X38021200Y-82804099D03*
X40561200Y-82804099D03*
X43101200Y-82804099D03*
X45641200Y-82804099D03*
X48181200Y-82804099D03*
X50721200Y-82804099D03*
X53261200Y-82804099D03*
X55801200Y-82804099D03*
X58341200Y-82804099D03*
X60881200Y-82804099D03*
X63421200Y-82804099D03*
X65961200Y-82804099D03*
X68501200Y-82804099D03*
X71041200Y-82804099D03*
X73581200Y-82804099D03*
X76121200Y-82804099D03*
X78661200Y-82804099D03*
%TD*%
D12*
%TO.C,J4*%
X119245000Y-33703173D03*
D13*
X119245000Y-31163173D03*
%TD*%
D17*
%TO.C,RV3*%
X32470000Y-71650000D03*
X34970000Y-74150000D03*
X32470000Y-76650000D03*
%TD*%
%TO.C,RV2*%
X55490000Y-58510000D03*
X57990000Y-61010000D03*
X55490000Y-63510000D03*
%TD*%
D12*
%TO.C,J6*%
X119235000Y-55178173D03*
D13*
X119235000Y-52638173D03*
%TD*%
D12*
%TO.C,JP3*%
X30701200Y-114818099D03*
D13*
X33241200Y-114818099D03*
%TD*%
D12*
%TO.C,J1*%
X82185000Y-42010000D03*
D13*
X84725000Y-42010000D03*
%TD*%
D12*
%TO.C,J2*%
X119235000Y-58858173D03*
D13*
X119235000Y-61398173D03*
%TD*%
D12*
%TO.C,J13*%
X38920000Y-48480000D03*
D13*
X41460000Y-48480000D03*
X44000000Y-48480000D03*
%TD*%
D12*
%TO.C,J12*%
X28700000Y-48480000D03*
D13*
X31240000Y-48480000D03*
X33780000Y-48480000D03*
%TD*%
D12*
%TO.C,J6*%
X28710000Y-42000000D03*
D13*
X31250000Y-42000000D03*
X33790000Y-42000000D03*
X36330000Y-42000000D03*
X38870000Y-42000000D03*
X41410000Y-42000000D03*
X43950000Y-42000000D03*
X46490000Y-42000000D03*
X49030000Y-42000000D03*
X51570000Y-42000000D03*
X54110000Y-42000000D03*
X56650000Y-42000000D03*
X59190000Y-42000000D03*
X61730000Y-42000000D03*
X64270000Y-42000000D03*
X66810000Y-42000000D03*
X69350000Y-42000000D03*
X71890000Y-42000000D03*
X74430000Y-42000000D03*
X76970000Y-42000000D03*
%TD*%
D12*
%TO.C,J15*%
X28700000Y-45090000D03*
D13*
X31240000Y-45090000D03*
X33780000Y-45090000D03*
X36320000Y-45090000D03*
X38860000Y-45090000D03*
X41400000Y-45090000D03*
X43940000Y-45090000D03*
X46480000Y-45090000D03*
X49020000Y-45090000D03*
X51560000Y-45090000D03*
X54100000Y-45090000D03*
X56640000Y-45090000D03*
X59180000Y-45090000D03*
X61720000Y-45090000D03*
X64260000Y-45090000D03*
X66800000Y-45090000D03*
X69340000Y-45090000D03*
X71880000Y-45090000D03*
X74420000Y-45090000D03*
X76960000Y-45090000D03*
%TD*%
D12*
%TO.C,J5*%
X82412000Y-95333699D03*
D13*
X82412000Y-92793699D03*
X82412000Y-90253699D03*
X82412000Y-87713699D03*
X82412000Y-85173699D03*
%TD*%
D15*
%TO.C,U5*%
X41600000Y-59190000D03*
X37800000Y-59190000D03*
D14*
X42150000Y-63840000D03*
D16*
X38430000Y-56440000D03*
X40970000Y-56440000D03*
X38430000Y-61940000D03*
X40970000Y-61940000D03*
%TD*%
D18*
%TO.C,C1*%
X48922500Y-34260000D03*
X50997500Y-34260000D03*
%TD*%
D19*
%TO.C,R2*%
X75210000Y-34510000D03*
X75210000Y-36510000D03*
%TD*%
D20*
%TO.C,Rcomp1*%
X112937500Y-54890673D03*
X110937500Y-54890673D03*
%TD*%
D21*
%TO.C,Cin2*%
X99405000Y-33105673D03*
X99405000Y-31030673D03*
%TD*%
D22*
%TO.C,D3*%
X78185000Y-37010000D03*
X80235000Y-37010000D03*
%TD*%
D23*
%TO.C,C4*%
X41497500Y-30510000D03*
X39422500Y-30510000D03*
%TD*%
D20*
%TO.C,Rcomp2*%
X112935000Y-33418173D03*
X110935000Y-33418173D03*
%TD*%
D24*
%TO.C,Rfilt1*%
X103337500Y-54890673D03*
X105337500Y-54890673D03*
%TD*%
%TO.C,Ccomp1*%
X110937500Y-56980673D03*
X112937500Y-56980673D03*
%TD*%
%TO.C,Rfilt2*%
X103335000Y-33418173D03*
X105335000Y-33418173D03*
%TD*%
%TO.C,R7*%
X34821200Y-95664099D03*
X36821200Y-95664099D03*
%TD*%
%TO.C,R4*%
X107175000Y-33418173D03*
X109175000Y-33418173D03*
%TD*%
%TO.C,R8*%
X43791200Y-86614099D03*
X45791200Y-86614099D03*
%TD*%
D25*
%TO.C,U1*%
X44435000Y-33605000D03*
X44435000Y-34875000D03*
X44435000Y-36145000D03*
X44435000Y-37415000D03*
X39485000Y-37415000D03*
X39485000Y-36145000D03*
X39485000Y-34875000D03*
X39485000Y-33605000D03*
%TD*%
D21*
%TO.C,Cbyp1*%
X101427500Y-54568173D03*
X101427500Y-52493173D03*
%TD*%
D25*
%TO.C,U3*%
X67435000Y-34105000D03*
X67435000Y-35375000D03*
X67435000Y-36645000D03*
X67435000Y-37915000D03*
X62485000Y-37915000D03*
X62485000Y-36645000D03*
X62485000Y-35375000D03*
X62485000Y-34105000D03*
%TD*%
D21*
%TO.C,C5*%
X48711200Y-93461599D03*
X48711200Y-91386599D03*
%TD*%
D25*
%TO.C,U2*%
X59975400Y-90157499D03*
X59975400Y-91427499D03*
X59975400Y-92697499D03*
X59975400Y-93967499D03*
X55025400Y-93967499D03*
X55025400Y-92697499D03*
X55025400Y-91427499D03*
X55025400Y-90157499D03*
%TD*%
D26*
%TO.C,C10*%
X28691200Y-90976599D03*
X28691200Y-89251599D03*
%TD*%
D21*
%TO.C,Cbyp2*%
X101425000Y-33095673D03*
X101425000Y-31020673D03*
%TD*%
D24*
%TO.C,R4*%
X50627400Y-92668899D03*
X52627400Y-92668899D03*
%TD*%
D27*
%TO.C,C3*%
X48651200Y-87556599D03*
X48651200Y-89631599D03*
%TD*%
D21*
%TO.C,Cin1*%
X99407500Y-54578173D03*
X99407500Y-52503173D03*
%TD*%
D28*
%TO.C,D4*%
X80235000Y-33760000D03*
X78185000Y-33760000D03*
%TD*%
D22*
%TO.C,D2*%
X30935000Y-33010000D03*
X32985000Y-33010000D03*
%TD*%
D28*
%TO.C,D1*%
X32985000Y-36260000D03*
X30935000Y-36260000D03*
%TD*%
D18*
%TO.C,C2*%
X48922500Y-37260000D03*
X50997500Y-37260000D03*
%TD*%
D24*
%TO.C,R2*%
X107177500Y-54890673D03*
X109177500Y-54890673D03*
%TD*%
D29*
%TO.C,C9*%
X63941200Y-84574099D03*
X65666200Y-84574099D03*
%TD*%
D23*
%TO.C,C13*%
X83747500Y-46260000D03*
X81672500Y-46260000D03*
%TD*%
D20*
%TO.C,R1*%
X52601200Y-90694099D03*
X50601200Y-90694099D03*
%TD*%
D30*
%TO.C,Q1*%
X63521200Y-86386599D03*
X65421200Y-86386599D03*
X64471200Y-88261599D03*
%TD*%
%TO.C,Q2*%
X62333600Y-92273599D03*
X64233600Y-92273599D03*
X63283600Y-94148599D03*
%TD*%
D18*
%TO.C,C7*%
X46803700Y-95354099D03*
X48878700Y-95354099D03*
%TD*%
D31*
%TO.C,Y1*%
X61004550Y-86842799D03*
X52980250Y-86842799D03*
%TD*%
D12*
%TO.C,J4*%
X30731800Y-118613499D03*
D13*
X33271800Y-118613499D03*
X35811800Y-118613499D03*
X38351800Y-118613499D03*
X40891800Y-118613499D03*
X43431800Y-118613499D03*
X45971800Y-118613499D03*
X48511800Y-118613499D03*
X51051800Y-118613499D03*
X53591800Y-118613499D03*
X56131800Y-118613499D03*
X58671800Y-118613499D03*
X61211800Y-118613499D03*
X63751800Y-118613499D03*
X66291800Y-118613499D03*
X68831800Y-118613499D03*
X71371800Y-118613499D03*
X73911800Y-118613499D03*
X76451800Y-118613499D03*
X78991800Y-118613499D03*
%TD*%
D28*
%TO.C,D1*%
X31804600Y-95440699D03*
X29754600Y-95440699D03*
%TD*%
D18*
%TO.C,C7*%
X70422500Y-37760000D03*
X72497500Y-37760000D03*
%TD*%
%TO.C,C10*%
X70422500Y-31760000D03*
X72497500Y-31760000D03*
%TD*%
D24*
%TO.C,Ccomp4*%
X110935000Y-35508173D03*
X112935000Y-35508173D03*
%TD*%
D32*
%TO.C,R1*%
X35710000Y-35010000D03*
X35710000Y-33010000D03*
%TD*%
D33*
%TO.C,D2*%
X30641200Y-91059099D03*
X30641200Y-89009099D03*
%TD*%
D18*
%TO.C,C3*%
X48922500Y-31260000D03*
X50997500Y-31260000D03*
%TD*%
D34*
%TO.C,Rsense1*%
X106467500Y-52760673D03*
X103367500Y-52760673D03*
%TD*%
D24*
%TO.C,R3*%
X50633000Y-94653299D03*
X52633000Y-94653299D03*
%TD*%
%TO.C,R2*%
X62131200Y-90284099D03*
X64131200Y-90284099D03*
%TD*%
D12*
%TO.C,J7*%
X30731800Y-103373499D03*
D13*
X33271800Y-103373499D03*
X35811800Y-103373499D03*
X38351800Y-103373499D03*
X40891800Y-103373499D03*
X43431800Y-103373499D03*
X45971800Y-103373499D03*
X48511800Y-103373499D03*
X51051800Y-103373499D03*
X53591800Y-103373499D03*
X56131800Y-103373499D03*
X58671800Y-103373499D03*
X61211800Y-103373499D03*
X63751800Y-103373499D03*
X66291800Y-103373499D03*
X68831800Y-103373499D03*
X71371800Y-103373499D03*
X73911800Y-103373499D03*
X76451800Y-103373499D03*
X78991800Y-103373499D03*
%TD*%
D18*
%TO.C,C6*%
X70422500Y-34760000D03*
X72497500Y-34760000D03*
%TD*%
D23*
%TO.C,C11*%
X64497500Y-31010000D03*
X62422500Y-31010000D03*
%TD*%
D34*
%TO.C,Rsense2*%
X106465000Y-31288173D03*
X103365000Y-31288173D03*
%TD*%
D18*
%TO.C,C2*%
X45873700Y-84644099D03*
X47948700Y-84644099D03*
%TD*%
M02*
