M48
; DRILL file {KiCad 6.0.7+dfsg-1~bpo11+1} date Thu 15 Sep 2022 10:54:27 PM EDT
; FORMAT={-:-/ absolute / metric / decimal}
; #@! TF.CreationDate,2022-09-15T22:54:27-04:00
; #@! TF.GenerationSoftware,Kicad,Pcbnew,6.0.7+dfsg-1~bpo11+1
; #@! TF.FileFunction,Plated,1,4,PTH
FMAT,2
METRIC
; #@! TA.AperFunction,Plated,PTH,ViaDrill
T1C0.400
; #@! TA.AperFunction,Plated,PTH,ComponentDrill
T2C0.900
; #@! TA.AperFunction,Plated,PTH,ComponentDrill
T3C1.000
%
G90
G05
T1
X28.221Y-92.794
X29.041Y-87.364
X29.441Y-92.954
X30.96Y-37.76
X32.213Y-88.946
X33.891Y-89.514
X34.305Y-90.448
X34.591Y-94.204
X36.46Y-39.76
X37.479Y-87.136
X38.741Y-94.779
X38.984Y-89.994
X40.355Y-90.894
X40.407Y-89.445
X40.46Y-32.26
X44.46Y-31.535
X45.681Y-93.284
X47.161Y-90.274
X49.609Y-86.518
X49.643Y-90.653
X49.881Y-89.204
X50.46Y-29.51
X50.704Y-84.842
X51.893Y-83.982
X54.672Y-88.458
X55.316Y-87.693
X56.011Y-88.544
X56.201Y-90.214
X56.21Y-35.76
X56.545Y-86.17
X57.141Y-94.604
X57.361Y-92.894
X57.737Y-86.627
X57.997Y-28.649
X58.21Y-33.01
X58.461Y-87.834
X59.96Y-35.76
X60.431Y-88.894
X60.687Y-114.3
X61.434Y-92.069
X65.881Y-91.104
X68.96Y-31.76
X73.71Y-33.01
X80.21Y-38.76
X82.21Y-44.76
X96.393Y-61.756
X96.901Y-40.42
X98.785Y-35.608
X98.787Y-57.081
X99.187Y-59.978
X99.695Y-38.642
X105.19Y-35.533
X105.192Y-57.006
X105.537Y-42.96
X105.791Y-63.788
X107.175Y-34.998
X107.177Y-56.471
X108.215Y-32.138
X108.331Y-53.628
T2
X32.47Y-58.49
X32.47Y-63.49
X32.47Y-71.65
X32.47Y-76.65
X34.97Y-60.99
X34.97Y-74.15
X55.46Y-71.66
X55.46Y-76.66
X55.49Y-58.51
X55.49Y-63.51
X57.96Y-74.16
X57.99Y-61.01
T3
X26.71Y-32.985
X26.71Y-35.525
X28.7Y-45.09
X28.7Y-48.48
X28.71Y-23.68
X28.71Y-26.785
X28.71Y-42.0
X29.83Y-57.74
X29.83Y-60.28
X29.83Y-62.82
X29.83Y-70.9
X29.83Y-73.44
X29.83Y-75.98
X30.401Y-82.804
X30.401Y-98.044
X30.701Y-111.133
X30.701Y-114.818
X30.732Y-103.373
X30.732Y-118.613
X31.24Y-45.09
X31.24Y-48.48
X31.25Y-23.68
X31.25Y-26.785
X31.25Y-42.0
X32.941Y-82.804
X32.941Y-98.044
X33.241Y-111.133
X33.241Y-114.818
X33.272Y-103.373
X33.272Y-118.613
X33.78Y-45.09
X33.78Y-48.48
X33.79Y-23.68
X33.79Y-26.785
X33.79Y-42.0
X35.481Y-82.804
X35.481Y-98.044
X35.812Y-103.373
X35.812Y-118.613
X36.32Y-45.09
X36.33Y-23.68
X36.33Y-26.785
X36.33Y-42.0
X38.021Y-82.804
X38.021Y-98.044
X38.352Y-103.373
X38.352Y-118.613
X38.43Y-56.44
X38.43Y-61.94
X38.43Y-69.6
X38.43Y-75.1
X38.86Y-45.09
X38.87Y-23.68
X38.87Y-26.785
X38.87Y-42.0
X38.92Y-48.48
X40.561Y-82.804
X40.561Y-98.044
X40.892Y-103.373
X40.892Y-118.613
X40.97Y-56.44
X40.97Y-61.94
X40.97Y-69.6
X40.97Y-75.1
X41.4Y-45.09
X41.41Y-23.68
X41.41Y-26.785
X41.41Y-42.0
X41.46Y-48.48
X43.101Y-82.804
X43.101Y-98.044
X43.432Y-103.373
X43.432Y-118.613
X43.94Y-45.09
X43.95Y-23.68
X43.95Y-26.785
X43.95Y-42.0
X44.0Y-48.48
X44.211Y-88.43
X44.216Y-92.088
X45.641Y-82.804
X45.641Y-98.044
X45.972Y-103.373
X45.972Y-118.613
X46.48Y-45.09
X46.49Y-23.68
X46.49Y-26.785
X46.49Y-42.0
X46.751Y-88.43
X46.756Y-92.088
X48.181Y-82.804
X48.181Y-98.044
X48.512Y-103.373
X48.512Y-118.613
X48.93Y-48.47
X49.02Y-45.09
X49.03Y-23.68
X49.03Y-26.785
X49.03Y-42.0
X50.721Y-82.804
X50.721Y-98.044
X51.052Y-103.373
X51.052Y-118.613
X51.47Y-48.47
X51.56Y-45.09
X51.57Y-23.68
X51.57Y-26.785
X51.57Y-42.0
X52.82Y-70.91
X52.82Y-73.45
X52.82Y-75.99
X52.85Y-57.76
X52.85Y-60.3
X52.85Y-62.84
X53.261Y-82.804
X53.261Y-98.044
X53.592Y-103.373
X53.592Y-118.613
X53.86Y-30.51
X54.01Y-48.47
X54.1Y-45.09
X54.11Y-23.68
X54.11Y-26.785
X54.11Y-42.0
X55.801Y-82.804
X55.801Y-98.044
X56.132Y-103.373
X56.132Y-118.613
X56.4Y-30.51
X56.64Y-45.09
X56.65Y-23.68
X56.65Y-26.785
X56.65Y-42.0
X56.761Y-107.155
X56.761Y-109.695
X56.761Y-112.235
X56.761Y-114.775
X58.341Y-82.804
X58.341Y-98.044
X58.672Y-103.373
X58.672Y-118.613
X58.94Y-30.51
X59.18Y-45.09
X59.185Y-48.47
X59.19Y-23.68
X59.19Y-26.785
X59.19Y-42.0
X59.301Y-107.155
X59.301Y-109.695
X59.301Y-112.235
X59.301Y-114.775
X60.881Y-82.804
X60.881Y-98.044
X61.212Y-103.373
X61.212Y-118.613
X61.42Y-69.61
X61.42Y-75.11
X61.45Y-56.46
X61.45Y-61.96
X61.72Y-45.09
X61.725Y-48.47
X61.73Y-23.68
X61.73Y-26.785
X61.73Y-42.0
X63.421Y-82.804
X63.421Y-98.044
X63.752Y-103.373
X63.752Y-118.613
X63.96Y-69.61
X63.96Y-75.11
X63.99Y-56.46
X63.99Y-61.96
X64.26Y-45.09
X64.265Y-48.47
X64.27Y-23.68
X64.27Y-26.785
X64.27Y-42.0
X65.961Y-82.804
X65.961Y-98.044
X66.292Y-103.373
X66.292Y-118.613
X66.8Y-45.09
X66.81Y-23.68
X66.81Y-26.785
X66.81Y-42.0
X68.501Y-82.804
X68.501Y-98.044
X68.832Y-103.373
X68.832Y-118.613
X69.34Y-45.09
X69.35Y-23.68
X69.35Y-26.785
X69.35Y-42.0
X71.041Y-82.804
X71.041Y-98.044
X71.29Y-48.5
X71.372Y-103.373
X71.372Y-118.613
X71.88Y-45.09
X71.89Y-23.68
X71.89Y-26.785
X71.89Y-42.0
X73.581Y-82.804
X73.581Y-98.044
X73.83Y-48.5
X73.912Y-103.373
X73.912Y-118.613
X74.42Y-45.09
X74.43Y-23.68
X74.43Y-26.785
X74.43Y-42.0
X76.121Y-82.804
X76.121Y-98.044
X76.37Y-48.5
X76.452Y-103.373
X76.452Y-118.613
X76.96Y-45.09
X76.97Y-23.68
X76.97Y-26.785
X76.97Y-42.0
X78.661Y-82.804
X78.661Y-98.044
X78.992Y-103.373
X78.992Y-118.613
X82.185Y-26.76
X82.185Y-42.01
X82.412Y-85.174
X82.412Y-87.714
X82.412Y-90.254
X82.412Y-92.794
X82.412Y-95.334
X82.776Y-106.032
X82.776Y-108.572
X82.776Y-111.112
X82.776Y-113.652
X82.776Y-116.192
X84.21Y-33.01
X84.21Y-35.55
X84.725Y-26.76
X84.725Y-42.01
X97.135Y-31.143
X97.135Y-33.683
X97.137Y-52.616
X97.137Y-55.156
X119.235Y-52.638
X119.235Y-55.178
X119.235Y-58.858
X119.235Y-61.398
X119.245Y-31.163
X119.245Y-33.703
X119.255Y-37.368
X119.255Y-39.908
T0
M30
